<svg xmlns="http://www.w3.org/2000/svg" viewBox="0 0 43.109 29.643" height="29.643" width="43.109" xml:space="preserve" id="svg2" version="1.1"><defs id="defs6"><clipPath id="clipPath18" clipPathUnits="userSpaceOnUse"><path id="path16" d="M 0,22.232 H 32.332 V 0 H 0 Z"/></clipPath></defs><g transform="matrix(1.33333 0 0 -1.33333 0 29.643)" id="g10"><g id="g12"><g clip-path="url(#clipPath18)" id="g14"><g transform="translate(9.973 20.023)" id="g20"><path id="path22" d="m 0,0 h 9.975 c 0.263,0 0.476,0.212 0.476,0.475 0,0.262 -0.213,0.474 -0.476,0.474 H 0 C -0.262,0.949 -0.475,0.737 -0.475,0.475 -0.475,0.212 -0.262,0 0,0" fill="#1496e2" fill-opacity="1" fill-rule="nonzero" stroke="none"/></g><g transform="translate(1.05 15.382)" id="g24"><path id="path26" d="m 0,0 h 9.976 c 0.262,0 0.474,0.212 0.474,0.475 0,0.261 -0.212,0.474 -0.474,0.474 H 0 C -0.262,0.949 -0.475,0.736 -0.475,0.475 -0.475,0.212 -0.262,0 0,0" fill="#1496e2" fill-opacity="1" fill-rule="nonzero" stroke="none"/></g><g transform="translate(3.73 10.5)" id="g28"><path id="path30" d="m 0,0 c 0,-0.262 0.212,-0.475 0.474,-0.475 h 9.976 c 0.262,0 0.475,0.213 0.475,0.475 0,0.262 -0.213,0.475 -0.475,0.475 H 0.474 C 0.212,0.475 0,0.262 0,0" fill="#1496e2" fill-opacity="1" fill-rule="nonzero" stroke="none"/></g><g transform="translate(9.438 4.982)" id="g32"><path id="path34" d="m 0,0 h -8.963 c -0.263,0 -0.475,-0.212 -0.475,-0.475 0,-0.261 0.212,-0.474 0.475,-0.474 H 0 c 0.262,0 0.475,0.213 0.475,0.474 C 0.475,-0.212 0.262,0 0,0" fill="#1496e2" fill-opacity="1" fill-rule="nonzero" stroke="none"/></g><g transform="translate(25.566 17.047)" id="g36"><path id="path38" d="M 0,0 C 1.432,0 2.592,1.161 2.592,2.593 2.592,4.024 1.432,5.185 0,5.185 -1.433,5.185 -2.593,4.024 -2.593,2.593 -2.593,1.161 -1.433,0 0,0" fill="#1496e2" fill-opacity="1" fill-rule="nonzero" stroke="none"/></g><g transform="translate(29.83 17.794)" id="g40"><path id="path42" d="m 0,0 c -1.489,-2.085 -3.482,-2.326 -5.627,-1.053 -0.146,0.087 -0.794,0.444 -0.937,0.529 -3.451,2.048 -6.897,1.245 -9.209,-1.992 -0.982,-1.377 1.29,-2.682 2.261,-1.321 1.194,1.672 2.712,2.156 4.373,1.627 -0.85,-1.477 -1.593,-2.944 -2.642,-5.028 -1.05,-2.085 -3.367,-3.749 -5.593,-2.447 -1.606,0.938 -3.055,-1.369 -1.453,-2.305 3.039,-1.776 6.602,-0.685 8.422,1.623 0.063,-0.033 0.13,-0.063 0.203,-0.089 1.486,-0.518 3.434,-1.896 4.027,-2.384 0.594,-0.49 1.613,-2.978 2.219,-4.229 0.734,-1.516 3.106,-0.412 2.369,1.111 -0.686,1.419 -1.838,4.251 -2.736,4.967 -0.721,0.575 -2.121,1.645 -3.308,2.251 0.803,1.556 1.64,3.094 2.52,4.606 2.805,-0.86 5.471,0.153 7.371,2.813 C 3.243,0.056 0.972,1.361 0,0" fill="#1496e2" fill-opacity="1" fill-rule="nonzero" stroke="none"/></g></g></g></g></svg>