<svg xmlns="http://www.w3.org/2000/svg" viewBox="0 0 30.716 29.486" height="29.486" width="30.716" xml:space="preserve" id="svg2" version="1.1"><defs id="defs6"><clipPath id="clipPath18" clipPathUnits="userSpaceOnUse"><path id="path16" d="M 0,22.114 H 23.037 V 0 H 0 Z"/></clipPath></defs><g transform="matrix(1.33333 0 0 -1.33333 0 29.486)" id="g10"><g id="g12"><g clip-path="url(#clipPath18)" id="g14"><g transform="translate(5.384 17.905)" id="g20"><path id="path22" d="M 0,0 9.184,2.507 8.698,3.49 C 8.379,4.129 7.603,4.393 6.964,4.074 L -1.257,0 Z" fill="#1496e2" fill-opacity="1" fill-rule="nonzero" stroke="none"/></g><g transform="translate(17.418 20.339)" id="g24"><path id="path26" d="m 0,0 c -0.114,0 -0.228,-0.015 -0.342,-0.046 l -2.157,-0.59 -6.589,-1.798 H 1.65 L 1.247,-0.955 C 1.092,-0.377 0.569,0 0,0" fill="#1496e2" fill-opacity="1" fill-rule="nonzero" stroke="none"/></g><g transform="translate(20.416 16.999)" id="g28"><path id="path30" d="m 0,0 h -19.12 c -0.409,0 -0.774,-0.188 -1.012,-0.486 -0.108,-0.138 -0.191,-0.295 -0.238,-0.469 -0.028,-0.108 -0.047,-0.222 -0.047,-0.338 v -14.413 c 0,-0.713 0.58,-1.293 1.294,-1.293 h 19.121 c 0.714,0 1.293,0.58 1.293,1.293 v 3.61 h -7.676 c -1.213,0 -2.198,0.985 -2.198,2.198 v 2.877 c 0,0.595 0.237,1.136 0.623,1.532 0.342,0.351 0.8,0.59 1.312,0.649 0.086,0.01 0.173,0.015 0.261,0.015 h 7.678 v 3.532 C 1.294,-0.579 0.714,0 0,0" fill="#1496e2" fill-opacity="1" fill-rule="nonzero" stroke="none"/></g><g transform="translate(16.733 8.286)" id="g32"><path id="path34" d="m 0,0 c 0,-0.356 -0.29,-0.646 -0.646,-0.646 h -0.43 c -0.358,0 -0.647,0.29 -0.647,0.646 v 0.43 c 0,0.207 0.096,0.39 0.248,0.507 0.112,0.085 0.248,0.14 0.399,0.14 h 0.43 C -0.29,1.077 0,0.787 0,0.43 Z M 5.883,2.652 C 5.754,2.771 5.601,2.862 5.43,2.921 5.298,2.965 5.158,2.991 5.011,2.991 h -7.712 c -0.714,0 -1.293,-0.579 -1.293,-1.294 v -2.879 c 0,-0.714 0.579,-1.294 1.293,-1.294 h 7.712 c 0.147,0 0.287,0.027 0.419,0.071 0.171,0.056 0.324,0.15 0.453,0.268 0.259,0.237 0.422,0.577 0.422,0.955 v 2.879 c 0,0.378 -0.163,0.72 -0.422,0.955" fill="#1496e2" fill-opacity="1" fill-rule="nonzero" stroke="none"/></g></g></g></g></svg>