<svg xmlns="http://www.w3.org/2000/svg" viewBox="0 0 26 26" height="26" width="26" xml:space="preserve" id="svg2" version="1.1"><defs id="defs6"><clipPath id="clipPath18" clipPathUnits="userSpaceOnUse"><path id="path16" d="M 0,19.5 H 19.5 V 0 H 0 Z"/></clipPath></defs><g transform="matrix(1.33333 0 0 -1.33333 0 26)" id="g10"><g id="g12"><g clip-path="url(#clipPath18)" id="g14"><g transform="translate(13.965 7.896)" id="g20"><path id="path22" d="M 0,0 H -4.134 C -4.147,0 -4.16,0.004 -4.175,0.004 -4.188,0.004 -4.201,0 -4.215,0 -4.587,0 -4.89,0.303 -4.89,0.675 v 6.883 c 0,0.373 0.303,0.674 0.675,0.674 0.372,0 0.674,-0.301 0.674,-0.674 V 1.349 H 0 C 0.372,1.349 0.674,1.047 0.674,0.675 0.674,0.303 0.372,0 0,0 m -4.215,11.604 c -5.385,0 -9.75,-4.365 -9.75,-9.75 0,-5.384 4.365,-9.75 9.75,-9.75 5.385,0 9.75,4.366 9.75,9.75 0,5.385 -4.365,9.75 -9.75,9.75" fill="#1496e2" fill-opacity="1" fill-rule="nonzero" stroke="none"/></g></g></g></g></svg>