<svg xmlns="http://www.w3.org/2000/svg" viewBox="0 0 62.44 62.493" height="62.493" width="62.44" xml:space="preserve" id="svg2" version="1.1"><defs id="defs6"><clipPath id="clipPath18" clipPathUnits="userSpaceOnUse"><path id="path16" d="M 0,46.87 H 46.83 V 0 H 0 Z"/></clipPath><clipPath id="clipPath26" clipPathUnits="userSpaceOnUse"><path id="path24" d="M 0,26.2399 H 26.2399 V 0 H 0 Z"/></clipPath><clipPath id="clipPath42" clipPathUnits="userSpaceOnUse"><path id="path40" d="M 5.24718,20.993 H 20.9908 V 5.24907 H 5.24718 Z"/></clipPath><clipPath id="clipPath298" clipPathUnits="userSpaceOnUse"><path id="path296" d="M 24.4444,43.0526 H 43.0493 V 24.4476 H 24.4444 Z"/></clipPath><clipPath id="clipPath314" clipPathUnits="userSpaceOnUse"><path id="path312" d="M 26.5312,40.9658 H 40.9625 V 26.5345 H 26.5312 Z"/></clipPath></defs><g transform="matrix(1.33333 0 0 -1.33333 0 62.493)" id="g10"><g id="g12"><g clip-path="url(#clipPath18)" id="g14"><g id="g20"><g id="g34"><g id="g32" clip-path="url(#clipPath26)" opacity=".4"><g id="g30" transform="translate(13.12 26.24)"><path id="path28" d="M 0,0 C 7.246,0 13.12,-5.875 13.12,-13.121 13.12,-20.366 7.246,-26.24 0,-26.24 c -7.246,0 -13.12,5.874 -13.12,13.119 C -13.12,-5.875 -7.246,0 0,0" fill="#1496e2" fill-opacity="1" fill-rule="nonzero" stroke="none"/></g></g></g></g><g id="g36"><g id="g50"><g id="g48" clip-path="url(#clipPath42)" opacity=".7"><g id="g46" transform="translate(20.99 13.12)"><path id="path44" d="m 0,0 c 0,-4.347 -3.526,-7.871 -7.872,-7.871 -4.347,0 -7.872,3.524 -7.872,7.871 0,4.348 3.525,7.872 7.872,7.872 C -3.526,7.872 0,4.348 0,0" fill="#1496e2" fill-opacity="1" fill-rule="nonzero" stroke="none"/></g></g></g></g><g transform="translate(13.744 8.622)" id="g52"><path id="path54" d="m 0,0 h -1.25 c -0.7,0 -1.358,0.273 -1.855,0.769 -0.496,0.496 -0.769,1.155 -0.769,1.856 h 1.5 c 0,-0.301 0.117,-0.584 0.33,-0.797 C -1.833,1.617 -1.55,1.5 -1.25,1.5 H 0 c 0.299,0 0.583,0.117 0.797,0.33 0.21,0.211 0.327,0.494 0.327,0.795 0,0.3 -0.117,0.582 -0.329,0.794 C 0.583,3.632 0.3,3.749 0,3.749 h -1.25 c -0.701,0 -1.361,0.273 -1.855,0.77 -0.495,0.494 -0.768,1.152 -0.768,1.854 0,0.701 0.273,1.36 0.769,1.856 0.496,0.495 1.154,0.768 1.854,0.768 H 0 C 0.699,8.997 1.358,8.725 1.855,8.229 2.351,7.732 2.624,7.073 2.624,6.373 H 1.125 c 0,0.3 -0.118,0.583 -0.33,0.796 C 0.583,7.38 0.3,7.497 0,7.497 h -1.25 c -0.3,0 -0.582,-0.117 -0.795,-0.329 -0.212,-0.212 -0.329,-0.494 -0.329,-0.795 0,-0.301 0.117,-0.583 0.329,-0.795 0.212,-0.213 0.495,-0.33 0.795,-0.33 H 0 C 0.7,5.248 1.359,4.976 1.855,4.479 2.351,3.983 2.623,3.325 2.623,2.625 2.623,1.925 2.351,1.267 1.856,0.771 1.357,0.272 0.699,0 0,0" fill="#fff" fill-opacity="1" fill-rule="nonzero" stroke="none"/></g><path id="path56" d="m 12.37,18.369 h 1.5 v -1.5 h -1.5 z" fill="#fff" fill-opacity="1" fill-rule="nonzero" stroke="none"/><path id="path58" d="m 12.37,9.372 h 1.5 V 7.874 h -1.5 z" fill="#fff" fill-opacity="1" fill-rule="nonzero" stroke="none"/><path id="path60" d="m 12.79,24.535 h 0.656 V 22.698 H 12.79 Z" fill="#fff" fill-opacity="1" fill-rule="nonzero" stroke="none"/><g transform="translate(10.424 24.217)" id="g62"><path id="path64" d="M 0,0 0.642,0.136 1.023,-1.661 0.381,-1.796 Z" fill="#fff" fill-opacity="1" fill-rule="nonzero" stroke="none"/></g><g transform="translate(8.178 23.413)" id="g66"><path id="path68" d="M 0,0 0.599,0.267 1.346,-1.411 0.747,-1.677 Z" fill="#fff" fill-opacity="1" fill-rule="nonzero" stroke="none"/></g><g transform="translate(6.144 22.163)" id="g70"><path id="path72" d="M 0,0 0.531,0.385 1.61,-1.101 1.08,-1.486 Z" fill="#fff" fill-opacity="1" fill-rule="nonzero" stroke="none"/></g><g transform="translate(4.42 20.512)" id="g74"><path id="path76" d="M 0,0 0.439,0.487 1.804,-0.741 1.365,-1.229 Z" fill="#fff" fill-opacity="1" fill-rule="nonzero" stroke="none"/></g><g transform="translate(3.068 18.544)" id="g78"><path id="path80" d="M 0,0 0.328,0.568 1.918,-0.35 1.591,-0.917 Z" fill="#fff" fill-opacity="1" fill-rule="nonzero" stroke="none"/></g><g transform="translate(2.163 16.335)" id="g82"><path id="path84" d="M 0,0 0.203,0.624 1.95,0.057 1.747,-0.567 Z" fill="#fff" fill-opacity="1" fill-rule="nonzero" stroke="none"/></g><g transform="translate(1.732 13.989)" id="g86"><path id="path88" d="M 0,0 0.069,0.652 1.896,0.46 1.827,-0.192 Z" fill="#fff" fill-opacity="1" fill-rule="nonzero" stroke="none"/></g><g transform="translate(1.734 12.254)" id="g90"><path id="path92" d="M 0,0 1.827,0.191 1.895,-0.461 0.069,-0.652 Z" fill="#fff" fill-opacity="1" fill-rule="nonzero" stroke="none"/></g><g transform="translate(2.163 9.906)" id="g94"><path id="path96" d="M 0,0 1.747,0.567 1.95,-0.056 0.203,-0.624 Z" fill="#fff" fill-opacity="1" fill-rule="nonzero" stroke="none"/></g><g transform="translate(3.07 7.699)" id="g98"><path id="path100" d="M 0,0 1.591,0.918 1.918,0.35 0.328,-0.568 Z" fill="#fff" fill-opacity="1" fill-rule="nonzero" stroke="none"/></g><g transform="translate(4.417 5.726)" id="g102"><path id="path104" d="M 0,0 1.365,1.229 1.804,0.74 0.439,-0.488 Z" fill="#fff" fill-opacity="1" fill-rule="nonzero" stroke="none"/></g><g transform="translate(6.145 4.08)" id="g106"><path id="path108" d="M 0,0 1.08,1.485 1.611,1.1 0.53,-0.386 Z" fill="#fff" fill-opacity="1" fill-rule="nonzero" stroke="none"/></g><g transform="translate(8.177 2.828)" id="g110"><path id="path112" d="M 0,0 0.748,1.677 1.347,1.409 0.599,-0.268 Z" fill="#fff" fill-opacity="1" fill-rule="nonzero" stroke="none"/></g><g transform="translate(10.43 2.023)" id="g114"><path id="path116" d="M 0,0 0.382,1.797 1.024,1.661 0.642,-0.137 Z" fill="#fff" fill-opacity="1" fill-rule="nonzero" stroke="none"/></g><path id="path118" d="m 12.791,3.544 h 0.656 V 1.708 h -0.656 z" fill="#fff" fill-opacity="1" fill-rule="nonzero" stroke="none"/><g transform="translate(14.79 3.686)" id="g120"><path id="path122" d="M 0,0 0.642,0.136 1.023,-1.66 0.381,-1.797 Z" fill="#fff" fill-opacity="1" fill-rule="nonzero" stroke="none"/></g><g transform="translate(16.713 4.244)" id="g124"><path id="path126" d="M 0,0 0.6,0.267 1.346,-1.412 0.747,-1.679 Z" fill="#fff" fill-opacity="1" fill-rule="nonzero" stroke="none"/></g><g transform="translate(18.484 5.176)" id="g128"><path id="path130" d="M 0,0 0.531,0.386 1.61,-1.101 1.079,-1.486 Z" fill="#fff" fill-opacity="1" fill-rule="nonzero" stroke="none"/></g><g transform="translate(20.02 6.467)" id="g132"><path id="path134" d="M 0,0 0.439,0.487 1.804,-0.741 1.365,-1.229 Z" fill="#fff" fill-opacity="1" fill-rule="nonzero" stroke="none"/></g><g transform="translate(21.252 8.048)" id="g136"><path id="path138" d="M 0,0 0.328,0.568 1.918,-0.351 1.591,-0.918 Z" fill="#fff" fill-opacity="1" fill-rule="nonzero" stroke="none"/></g><g transform="translate(22.127 9.85)" id="g140"><path id="path142" d="M 0,0 0.203,0.623 1.95,0.056 1.747,-0.568 Z" fill="#fff" fill-opacity="1" fill-rule="nonzero" stroke="none"/></g><g transform="translate(22.608 11.791)" id="g144"><path id="path146" d="M 0,0 0.069,0.652 1.896,0.46 1.827,-0.192 Z" fill="#fff" fill-opacity="1" fill-rule="nonzero" stroke="none"/></g><g transform="translate(22.609 14.45)" id="g148"><path id="path150" d="M 0,0 1.827,0.192 1.896,-0.46 0.068,-0.652 Z" fill="#fff" fill-opacity="1" fill-rule="nonzero" stroke="none"/></g><g transform="translate(22.126 16.394)" id="g152"><path id="path154" d="M 0,0 1.747,0.568 1.95,-0.056 0.203,-0.623 Z" fill="#fff" fill-opacity="1" fill-rule="nonzero" stroke="none"/></g><g transform="translate(21.25 18.195)" id="g156"><path id="path158" d="M 0,0 1.591,0.919 1.919,0.351 0.328,-0.568 Z" fill="#fff" fill-opacity="1" fill-rule="nonzero" stroke="none"/></g><g transform="translate(20.016 19.77)" id="g160"><path id="path162" d="M 0,0 1.365,1.23 1.804,0.743 0.439,-0.487 Z" fill="#fff" fill-opacity="1" fill-rule="nonzero" stroke="none"/></g><g transform="translate(18.48 21.062)" id="g164"><path id="path166" d="M 0,0 1.08,1.487 1.61,1.101 0.531,-0.385 Z" fill="#fff" fill-opacity="1" fill-rule="nonzero" stroke="none"/></g><g transform="translate(16.712 22.005)" id="g168"><path id="path170" d="M 0,0 0.748,1.678 1.347,1.411 0.599,-0.267 Z" fill="#fff" fill-opacity="1" fill-rule="nonzero" stroke="none"/></g><g transform="translate(14.791 22.556)" id="g172"><path id="path174" d="M 0,0 0.382,1.796 1.024,1.66 0.642,-0.137 Z" fill="#fff" fill-opacity="1" fill-rule="nonzero" stroke="none"/></g><path id="path176" d="m 33.418,46.87 h 0.657 v -2.111 h -0.657 z" fill="#6d53fe" fill-opacity="1" fill-rule="nonzero" stroke="none"/><g transform="translate(30.699 46.514)" id="g178"><path id="path180" d="M 0,0 0.642,0.137 1.081,-1.929 0.439,-2.065 Z" fill="#6d53fe" fill-opacity="1" fill-rule="nonzero" stroke="none"/></g><g transform="translate(28.113 45.603)" id="g182"><path id="path184" d="M 0,0 0.6,0.267 1.458,-1.662 0.859,-1.929 Z" fill="#6d53fe" fill-opacity="1" fill-rule="nonzero" stroke="none"/></g><g transform="translate(25.772 44.172)" id="g186"><path id="path188" d="M 0,0 0.53,0.385 1.771,-1.323 1.241,-1.708 Z" fill="#6d53fe" fill-opacity="1" fill-rule="nonzero" stroke="none"/></g><g transform="translate(23.78 42.285)" id="g190"><path id="path192" d="M 0,0 0.439,0.488 2.008,-0.925 1.569,-1.413 Z" fill="#6d53fe" fill-opacity="1" fill-rule="nonzero" stroke="none"/></g><g transform="translate(22.222 40.024)" id="g194"><path id="path196" d="M 0,0 0.328,0.568 2.157,-0.488 1.829,-1.056 Z" fill="#6d53fe" fill-opacity="1" fill-rule="nonzero" stroke="none"/></g><g transform="translate(21.17 37.492)" id="g198"><path id="path200" d="M 0,0 0.203,0.624 2.211,-0.028 2.008,-0.652 Z" fill="#6d53fe" fill-opacity="1" fill-rule="nonzero" stroke="none"/></g><g transform="translate(20.666 34.797)" id="g202"><path id="path204" d="M 0,0 0.068,0.652 2.168,0.432 2.1,-0.221 Z" fill="#6d53fe" fill-opacity="1" fill-rule="nonzero" stroke="none"/></g><g transform="translate(20.667 32.707)" id="g206"><path id="path208" d="m 0,0 2.1,0.22 0.068,-0.652 -2.1,-0.22 z" fill="#6d53fe" fill-opacity="1" fill-rule="nonzero" stroke="none"/></g><g transform="translate(21.17 30.007)" id="g210"><path id="path212" d="M 0,0 2.008,0.652 2.211,0.028 0.203,-0.624 Z" fill="#6d53fe" fill-opacity="1" fill-rule="nonzero" stroke="none"/></g><g transform="translate(22.221 27.476)" id="g214"><path id="path216" d="M 0,0 1.828,1.057 2.156,0.489 0.328,-0.568 Z" fill="#6d53fe" fill-opacity="1" fill-rule="nonzero" stroke="none"/></g><g transform="translate(23.78 25.214)" id="g218"><path id="path220" d="M 0,0 1.57,1.413 2.008,0.925 0.439,-0.488 Z" fill="#6d53fe" fill-opacity="1" fill-rule="nonzero" stroke="none"/></g><g transform="translate(25.775 23.328)" id="g222"><path id="path224" d="M 0,0 1.241,1.708 1.771,1.323 0.531,-0.386 Z" fill="#6d53fe" fill-opacity="1" fill-rule="nonzero" stroke="none"/></g><g transform="translate(28.11 21.898)" id="g226"><path id="path228" d="M 0,0 0.859,1.928 1.458,1.661 0.6,-0.268 Z" fill="#6d53fe" fill-opacity="1" fill-rule="nonzero" stroke="none"/></g><g transform="translate(30.702 20.986)" id="g230"><path id="path232" d="M 0,0 0.438,2.065 1.08,1.929 0.642,-0.136 Z" fill="#6d53fe" fill-opacity="1" fill-rule="nonzero" stroke="none"/></g><path id="path234" d="m 33.421,22.742 h 0.655 V 20.63 h -0.655 z" fill="#6d53fe" fill-opacity="1" fill-rule="nonzero" stroke="none"/><g transform="translate(35.716 22.916)" id="g236"><path id="path238" d="M 0,0 0.642,0.136 1.08,-1.929 0.438,-2.065 Z" fill="#6d53fe" fill-opacity="1" fill-rule="nonzero" stroke="none"/></g><g transform="translate(37.93 23.561)" id="g240"><path id="path242" d="m 0,0 0.599,0.266 0.858,-1.929 -0.6,-0.266 z" fill="#6d53fe" fill-opacity="1" fill-rule="nonzero" stroke="none"/></g><g transform="translate(39.952 24.651)" id="g244"><path id="path246" d="M 0,0 0.53,0.386 1.771,-1.323 1.24,-1.708 Z" fill="#6d53fe" fill-opacity="1" fill-rule="nonzero" stroke="none"/></g><g transform="translate(41.714 26.14)" id="g248"><path id="path250" d="m 0,0 0.439,0.487 1.57,-1.412 -0.44,-0.488 z" fill="#6d53fe" fill-opacity="1" fill-rule="nonzero" stroke="none"/></g><g transform="translate(43.117 27.963)" id="g252"><path id="path254" d="M 0,0 0.328,0.568 2.156,-0.488 1.829,-1.056 Z" fill="#6d53fe" fill-opacity="1" fill-rule="nonzero" stroke="none"/></g><g transform="translate(44.119 30.036)" id="g256"><path id="path258" d="M 0,0 0.202,0.624 2.211,-0.028 2.008,-0.652 Z" fill="#6d53fe" fill-opacity="1" fill-rule="nonzero" stroke="none"/></g><g transform="translate(44.661 32.274)" id="g260"><path id="path262" d="M 0,0 0.068,0.652 2.169,0.432 2.1,-0.221 Z" fill="#6d53fe" fill-opacity="1" fill-rule="nonzero" stroke="none"/></g><g transform="translate(44.661 35.228)" id="g264"><path id="path266" d="m 0,0 2.101,0.221 0.068,-0.652 -2.1,-0.221 z" fill="#6d53fe" fill-opacity="1" fill-rule="nonzero" stroke="none"/></g><g transform="translate(44.115 37.464)" id="g268"><path id="path270" d="M 0,0 2.009,0.652 2.211,0.028 0.203,-0.624 Z" fill="#6d53fe" fill-opacity="1" fill-rule="nonzero" stroke="none"/></g><g transform="translate(43.116 39.539)" id="g272"><path id="path274" d="M 0,0 1.828,1.056 2.156,0.487 0.328,-0.569 Z" fill="#6d53fe" fill-opacity="1" fill-rule="nonzero" stroke="none"/></g><g transform="translate(41.706 41.36)" id="g276"><path id="path278" d="M 0,0 1.568,1.413 2.008,0.926 0.438,-0.487 Z" fill="#6d53fe" fill-opacity="1" fill-rule="nonzero" stroke="none"/></g><g transform="translate(39.953 42.85)" id="g280"><path id="path282" d="M 0,0 1.24,1.708 1.771,1.323 0.531,-0.386 Z" fill="#6d53fe" fill-opacity="1" fill-rule="nonzero" stroke="none"/></g><g transform="translate(37.927 43.94)" id="g284"><path id="path286" d="M 0,0 0.858,1.929 1.458,1.662 0.6,-0.267 Z" fill="#6d53fe" fill-opacity="1" fill-rule="nonzero" stroke="none"/></g><g transform="translate(35.715 44.587)" id="g288"><path id="path290" d="M 0,0 0.439,2.065 1.081,1.929 0.642,-0.136 Z" fill="#6d53fe" fill-opacity="1" fill-rule="nonzero" stroke="none"/></g><g id="g292"><g id="g306"><g id="g304" clip-path="url(#clipPath298)" opacity=".1"><g id="g302" transform="translate(33.746 43.053)"><path id="path300" d="m 0,0 c 5.138,0 9.303,-4.165 9.303,-9.302 0,-5.138 -4.165,-9.303 -9.303,-9.303 -5.138,0 -9.302,4.165 -9.302,9.303 C -9.302,-4.165 -5.138,0 0,0" fill="#6d53fe" fill-opacity="1" fill-rule="nonzero" stroke="none"/></g></g></g></g><g id="g308"><g id="g322"><g id="g320" clip-path="url(#clipPath314)" opacity=".2"><g id="g318" transform="translate(33.746 40.966)"><path id="path316" d="m 0,0 c 3.985,0 7.216,-3.23 7.216,-7.215 0,-3.986 -3.231,-7.216 -7.216,-7.216 -3.984,0 -7.215,3.23 -7.215,7.216 C -7.215,-3.23 -3.984,0 0,0" fill="#6d53fe" fill-opacity="1" fill-rule="nonzero" stroke="none"/></g></g></g></g><g transform="translate(34.373 29.252)" id="g324"><path id="path326" d="m 0,0 h -1.249 c -0.7,0 -1.359,0.273 -1.855,0.768 -0.497,0.496 -0.769,1.155 -0.769,1.857 v 3.748 c 0,0.701 0.272,1.359 0.769,1.856 0.496,0.495 1.155,0.768 1.855,0.768 H 0 c 0.7,0 1.359,-0.273 1.855,-0.768 0.497,-0.497 0.77,-1.156 0.77,-1.856 h -1.5 c 0,0.299 -0.117,0.583 -0.33,0.795 C 0.584,7.38 0.301,7.498 0,7.498 H -1.249 C -1.55,7.498 -1.831,7.38 -2.045,7.168 -2.257,6.956 -2.374,6.673 -2.374,6.373 V 2.625 c 0,-0.301 0.117,-0.583 0.33,-0.796 C -1.832,1.617 -1.55,1.5 -1.249,1.5 H 0 c 0.3,0 0.583,0.117 0.796,0.329 0.212,0.213 0.329,0.495 0.329,0.796 H 2.624 C 2.624,1.924 2.352,1.265 1.855,0.769 1.359,0.272 0.7,0 0,0" fill="#6d53fe" fill-opacity="1" fill-rule="nonzero" stroke="none"/></g><path id="path328" d="m 29.749,35.624 h 4.497 v -1.499 h -4.497 z" fill="#6d53fe" fill-opacity="1" fill-rule="nonzero" stroke="none"/><path id="path330" d="m 29.749,33.374 h 4.497 v -1.499 h -4.497 z" fill="#6d53fe" fill-opacity="1" fill-rule="nonzero" stroke="none"/><g transform="translate(30.427 6.117)" id="g332"><path id="path334" d="m 0,0 v 1.837 c 2.258,0 4.38,0.88 5.977,2.475 1.596,1.596 2.475,3.718 2.475,5.978 h 1.836 C 10.288,7.54 9.219,4.956 7.275,3.014 5.332,1.071 2.748,0 0,0" fill="#6d53fe" fill-opacity="1" fill-rule="nonzero" stroke="none"/></g><g transform="translate(7.916 30.464)" id="g336"><path id="path338" d="m 0,0 h -1.837 c 0,2.749 1.071,5.333 3.015,7.275 1.942,1.944 4.526,3.015 7.274,3.015 V 8.453 C 6.195,8.453 4.072,7.573 2.477,5.977 0.879,4.38 0,2.258 0,0" fill="#6d53fe" fill-opacity="1" fill-rule="nonzero" stroke="none"/></g></g></g></g></svg>