<svg xmlns="http://www.w3.org/2000/svg" viewBox="0 0 50.506 51.333" height="51.333" width="50.506" xml:space="preserve" id="svg2" version="1.1"><defs id="defs6"><clipPath id="clipPath18" clipPathUnits="userSpaceOnUse"><path id="path16" d="M 0,38.5 H 37.88 V 0 H 0 Z"/></clipPath><clipPath id="clipPath26" clipPathUnits="userSpaceOnUse"><path id="path24" d="M 0,26.4147 H 37.8798 V 0 H 0 Z"/></clipPath><clipPath id="clipPath42" clipPathUnits="userSpaceOnUse"><path id="path40" d="M 0,31.7178 H 12.1689 V 25.657 H 0 Z"/></clipPath><clipPath id="clipPath58" clipPathUnits="userSpaceOnUse"><path id="path56" d="M 3.18202,23.9903 H 34.6977 V 3.18184 H 3.18202 Z"/></clipPath><clipPath id="clipPath82" clipPathUnits="userSpaceOnUse"><path id="path80" d="m 13.8356,38.5 h 24.044 V 17.772 h -24.044 z"/></clipPath></defs><g transform="matrix(1.33333 0 0 -1.33333 0 51.333)" id="g10"><g id="g12"><g clip-path="url(#clipPath18)" id="g14"><g id="g20"><g id="g34"><g id="g32" clip-path="url(#clipPath26)" opacity=".7"><g id="g30" transform="translate(37.88)"><path id="path28" d="m 0,0 h -37.879 v 26.415 h 1.515 V 1.516 h 34.849 v 20.05 H 0 Z" fill="#1496e2" fill-opacity="1" fill-rule="nonzero" stroke="none"/></g></g></g></g><g id="g36"><g id="g50"><g id="g48" clip-path="url(#clipPath42)" opacity=".7"><g id="g46" transform="translate(12.169 25.657)"><path id="path44" d="M 0,0 H -12.169 V 6.061 H 0 V 4.546 H -10.654 V 1.516 L 0,1.516 Z" fill="#1496e2" fill-opacity="1" fill-rule="nonzero" stroke="none"/></g></g></g></g><g id="g52"><g id="g66"><g id="g64" clip-path="url(#clipPath58)" opacity=".4"><g id="g62" transform="translate(16.788 19.601)"><path id="path60" d="M 0,0 V 4.389 H -2.194 -13.605 V -16.419 H 17.91 V 4.389 H 4.389 Z" fill="#1496e2" fill-opacity="1" fill-rule="nonzero" stroke="none"/></g></g></g></g><g transform="translate(16.973 3.182)" id="g68"><path id="path70" d="m 0,0 h -10.512 v 3.522 c 0,0.785 0.298,1.569 0.9,2.167 0.596,0.599 1.382,0.9 2.167,0.9 h 4.376 c 0.785,0 1.568,-0.301 2.17,-0.9 C -0.298,5.091 0,4.307 0,3.522 Z" fill="#fff" fill-opacity="1" fill-rule="nonzero" stroke="none"/></g><g transform="translate(14.782 14.16)" id="g72"><path id="path74" d="m 0,0 c 0,-1.692 -1.369,-3.067 -3.065,-3.067 -1.693,0 -3.066,1.375 -3.066,3.067 0,1.691 1.373,3.067 3.066,3.067 C -1.368,3.066 0,1.691 0,0" fill="#fff" fill-opacity="1" fill-rule="nonzero" stroke="none"/></g><g id="g76"><g id="g90"><g id="g88" clip-path="url(#clipPath82)" opacity=".7"><g id="g86" transform="translate(15.35 24.748)"><path id="path84" d="M 0,0 H 2.194 V -3.317 L 5.511,0 H 21.014 V 12.237 H 0 Z m 0.679,-6.976 v 5.46 H -1.515 V 13.752 H 22.529 V -1.516 H 6.139 Z" fill="#1496e2" fill-opacity="1" fill-rule="nonzero" stroke="none"/></g></g></g></g><path id="path92" d="M 17.017,35.318 H 34.698 V 26.415 H 17.017 Z" fill="#6d53fe" fill-opacity="1" fill-rule="nonzero" stroke="none"/><path id="path94" d="M 19.494,33.139 H 32.222 V 31.624 H 19.494 Z" fill="#fff" fill-opacity="1" fill-rule="nonzero" stroke="none"/><path id="path96" d="m 19.494,30.109 h 6.364 v -1.515 h -6.364 z" fill="#fff" fill-opacity="1" fill-rule="nonzero" stroke="none"/></g></g></g></svg>