<svg xmlns="http://www.w3.org/2000/svg" viewBox="0 0 57.778 61.622" height="61.622" width="57.778" xml:space="preserve" id="svg2" version="1.1"><defs id="defs6"><clipPath id="clipPath18" clipPathUnits="userSpaceOnUse"><path id="path16" d="M 0,46.216 H 43.333 V 0 H 0 Z"/></clipPath><clipPath id="clipPath26" clipPathUnits="userSpaceOnUse"><path id="path24" d="m 17.7707,5.30437 h 9.6392 V 0.485031 h -9.6392 z"/></clipPath><clipPath id="clipPath42" clipPathUnits="userSpaceOnUse"><path id="path40" d="M 0,46.216 H 43.333 V 0 H 0 Z"/></clipPath><clipPath id="clipPath50" clipPathUnits="userSpaceOnUse"><path id="path48" d="M 6.20348,31.3629 H 38.9762 V 9.16219 H 6.20348 Z"/></clipPath><clipPath id="clipPath76" clipPathUnits="userSpaceOnUse"><path id="path74" d="M 8.32361,20.6153 H 34.9998 V 11.2828 H 8.32361 Z"/></clipPath><clipPath id="clipPath92" clipPathUnits="userSpaceOnUse"><path id="path90" d="M 0,35.8767 H 20.9318 V 20.356 H 0 Z"/></clipPath><clipPath id="clipPath108" clipPathUnits="userSpaceOnUse"><path id="path106" d="M 6.20348,31.3629 H 20.9318 V 23.5964 H 6.20348 Z"/></clipPath><clipPath id="clipPath144" clipPathUnits="userSpaceOnUse"><path id="path142" d="m 22.7825,42.8319 h 8.8004 V 34.032 h -8.8004 z"/></clipPath><clipPath id="clipPath164" clipPathUnits="userSpaceOnUse"><path id="path162" d="m 26.944,36.9475 h 3.5163 V 33.1703 H 26.944 Z"/></clipPath><clipPath id="clipPath180" clipPathUnits="userSpaceOnUse"><path id="path178" d="m 27.667,40.8664 h 5.4775 V 25.1 H 27.667 Z"/></clipPath><clipPath id="clipPath200" clipPathUnits="userSpaceOnUse"><path id="path198" d="m 34.5051,35.0416 h 4.9015 v -4.9014 h -4.9015 z"/></clipPath><clipPath id="clipPath220" clipPathUnits="userSpaceOnUse"><path id="path218" d="m 14.2126,40.4345 h 1.9817 v -1.9817 h -1.9817 z"/></clipPath><clipPath id="clipPath260" clipPathUnits="userSpaceOnUse"><path id="path258" d="m 28.3852,40.2281 h 3.1977 V 35.015 h -3.1977 z"/></clipPath></defs><g transform="matrix(1.33333 0 0 -1.33333 0 61.622)" id="g10"><g id="g12"><g clip-path="url(#clipPath18)" id="g14"><g id="g20"><g id="g32"><g id="g30" clip-path="url(#clipPath26)" opacity=".4"><path id="path28" d="M 17.771,5.305 H 27.41 V 0.486 h -9.639 z" fill="#1496e2" fill-opacity="1" fill-rule="nonzero" stroke="none"/></g></g></g></g></g><path id="path34" d="M 15.458,0 H 29.725 V 0.969 H 15.458 Z" fill="#1496e2" fill-opacity="1" fill-rule="nonzero" stroke="none"/><g id="g36"><g clip-path="url(#clipPath42)" id="g38"><g id="g44"><g id="g56"><g id="g54" clip-path="url(#clipPath50)" opacity=".4"><path id="path52" d="M 36.855,11.282 H 8.323 v 17.96 h 28.532 z m 1.782,19.742 c -0.226,0.226 -0.522,0.339 -0.818,0.339 H 7.358 C 7.063,31.363 6.766,31.25 6.542,31.024 6.316,30.798 6.203,30.502 6.203,30.206 V 9.162 h 32.773 v 21.044 c 0,0.296 -0.112,0.592 -0.339,0.818" fill="#1496e2" fill-opacity="1" fill-rule="nonzero" stroke="none"/></g></g></g><g transform="translate(38.007 6.462)" id="g58"><path id="path60" d="m 0,0 c 0,-0.034 -0.009,-0.086 -0.054,-0.13 -0.05,-0.05 -0.105,-0.057 -0.133,-0.057 h -30.461 c -0.029,0 -0.083,0.007 -0.132,0.057 -0.044,0.044 -0.053,0.095 -0.053,0.13 V 1.73 H 0 Z M -31.803,2.7 V 0 c 0,-0.295 0.112,-0.592 0.338,-0.816 0.225,-0.226 0.521,-0.34 0.817,-0.34 h 30.461 c 0.295,0 0.591,0.114 0.818,0.34 C 0.856,-0.592 0.97,-0.295 0.97,0 v 2.7 z" fill="#1496e2" fill-opacity="1" fill-rule="nonzero" stroke="none"/></g><g transform="translate(42.505 27.706)" id="g62"><path id="path64" d="m 0,0 -4.295,-4.293 -2.551,2.552 -5.286,-4.43 -1.185,1.186 -2.369,-2.369 -2.504,2.503 -5.125,-5.124 -1.865,1.863 c 0,0 -3.742,-3.741 -3.816,-3.816 l -3.669,3.667 -7.853,-7.852 0.686,-0.685 7.167,7.167 3.669,-3.667 c 0,0 3.05,3.049 3.816,3.815 l 1.865,-1.863 5.125,5.125 2.504,-2.503 2.369,2.368 1.128,-1.129 5.285,4.431 2.609,-2.611 4.981,4.98 z" fill="#1496e2" fill-opacity="1" fill-rule="nonzero" stroke="none"/></g><g transform="translate(43.334 24.72)" id="g66"><path id="path68" d="M 0,0 H -0.97 V 2.16 H -3.13 V 3.129 H 0 Z" fill="#1496e2" fill-opacity="1" fill-rule="nonzero" stroke="none"/></g><g id="g70"><g id="g84"><g id="g82" clip-path="url(#clipPath76)" opacity=".8"><g id="g80" transform="translate(31.947 17.93)"><path id="path78" d="m 0,0 -1.698,1.495 -3.482,-2.566 -0.761,0.67 -1.56,-1.37 -1.647,1.448 -3.375,-2.968 -1.228,1.08 -2.513,-2.211 -2.416,2.124 -4.944,-4.348 H 3.053 v 9.332 z" fill="#6d53fe" fill-opacity="1" fill-rule="nonzero" stroke="none"/></g></g></g></g><g id="g86"><g id="g100"><g id="g98" clip-path="url(#clipPath92)" opacity=".5"><g id="g96" transform="translate(0 35.877)"><path id="path94" d="m 0,0 v -12.28 h 2.356 v -3.241 l 3.241,3.241 H 20.932 V 0 Z" fill="#1496e2" fill-opacity="1" fill-rule="nonzero" stroke="none"/></g></g></g></g><g id="g102"><g id="g116"><g id="g114" clip-path="url(#clipPath108)" opacity=".2"><g id="g112" transform="translate(8.323 23.596)"><path id="path110" d="m 0,0 v 5.646 h 12.608 v 2.12 H -0.965 C -1.261,7.766 -1.557,7.653 -1.782,7.427 -2.008,7.202 -2.12,6.905 -2.12,6.61 V 0 Z" fill="#1496e2" fill-opacity="1" fill-rule="nonzero" stroke="none"/></g></g></g></g><path id="path118" d="M 1.599,27.77 H 2.842 V 26.093 H 1.599 Z" fill="#fff" fill-opacity="1" fill-rule="nonzero" stroke="none"/><path id="path120" d="M 3.24,29.325 H 4.483 V 26.094 H 3.24 Z" fill="#fff" fill-opacity="1" fill-rule="nonzero" stroke="none"/><path id="path122" d="M 4.879,28.606 H 6.123 V 26.092 H 4.879 Z" fill="#fff" fill-opacity="1" fill-rule="nonzero" stroke="none"/><path id="path124" d="M 6.52,32.192 H 7.763 V 26.093 H 6.52 Z" fill="#fff" fill-opacity="1" fill-rule="nonzero" stroke="none"/><path id="path126" d="M 8.159,30.573 H 9.402 V 26.092 H 8.159 Z" fill="#fff" fill-opacity="1" fill-rule="nonzero" stroke="none"/><path id="path128" d="m 9.8,33.406 h 1.242 V 26.094 H 9.8 Z" fill="#fff" fill-opacity="1" fill-rule="nonzero" stroke="none"/><path id="path130" d="m 11.44,29.893 h 1.243 V 26.091 H 11.44 Z" fill="#fff" fill-opacity="1" fill-rule="nonzero" stroke="none"/><path id="path132" d="m 13.08,29.143 h 1.243 v -3.05 H 13.08 Z" fill="#fff" fill-opacity="1" fill-rule="nonzero" stroke="none"/><path id="path134" d="m 14.719,32.192 h 1.244 v -6.099 h -1.244 z" fill="#fff" fill-opacity="1" fill-rule="nonzero" stroke="none"/><path id="path136" d="m 16.359,34.966 h 1.244 v -8.874 h -1.244 z" fill="#fff" fill-opacity="1" fill-rule="nonzero" stroke="none"/><g id="g138"><g id="g152"><g id="g150" clip-path="url(#clipPath144)" opacity=".5"><g id="g148" transform="translate(27.182 42.832)"><path id="path146" d="M 0,0 C -2.431,0 -4.399,-1.969 -4.399,-4.399 -4.399,-6.83 -2.431,-8.8 0,-8.8 c 2.43,0 4.4,1.97 4.4,4.401 C 4.4,-1.969 2.43,0 0,0" fill="#1496e2" fill-opacity="1" fill-rule="nonzero" stroke="none"/></g></g></g></g><g transform="translate(22.372 43.26)" id="g154"><path id="path156" d="M 0,0 4.448,-3.87 5.223,1.974 C 3.265,2.097 1.368,1.364 0,0 m 5.171,-5.785 -6.551,5.701 0.318,0.365 c 1.477,1.7 3.618,2.676 5.875,2.676 0.34,0 0.684,-0.023 1.02,-0.068 l 0.48,-0.064 z" fill="#1496e2" fill-opacity="1" fill-rule="nonzero" stroke="none"/></g><g id="g158"><g id="g172"><g id="g170" clip-path="url(#clipPath164)" opacity=".8"><g id="g168" transform="translate(26.944 33.182)"><path id="path166" d="m 0,0 c 0.079,-0.004 0.157,-0.012 0.237,-0.012 1.242,-10e-4 2.379,0.431 3.28,1.15 L 1.441,3.765 C 1.115,3.5 0.699,3.34 0.244,3.338 0.209,3.337 0.176,3.341 0.14,3.342 Z" fill="#6d53fe" fill-opacity="1" fill-rule="nonzero" stroke="none"/></g></g></g></g><g id="g174"><g id="g192"><g id="g190" clip-path="url(#clipPath180)" opacity=".5"><g id="g184" transform="translate(28.928 39.213)"><path id="path182" d="m 0,0 c 0.36,-0.808 0.115,-1.732 -0.543,-2.265 l 2.551,-3.148 c 2.052,1.66 2.813,4.549 1.687,7.066 z" fill="#1496e2" fill-opacity="1" fill-rule="nonzero" stroke="none"/></g><g id="g188" transform="translate(28.99 27.745)"><path id="path186" d="m 0,0 c 0.729,0 1.322,-0.592 1.322,-1.322 0,-0.731 -0.593,-1.323 -1.322,-1.323 -0.73,0 -1.323,0.592 -1.323,1.323 C -1.323,-0.592 -0.73,0 0,0" fill="#1496e2" fill-opacity="1" fill-rule="nonzero" stroke="none"/></g></g></g></g><g id="g194"><g id="g208"><g id="g206" clip-path="url(#clipPath200)" opacity=".8"><g id="g204" transform="translate(39.407 32.591)"><path id="path202" d="m 0,0 c 0,-1.354 -1.098,-2.451 -2.451,-2.451 -1.353,0 -2.45,1.097 -2.45,2.451 0,1.353 1.097,2.451 2.45,2.451 C -1.098,2.451 0,1.354 0,0" fill="#6d53fe" fill-opacity="1" fill-rule="nonzero" stroke="none"/></g></g></g></g><g transform="translate(8.12 41.122)" id="g210"><path id="path212" d="m 0,0 c -1.007,0 -1.827,-0.82 -1.827,-1.827 0,-1.008 0.82,-1.827 1.827,-1.827 1.008,0 1.827,0.819 1.827,1.827 C 1.827,-0.82 1.008,0 0,0 m 0,-4.624 c -1.542,0 -2.796,1.255 -2.796,2.797 0,1.542 1.254,2.797 2.796,2.797 1.542,0 2.797,-1.255 2.797,-2.797 0,-1.542 -1.255,-2.797 -2.797,-2.797" fill="#1496e2" fill-opacity="1" fill-rule="nonzero" stroke="none"/></g><g id="g214"><g id="g228"><g id="g226" clip-path="url(#clipPath220)" opacity=".2"><g id="g224" transform="translate(16.195 39.444)"><path id="path222" d="m 0,0 c 0,-0.548 -0.444,-0.991 -0.992,-0.991 -0.546,0 -0.99,0.443 -0.99,0.991 0,0.547 0.444,0.99 0.99,0.99 C -0.444,0.99 0,0.547 0,0" fill="#1496e2" fill-opacity="1" fill-rule="nonzero" stroke="none"/></g></g></g></g><g transform="translate(8.323 11.283)" id="g230"><path id="path232" d="M 0,0 V 0 L -2.12,-0.001 H 26.676 V 0 Z" fill="#6d53fe" fill-opacity="1" fill-rule="nonzero" stroke="none"/></g><g transform="translate(38.976 24.178)" id="g234"><path id="path236" d="M 0,0 -0.766,-0.765 -2.121,0.591 V -0.78 L -0.766,-2.136 0,-1.371 Z" fill="#1496e2" fill-opacity="1" fill-rule="nonzero" stroke="none"/></g><g transform="translate(6.203 14.438)" id="g238"><path id="path240" d="M 0,0 2.12,2.12 V 3.49 L 0,1.37 Z" fill="#1496e2" fill-opacity="1" fill-rule="nonzero" stroke="none"/></g><g transform="translate(38.637 31.024)" id="g242"><path id="path244" d="M 0,0 C -0.227,0.226 -0.522,0.339 -0.818,0.339 H -3.8 c 0.424,-0.73 1.213,-1.222 2.118,-1.222 0.701,0 1.331,0.295 1.778,0.766 C 0.065,-0.077 0.036,-0.036 0,0" fill="#6d53fe" fill-opacity="1" fill-rule="nonzero" stroke="none"/></g><g transform="translate(9.182 37.81)" id="g246"><path id="path248" d="m 0,0 c -0.3,-0.215 -0.666,-0.343 -1.062,-0.343 -0.396,0 -0.763,0.128 -1.063,0.343 h -1.304 c 0.496,-0.787 1.37,-1.313 2.367,-1.313 0.996,0 1.87,0.526 2.366,1.313 z" fill="#1496e2" fill-opacity="1" fill-rule="nonzero" stroke="none"/></g><g transform="translate(26.98 34.042)" id="g250"><path id="path252" d="m 0,0 c 0.067,-0.003 0.134,-0.01 0.202,-0.01 1.038,0 1.991,0.362 2.744,0.964 L 1.406,2.905 C 1.079,2.64 0.663,2.48 0.208,2.479 0.173,2.477 0.141,2.481 0.104,2.482 Z" fill="#6d53fe" fill-opacity="1" fill-rule="nonzero" stroke="none"/></g><g id="g254"><g id="g268"><g id="g266" clip-path="url(#clipPath260)" opacity=".5"><g id="g264" transform="translate(31.197 40.228)"><path id="path262" d="m 0,0 -2.269,-1.015 c 0.361,-0.808 0.116,-1.733 -0.543,-2.265 l 1.567,-1.933 c 0.994,0.807 1.631,2.037 1.631,3.417 C 0.386,-1.155 0.246,-0.549 0,0" fill="#1496e2" fill-opacity="1" fill-rule="nonzero" stroke="none"/></g></g></g></g><g transform="translate(28.237 42.7)" id="g270"><path id="path272" d="m 0,0 c -0.31,0.077 -0.631,0.121 -0.961,0.128 l -0.456,-3.437 -2.615,2.275 C -4.27,-1.253 -4.485,-1.496 -4.671,-1.763 l 3.978,-3.461 z" fill="#1496e2" fill-opacity="1" fill-rule="nonzero" stroke="none"/></g></g></g></g></svg>