<svg xmlns="http://www.w3.org/2000/svg" viewBox="0 0 53.333 53.335" height="53.335" width="53.333" xml:space="preserve" id="svg2" version="1.1"><defs id="defs6"><clipPath id="clipPath18" clipPathUnits="userSpaceOnUse"><path id="path16" d="M 0,40.001 H 40 V 0 H 0 Z"/></clipPath><clipPath id="clipPath38" clipPathUnits="userSpaceOnUse"><path id="path36" d="M 26.2467,13.7533 H 40 V 0 H 26.2467 Z"/></clipPath></defs><g transform="matrix(1.33333 0 0 -1.33333 0 53.335)" id="g10"><g id="g12"><g clip-path="url(#clipPath18)" id="g14"><g transform="translate(5.561 33.276)" id="g20"><path id="path22" d="m 0,0 -1.223,1.101 c 0.382,0.425 0.79,0.835 1.209,1.216 L 1.093,1.101 C 0.715,0.756 0.346,0.385 0,0 M 3.58,2.943 C 3.138,2.68 2.704,2.391 2.291,2.084 l -0.98,1.322 c 0.458,0.34 0.939,0.66 1.429,0.951 z m -5.407,-5.441 -1.42,0.832 c 0.288,0.492 0.605,0.975 0.942,1.435 l 1.328,-0.972 c -0.304,-0.415 -0.59,-0.851 -0.85,-1.295 M 6.387,4.243 C 5.9,4.076 5.417,3.881 4.95,3.665 L 4.258,5.158 c 0.518,0.239 1.054,0.455 1.593,0.641 z m -9.497,-9.555 -1.558,0.526 c 0.182,0.541 0.394,1.078 0.63,1.597 L -2.54,-3.872 C -2.753,-4.34 -2.945,-4.825 -3.11,-5.312 M 9.401,4.951 C 8.889,4.884 8.376,4.791 7.875,4.674 L 7.5,6.276 c 0.554,0.129 1.122,0.233 1.688,0.307 z m -13.2,-13.28 -1.633,0.202 c 0.071,0.567 0.17,1.135 0.297,1.69 l 1.604,-0.367 c -0.114,-0.5 -0.204,-1.013 -0.268,-1.525 M 12.495,5.04 C 11.981,5.077 11.46,5.088 10.946,5.073 l -0.048,1.645 c 0.571,0.017 1.147,0.005 1.716,-0.037 z m -16.364,-16.464 -1.64,-0.129 c -0.045,0.569 -0.061,1.147 -0.048,1.715 l 1.645,-0.037 c -0.012,-0.515 0.002,-1.036 0.043,-1.549 M 15.545,4.508 c -0.496,0.139 -1.003,0.254 -1.511,0.343 l 0.282,1.621 c 0.562,-0.098 1.125,-0.226 1.674,-0.38 z m -18.863,-18.98 -1.581,-0.454 c -0.158,0.546 -0.289,1.108 -0.391,1.671 l 1.62,0.293 c 0.091,-0.508 0.21,-1.016 0.352,-1.51 m 21.74,17.844 c -0.456,0.236 -0.93,0.452 -1.409,0.641 l 0.603,1.53 c 0.531,-0.209 1.057,-0.448 1.563,-0.71 z m -20.587,-20.714 -1.456,-0.766 c -0.266,0.504 -0.508,1.03 -0.72,1.558 l 1.527,0.613 c 0.191,-0.476 0.41,-0.95 0.649,-1.405 M 21.01,1.677 c -0.399,0.324 -0.82,0.631 -1.25,0.914 l 0.901,1.376 C 21.139,3.654 21.605,3.314 22.047,2.955 Z M -0.454,-19.92 -1.725,-20.965 c -0.363,0.442 -0.706,0.906 -1.021,1.38 l 1.371,0.91 c 0.284,-0.429 0.594,-0.846 0.921,-1.245 M 24.523,0.489 23.25,-0.552 c -0.326,0.398 -0.677,0.785 -1.041,1.149 L 22.162,0.644 23.326,1.808 23.364,1.77 C 23.776,1.358 24.163,0.93 24.523,0.489 M 0.701,-23.381 c -0.439,0.358 -0.868,0.743 -1.273,1.148 l 1.161,1.166 c 0.367,-0.366 0.754,-0.715 1.151,-1.038 z m 25.712,21.01 -1.458,-0.762 c -0.239,0.457 -0.504,0.906 -0.787,1.333 l 1.372,0.908 c 0.314,-0.474 0.607,-0.971 0.873,-1.479 M 3.565,-25.266 c -0.506,0.264 -1.003,0.557 -1.48,0.87 l 0.905,1.375 c 0.429,-0.283 0.878,-0.546 1.335,-0.785 z m 24.12,19.711 -1.582,-0.452 c -0.142,0.494 -0.311,0.987 -0.501,1.466 l 1.528,0.61 c 0.212,-0.529 0.398,-1.076 0.555,-1.624 M 6.752,-26.53 c -0.548,0.155 -1.095,0.341 -1.625,0.551 l 0.607,1.53 c 0.478,-0.19 0.972,-0.358 1.467,-0.498 z m 21.536,17.6 -1.641,-0.125 c -0.039,0.514 -0.105,1.033 -0.196,1.538 l 1.62,0.289 c 0.101,-0.559 0.173,-1.132 0.217,-1.702 M 10.127,-27.127 c -0.568,0.042 -1.141,0.114 -1.703,0.214 l 0.287,1.62 c 0.507,-0.09 1.024,-0.154 1.538,-0.192 z m 18.076,14.772 -1.632,0.206 c 0.065,0.511 0.104,1.03 0.116,1.545 l 1.645,-0.041 c -0.014,-0.569 -0.058,-1.144 -0.129,-1.71 m -14.65,-14.68 c -0.566,-0.072 -1.141,-0.117 -1.711,-0.132 l -0.043,1.645 c 0.514,0.013 1.034,0.053 1.545,0.12 z m 13.881,11.34 -1.558,0.53 c 0.166,0.487 0.309,0.987 0.424,1.489 l 1.603,-0.369 c -0.128,-0.556 -0.286,-1.111 -0.469,-1.65 M 16.892,-26.259 c -0.538,-0.184 -1.093,-0.344 -1.65,-0.472 l -0.373,1.602 c 0.503,0.117 1.004,0.261 1.489,0.428 z" fill="#1496e2" fill-opacity="1" fill-rule="nonzero" stroke="none"/></g><g transform="translate(16.95 33.748)" id="g24"><path id="path26" d="m 0,0 c -2.857,0 -5.543,-1.113 -7.563,-3.133 -4.17,-4.171 -4.17,-10.956 0,-15.126 2.021,-2.021 4.706,-3.134 7.563,-3.134 2.857,0 5.544,1.113 7.563,3.134 2.021,2.02 3.133,4.706 3.133,7.563 0,2.857 -1.112,5.543 -3.133,7.563 C 5.543,-1.113 2.857,0 0,0 m 0,-23.039 c -3.296,0 -6.396,1.285 -8.727,3.616 -4.812,4.812 -4.812,12.642 0,17.453 2.331,2.332 5.431,3.616 8.727,3.616 3.297,0 6.396,-1.284 8.727,-3.616 2.332,-2.33 3.615,-5.43 3.615,-8.726 0,-3.297 -1.283,-6.396 -3.614,-8.726 C 6.396,-21.754 3.297,-23.039 0,-23.039" fill="#1496e2" fill-opacity="1" fill-rule="nonzero" stroke="none"/></g><g transform="translate(25.677 15.488)" id="g28"><path id="path30" d="M 0,0 3.025,-3.025 1.861,-4.189 -1.163,-1.164 Z" fill="#1496e2" fill-opacity="1" fill-rule="nonzero" stroke="none"/></g><g id="g32"><g id="g46"><g id="g44" clip-path="url(#clipPath38)" opacity=".5"><g id="g42" transform="translate(26.247 10.007)"><path id="path40" d="M 0,0 3.746,3.746 13.753,-6.261 10.007,-10.007 Z" fill="#6d53fe" fill-opacity="1" fill-rule="nonzero" stroke="none"/></g></g></g></g><g transform="translate(25.506 23.052)" id="g48"><path id="path50" d="m 0,0 h -1.646 c 0,3.811 -3.1,6.912 -6.911,6.912 -3.811,0 -6.911,-3.101 -6.911,-6.912 h -1.646 c 0,4.718 3.839,8.557 8.557,8.557 C -3.838,8.557 0,4.718 0,0" fill="#1496e2" fill-opacity="1" fill-rule="nonzero" stroke="none"/></g><g transform="translate(31.271 12.475)" id="g52"><path id="path54" d="M 0,0 1.164,-1.164 -2.584,-4.91 -3.747,-3.746 Z" fill="#1496e2" fill-opacity="1" fill-rule="nonzero" stroke="none"/></g><g transform="translate(37.56 6.192)" id="g56"><path id="path58" d="m 0,0 1.163,-1.164 -3.747,-3.745 -1.164,1.164 z" fill="#1496e2" fill-opacity="1" fill-rule="nonzero" stroke="none"/></g><g transform="translate(16.95 19.76)" id="g60"><path id="path62" d="M 0,0 C 1.814,0 3.291,1.477 3.291,3.291 3.291,5.106 1.814,6.583 0,6.583 -1.814,6.583 -3.291,5.106 -3.291,3.291 -3.291,1.477 -1.814,0 0,0" fill="#6d53fe" fill-opacity="1" fill-rule="nonzero" stroke="none"/></g><g transform="translate(16.95 14.495)" id="g64"><path id="path66" d="M 0,0 C 1.821,0 3.509,0.571 4.896,1.542 3.942,3.266 2.106,4.437 0,4.437 -2.106,4.437 -3.942,3.266 -4.896,1.542 -3.509,0.571 -1.822,0 0,0" fill="#6d53fe" fill-opacity="1" fill-rule="nonzero" stroke="none"/></g></g></g></g></svg>