<svg xmlns="http://www.w3.org/2000/svg" viewBox="0 0 62.422 51.681" height="51.681" width="62.422" xml:space="preserve" id="svg2" version="1.1"><defs id="defs6"><clipPath id="clipPath18" clipPathUnits="userSpaceOnUse"><path id="path16" d="M 0,38.761 H 46.816 V 0 H 0 Z"/></clipPath><clipPath id="clipPath26" clipPathUnits="userSpaceOnUse"><path id="path24" d="m 19.1991,5.73073 h 10.414 V 0.524017 h -10.414 z"/></clipPath><clipPath id="clipPath42" clipPathUnits="userSpaceOnUse"><path id="path40" d="M 0,38.761 H 46.816 V 0 H 0 Z"/></clipPath><clipPath id="clipPath50" clipPathUnits="userSpaceOnUse"><path id="path48" d="M 6.70212,33.8839 H 42.1091 V 9.89865 H 6.70212 Z"/></clipPath><clipPath id="clipPath76" clipPathUnits="userSpaceOnUse"><path id="path74" d="M 8.99268,22.2723 H 37.8131 V 12.1897 H 8.99268 Z"/></clipPath><clipPath id="clipPath92" clipPathUnits="userSpaceOnUse"><path id="path90" d="M 0,38.7605 H 22.6144 V 21.9922 H 0 Z"/></clipPath><clipPath id="clipPath108" clipPathUnits="userSpaceOnUse"><path id="path106" d="M 6.70212,33.8839 H 22.6144 V 25.4931 H 6.70212 Z"/></clipPath></defs><g transform="matrix(1.33333 0 0 -1.33333 0 51.68)" id="g10"><g id="g12"><g clip-path="url(#clipPath18)" id="g14"><g id="g20"><g id="g32"><g id="g30" clip-path="url(#clipPath26)" opacity=".4"><path id="path28" d="M 19.199,5.731 H 29.613 V 0.524 H 19.199 Z" fill="#1496e2" fill-opacity="1" fill-rule="nonzero" stroke="none"/></g></g></g></g></g><path id="path34" d="M 16.7,0 H 32.113 V 1.048 H 16.7 Z" fill="#1496e2" fill-opacity="1" fill-rule="nonzero" stroke="none"/><g id="g36"><g clip-path="url(#clipPath42)" id="g38"><g id="g44"><g id="g56"><g id="g54" clip-path="url(#clipPath50)" opacity=".4"><path id="path52" d="M 39.818,12.189 H 8.993 v 19.404 h 30.825 z m 1.925,21.328 c -0.244,0.245 -0.564,0.367 -0.884,0.367 H 7.949 C 7.63,33.884 7.31,33.762 7.067,33.517 6.823,33.274 6.702,32.953 6.702,32.634 V 9.899 h 35.407 v 22.735 c 0,0.319 -0.121,0.64 -0.366,0.883" fill="#1496e2" fill-opacity="1" fill-rule="nonzero" stroke="none"/></g></g></g><g transform="translate(41.061 6.982)" id="g58"><path id="path60" d="m 0,0 c 0,-0.038 -0.01,-0.093 -0.058,-0.141 -0.053,-0.053 -0.113,-0.062 -0.144,-0.062 h -32.91 c -0.03,0 -0.089,0.009 -0.142,0.061 -0.048,0.048 -0.058,0.103 -0.058,0.141 v 1.87 L 0,1.869 Z M -34.359,2.917 V 0 c 0,-0.319 0.121,-0.64 0.365,-0.883 0.244,-0.243 0.563,-0.367 0.882,-0.367 h 32.91 c 0.32,0 0.639,0.124 0.884,0.367 C 0.926,-0.64 1.048,-0.319 1.048,0 v 2.917 z" fill="#1496e2" fill-opacity="1" fill-rule="nonzero" stroke="none"/></g><g transform="translate(45.922 29.933)" id="g62"><path id="path64" d="m 0,0 -4.64,-4.639 -2.756,2.759 -5.711,-4.787 -1.282,1.281 -2.557,-2.559 -2.706,2.705 -5.537,-5.537 -2.016,2.013 c 0,0 -4.042,-4.041 -4.122,-4.123 l -3.964,3.962 -8.483,-8.483 0.74,-0.741 7.743,7.743 3.964,-3.962 c 0,0 3.295,3.296 4.122,4.123 l 2.016,-2.013 5.537,5.537 2.706,-2.704 2.557,2.558 1.219,-1.219 5.711,4.787 2.818,-2.821 5.382,5.38 z" fill="#1496e2" fill-opacity="1" fill-rule="nonzero" stroke="none"/></g><g transform="translate(46.817 26.706)" id="g66"><path id="path68" d="M 0,0 H -1.048 V 2.333 H -3.382 V 3.381 L 0,3.381 Z" fill="#1496e2" fill-opacity="1" fill-rule="nonzero" stroke="none"/></g><g id="g70"><g id="g84"><g id="g82" clip-path="url(#clipPath76)" opacity=".4"><g id="g80" transform="translate(34.515 19.37)"><path id="path78" d="m 0,0 -1.836,1.615 -3.76,-2.772 -0.823,0.724 -1.685,-1.481 -1.78,1.565 -3.646,-3.206 -1.326,1.166 -2.716,-2.388 -2.61,2.295 -5.34,-4.699 H 3.298 V 2.902 Z" fill="#6d53fe" fill-opacity="1" fill-rule="nonzero" stroke="none"/></g></g></g></g><g id="g86"><g id="g100"><g id="g98" clip-path="url(#clipPath92)" opacity=".5"><g id="g96" transform="translate(0 38.76)"><path id="path94" d="m 0,0 v -13.268 h 2.545 v -3.501 l 3.502,3.501 H 22.614 V 0 Z" fill="#1496e2" fill-opacity="1" fill-rule="nonzero" stroke="none"/></g></g></g></g><g id="g102"><g id="g116"><g id="g114" clip-path="url(#clipPath108)" opacity=".2"><g id="g112" transform="translate(8.993 25.493)"><path id="path110" d="M 0,0 V 6.1 H 13.622 V 8.391 H -1.043 c -0.319,0 -0.64,-0.122 -0.882,-0.367 C -2.169,7.781 -2.291,7.46 -2.291,7.141 V 0 Z" fill="#1496e2" fill-opacity="1" fill-rule="nonzero" stroke="none"/></g></g></g></g><path id="path118" d="M 1.728,30.002 H 3.071 V 28.19 H 1.728 Z" fill="#fff" fill-opacity="1" fill-rule="nonzero" stroke="none"/><path id="path120" d="M 3.5,31.682 H 4.843 V 28.191 H 3.5 Z" fill="#fff" fill-opacity="1" fill-rule="nonzero" stroke="none"/><path id="path122" d="M 5.272,30.906 H 6.616 V 28.19 H 5.272 Z" fill="#fff" fill-opacity="1" fill-rule="nonzero" stroke="none"/><path id="path124" d="M 7.044,34.78 H 8.387 V 28.19 H 7.044 Z" fill="#fff" fill-opacity="1" fill-rule="nonzero" stroke="none"/><path id="path126" d="m 8.815,33.03 h 1.343 V 28.189 H 8.815 Z" fill="#fff" fill-opacity="1" fill-rule="nonzero" stroke="none"/><path id="path128" d="m 10.588,36.091 h 1.342 v -7.9 h -1.342 z" fill="#fff" fill-opacity="1" fill-rule="nonzero" stroke="none"/><path id="path130" d="m 12.359,32.296 h 1.343 v -4.108 h -1.343 z" fill="#fff" fill-opacity="1" fill-rule="nonzero" stroke="none"/><path id="path132" d="m 14.131,31.486 h 1.343 V 28.19 h -1.343 z" fill="#fff" fill-opacity="1" fill-rule="nonzero" stroke="none"/><path id="path134" d="m 15.902,34.78 h 1.343 v -6.59 h -1.343 z" fill="#fff" fill-opacity="1" fill-rule="nonzero" stroke="none"/><path id="path136" d="m 17.674,37.776 h 1.344 V 28.19 h -1.344 z" fill="#fff" fill-opacity="1" fill-rule="nonzero" stroke="none"/><g transform="translate(8.993 12.19)" id="g138"><path id="path140" d="M 0,0 V 0 L -2.291,-0.001 H 28.82 V 0 Z" fill="#6d53fe" fill-opacity="1" fill-rule="nonzero" stroke="none"/></g><g transform="translate(42.109 26.12)" id="g142"><path id="path144" d="M 0,0 -0.826,-0.826 -2.291,0.639 V -0.843 L -0.827,-2.308 0,-1.48 Z" fill="#1496e2" fill-opacity="1" fill-rule="nonzero" stroke="none"/></g><g transform="translate(6.702 15.598)" id="g146"><path id="path148" d="M 0,0 2.291,2.291 V 3.772 L 0,1.481 Z" fill="#1496e2" fill-opacity="1" fill-rule="nonzero" stroke="none"/></g></g></g></g></svg>