<svg xmlns="http://www.w3.org/2000/svg" viewBox="0 0 55.669 51.708" height="51.708" width="55.669" xml:space="preserve" id="svg2" version="1.1"><defs id="defs6"><clipPath id="clipPath18" clipPathUnits="userSpaceOnUse"><path id="path16" d="M 0,38.781 H 41.751 V 0 H 0 Z"/></clipPath><clipPath id="clipPath26" clipPathUnits="userSpaceOnUse"><path id="path24" d="M 0.644241,37.0684 H 37.9823 V 1.62773 H 0.644241 Z"/></clipPath><clipPath id="clipPath78" clipPathUnits="userSpaceOnUse"><path id="path76" d="m 24.8446,33.984 h 15.31 v -7.6119 h -15.31 z"/></clipPath><clipPath id="clipPath92" clipPathUnits="userSpaceOnUse"><path id="path90" d="M 1.53465,36.8462 H 13.8575 V 27.545 H 1.53465 Z"/></clipPath><clipPath id="clipPath114" clipPathUnits="userSpaceOnUse"><path id="path112" d="m 12.8699,17.741 h 5.7934 v -7.217 h -5.7934 z"/></clipPath></defs><g transform="matrix(1.33333 0 0 -1.33333 0 51.708)" id="g10"><g id="g12"><g clip-path="url(#clipPath18)" id="g14"><g id="g20"><g id="g38"><g id="g36" clip-path="url(#clipPath26)" opacity=".2"><g id="g30" transform="translate(21.118 37.068)"><path id="path28" d="m 0,0 c -1.446,0 -2.619,-1.171 -2.619,-2.62 v -18.616 c 0,-0.67 -0.256,-1.34 -0.767,-1.852 -0.511,-0.511 -1.181,-0.766 -1.852,-0.766 h 16.863 c 1.447,0 2.62,1.171 2.62,2.619 V -2.62 c 0,1.449 1.172,2.62 2.619,2.62 z" fill="#1496e2" fill-opacity="1" fill-rule="nonzero" stroke="none"/></g><g id="g34" transform="translate(5.883 25.481)"><path id="path32" d="m 0,0 c -1.447,0 -2.619,-1.172 -2.619,-2.619 v -18.615 c 0,-1.449 -1.173,-2.619 -2.62,-2.619 h 16.864 c 1.447,0 2.619,1.171 2.619,2.619 v 18.615 c 0,1.447 1.173,2.619 2.619,2.619 z" fill="#1496e2" fill-opacity="1" fill-rule="nonzero" stroke="none"/></g></g></g></g><g transform="translate(30.44 13.964)" id="g40"><path id="path42" d="M 0,0 H -7.857 V 0.962 H 0 c 1.18,0 2.14,0.959 2.14,2.138 v 18.615 c 0,0.829 0.326,1.583 0.857,2.14 h -14.622 c -1.179,0 -2.138,-0.959 -2.138,-2.14 V 10.372 h -0.962 v 11.343 c 0,1.711 1.391,3.102 3.1,3.102 H 5.239 v -0.962 c -1.179,0 -2.138,-0.959 -2.138,-2.14 L 3.101,3.1 C 3.101,1.391 1.71,0 0,0" fill="#1496e2" fill-opacity="1" fill-rule="nonzero" stroke="none"/></g><g transform="translate(30.44 13.964)" id="g44"><path id="path46" d="m 0,0 c -1.709,0 -3.101,1.391 -3.101,3.1 v 4.653 c 0,1.179 -0.959,2.139 -2.137,2.139 v 0.961 c 1.709,0 3.099,-1.391 3.099,-3.1 V 3.1 C -2.139,1.921 -1.18,0.962 0,0.962 Z" fill="#1496e2" fill-opacity="1" fill-rule="nonzero" stroke="none"/></g><g transform="translate(19.964)" id="g48"><path id="path50" d="m 0,0 v 0.962 c 1.179,0 2.137,0.96 2.137,2.14 v 18.615 c 0,0.828 0.327,1.582 0.859,2.138 h -14.621 c -1.18,0 -2.14,-0.959 -2.14,-2.138 V 3.102 h -0.961 v 18.615 c 0,1.709 1.391,3.1 3.101,3.1 H 5.238 v -0.962 c -1.179,0 -2.139,-0.959 -2.139,-2.138 V 3.102 C 3.099,1.392 1.708,0 0,0" fill="#1496e2" fill-opacity="1" fill-rule="nonzero" stroke="none"/></g><g transform="translate(1.016 2.62)" id="g52"><path id="path54" d="M 0,0 C 0.219,-0.949 1.07,-1.658 2.084,-1.658 H 16.708 C 16.281,-1.211 15.986,-0.638 15.886,0 Z M 18.948,-2.62 H 2.084 c -1.709,0 -3.1,1.391 -3.1,3.101 V 0.962 H 16.81 V 0.481 c 0,-1.179 0.959,-2.139 2.138,-2.139 z" fill="#1496e2" fill-opacity="1" fill-rule="nonzero" stroke="none"/></g><g transform="translate(38.78 35.199)" id="g56"><path id="path58" d="m 0,0 h -5.719 v 0.961 h 4.703 c -0.218,0.95 -1.069,1.66 -2.084,1.66 V 3.582 C -1.391,3.582 0,2.19 0,0.48 Z" fill="#1496e2" fill-opacity="1" fill-rule="nonzero" stroke="none"/></g><g transform="translate(23.063 14.926)" id="g60"><path id="path62" d="M 0,0 V 6.791 C 0,7.97 0.96,8.93 2.139,8.93 3.317,8.93 4.276,7.97 4.276,6.791 V 2.138 C 4.276,1.309 4.605,0.557 5.138,0 Z m 12.938,21.234 h -2.404 c 0.078,0.341 0.239,0.651 0.46,0.908 H 9.848 C 9.637,21.724 9.517,21.253 9.517,20.753 V 2.138 C 9.517,0.959 8.557,0 7.377,0 6.198,0 5.238,0.959 5.238,2.138 v 4.653 c 0,1.709 -1.39,3.1 -3.099,3.1 h -8.525 v 0.665 H -7.348 V 9.891 h -7.377 c -1.71,0 -3.1,-1.391 -3.1,-3.1 v -18.135 h -2.063 c -0.093,-0.355 -0.258,-0.681 -0.479,-0.962 h 14.206 c 0.055,-0.354 0.173,-0.688 0.338,-0.992 h 0.268 c 0.278,0 0.546,0.044 0.798,0.124 -0.3,0.369 -0.48,0.838 -0.48,1.35 v 0.48 H -16.864 V 6.791 c 0,1.179 0.96,2.139 2.139,2.139 H -0.104 C -0.635,8.373 -0.962,7.62 -0.962,6.791 V -1.711 H 0 v 0.749 h 7.377 c 1.71,0 3.101,1.391 3.101,3.1 v 18.135 h 1.932 c 0.107,0.359 0.289,0.685 0.528,0.961" fill="#1496e2" fill-opacity="1" fill-rule="nonzero" stroke="none"/></g><g transform="translate(1.443 1.753)" id="g64"><path id="path66" d="M 0,0 C -0.252,-0.081 -0.521,-0.125 -0.799,-0.125 H 0.11 C 0.072,-0.085 0.035,-0.043 0,0" fill="#1496e2" fill-opacity="1" fill-rule="nonzero" stroke="none"/></g><g transform="translate(37.366 36.992)" id="g68"><path id="path70" d="M 0,0 C 0.197,0.048 0.403,0.076 0.616,0.076 H -0.062 C -0.041,0.051 -0.021,0.026 0,0" fill="#1496e2" fill-opacity="1" fill-rule="nonzero" stroke="none"/></g><g id="g72"><g id="g84"><g id="g82" clip-path="url(#clipPath78)" opacity=".4"><path id="path80" d="m 24.845,33.984 h 15.31 v -7.612 h -15.31 z" fill="#6d53fe" fill-opacity="1" fill-rule="nonzero" stroke="none"/></g></g></g><g id="g86"><g id="g106"><g id="g104" clip-path="url(#clipPath92)" opacity=".8" fill="#6d53fe" fill-opacity="1" fill-rule="nonzero" stroke="none"><path id="path94" d="m 1.534,36.846 h 9.591 V 35.885 H 1.534 Z"/><path id="path96" d="M 3.423,34.761 H 13.858 V 33.8 H 3.423 Z"/><path id="path98" d="M 3.423,32.677 H 13.858 V 31.716 H 3.423 Z"/><path id="path100" d="M 3.423,30.591 H 13.858 V 29.629 H 3.423 Z"/><path id="path102" d="M 3.423,28.506 H 7.485 V 27.545 H 3.423 Z"/></g></g></g><g id="g108"><g id="g126"><g id="g124" clip-path="url(#clipPath114)" opacity=".8" fill="#6d53fe" fill-opacity="1" fill-rule="nonzero" stroke="none"><path id="path116" d="m 12.87,17.741 h 5.793 V 16.779 H 12.87 Z"/><path id="path118" d="m 12.87,15.658 h 5.793 V 14.696 H 12.87 Z"/><path id="path120" d="m 12.87,13.57 h 5.793 V 12.609 H 12.87 Z"/><path id="path122" d="m 12.87,11.485 h 2.254 V 10.524 H 12.87 Z"/></g></g></g><path id="path128" d="m 20.932,32.341 h 5.559 V 31.38 h -5.559 z" fill="#fff" fill-opacity="1" fill-rule="nonzero" stroke="none"/><path id="path130" d="M 20.932,30.256 H 31.366 V 29.295 H 20.932 Z" fill="#fff" fill-opacity="1" fill-rule="nonzero" stroke="none"/><path id="path132" d="m 36.464,28.938 h 5.288 v -0.961 h -5.288 z" fill="#1496e2" fill-opacity="1" fill-rule="nonzero" stroke="none"/><path id="path134" d="m 36.464,26.853 h 5.288 v -0.961 h -5.288 z" fill="#1496e2" fill-opacity="1" fill-rule="nonzero" stroke="none"/><path id="path136" d="M 36.464,24.768 H 39.45 V 23.806 H 36.464 Z" fill="#1496e2" fill-opacity="1" fill-rule="nonzero" stroke="none"/><path id="path138" d="M 5.238,18.831 H 6.199 V 6.598 H 5.238 Z" fill="#1496e2" fill-opacity="1" fill-rule="nonzero" stroke="none"/><path id="path140" d="M 32.578,33.984 H 33.54 V 26.372 H 32.578 Z" fill="#1496e2" fill-opacity="1" fill-rule="nonzero" stroke="none"/><path id="path142" d="m 36.464,26.853 h 3.69 v -0.48 h -3.69 z" fill="#1496e2" fill-opacity="1" fill-rule="nonzero" stroke="none"/><path id="path144" d="m 36.464,28.938 h 3.69 v -0.961 h -3.69 z" fill="#1496e2" fill-opacity="1" fill-rule="nonzero" stroke="none"/></g></g></g></svg>