<svg xmlns="http://www.w3.org/2000/svg" viewBox="0 0 46.212 51.04" height="51.04" width="46.212" xml:space="preserve" id="svg2" version="1.1"><defs id="defs6"><clipPath id="clipPath18" clipPathUnits="userSpaceOnUse"><path id="path16" d="M 0,38.28 H 34.659 V 0 H 0 Z"/></clipPath><clipPath id="clipPath26" clipPathUnits="userSpaceOnUse"><path id="path24" d="M 3.78159,38.2798 H 31.1709 V 34.1711 H 3.78159 Z"/></clipPath><clipPath id="clipPath40" clipPathUnits="userSpaceOnUse"><path id="path38" d="M 0.994202,27.6213 H 28.3835 V 19.4037 H 0.994202 Z"/></clipPath><clipPath id="clipPath58" clipPathUnits="userSpaceOnUse"><path id="path56" d="M 0,38.28 H 34.659 V 0 H 0 Z"/></clipPath><clipPath id="clipPath66" clipPathUnits="userSpaceOnUse"><path id="path64" d="M 5.78752,31.3791 H 26.3303 V 30.4125 H 5.78752 Z"/></clipPath><clipPath id="clipPath92" clipPathUnits="userSpaceOnUse"><path id="path90" d="M 0,38.28 H 34.659 V 0 H 0 Z"/></clipPath><clipPath id="clipPath100" clipPathUnits="userSpaceOnUse"><path id="path98" d="M 5.78752,16.5111 H 26.3296 V 3.37407 H 5.78752 Z"/></clipPath></defs><g transform="matrix(1.33333 0 0 -1.33333 0 51.04)" id="g10"><g id="g12"><g clip-path="url(#clipPath18)" id="g14"><g id="g20"><g id="g32"><g id="g30" clip-path="url(#clipPath26)" opacity=".8"><path id="path28" d="m 3.782,38.28 h 27.39 V 34.171 H 3.782 Z" fill="#6d53fe" fill-opacity="1" fill-rule="nonzero" stroke="none"/></g></g></g><g id="g34"><g id="g46"><g id="g44" clip-path="url(#clipPath40)" opacity=".5"><path id="path42" d="M 0.994,27.621 H 28.383 V 19.404 H 0.994 Z" fill="#1496e2" fill-opacity="1" fill-rule="nonzero" stroke="none"/></g></g></g></g></g><path id="path48" d="M 1.88,0 H 30.236 V 37.941 H 1.88 Z M 2.847,36.975 H 29.271 V 0.967 H 2.847 Z" fill="#1496e2" fill-opacity="1" fill-rule="nonzero" stroke="none"/><path id="path50" d="m 1.88,19.404 h 0.967 v 8.217 H 1.88 Z" fill="#1496e2" fill-opacity="1" fill-rule="nonzero" stroke="none"/><g id="g52"><g clip-path="url(#clipPath58)" id="g54"><g id="g60"><g id="g78"><g id="g76" clip-path="url(#clipPath66)" opacity=".8" fill="#6d53fe" fill-opacity="1" fill-rule="nonzero" stroke="none"><path id="path68" d="M 5.788,31.379 H 9.124 V 30.413 H 5.788 Z"/><path id="path70" d="M 11.524,31.379 H 14.86 V 30.413 H 11.524 Z"/><path id="path72" d="m 17.257,31.379 h 3.336 v -0.966 h -3.336 z"/><path id="path74" d="m 22.995,31.379 h 3.336 v -0.966 h -3.336 z"/></g></g></g></g></g><path id="path80" d="m 5.788,34.92 h 0.967 v 0.967 H 5.788 Z" fill="#fff" fill-opacity="1" fill-rule="nonzero" stroke="none"/><path id="path82" d="m 7.718,34.92 h 0.966 v 0.967 H 7.718 Z" fill="#fff" fill-opacity="1" fill-rule="nonzero" stroke="none"/><path id="path84" d="m 9.651,34.92 h 0.967 v 0.967 H 9.651 Z" fill="#fff" fill-opacity="1" fill-rule="nonzero" stroke="none"/><g id="g86"><g clip-path="url(#clipPath92)" id="g88"><g id="g94"><g id="g112"><g id="g110" clip-path="url(#clipPath100)" opacity=".5" fill="#1496e2" fill-opacity="1" fill-rule="nonzero" stroke="none"><path id="path102" d="m 13.191,9.107 h 5.732 V 3.374 h -5.732 z"/><path id="path104" d="m 20.598,9.107 h 5.731 V 3.374 h -5.731 z"/><path id="path106" d="m 5.788,16.511 h 5.733 V 10.78 H 5.788 Z"/><path id="path108" d="m 13.191,16.511 h 5.732 V 10.78 h -5.732 z"/></g></g></g></g></g><path id="path114" d="m 10.565,8.15 h 0.966 v 0.966 h -0.966 z" fill="#1496e2" fill-opacity="1" fill-rule="nonzero" stroke="none"/><path id="path116" d="M 9.036,8.151 H 9.8 V 9.117 H 9.036 Z m -1.528,0 H 8.272 V 9.117 H 7.508 Z" fill="#1496e2" fill-opacity="1" fill-rule="nonzero" stroke="none"/><path id="path118" d="M 5.777,8.15 H 6.744 V 9.116 H 5.777 Z" fill="#1496e2" fill-opacity="1" fill-rule="nonzero" stroke="none"/><path id="path120" d="M 5.777,6.622 H 6.744 V 7.387 H 5.777 Z m 0,-1.528 H 6.744 V 5.859 H 5.777 Z" fill="#1496e2" fill-opacity="1" fill-rule="nonzero" stroke="none"/><path id="path122" d="M 5.777,3.365 H 6.744 V 4.331 H 5.777 Z" fill="#1496e2" fill-opacity="1" fill-rule="nonzero" stroke="none"/><path id="path124" d="M 9.036,3.365 H 9.8 V 4.331 H 9.036 Z m -1.529,0 H 8.272 V 4.331 H 7.507 Z" fill="#1496e2" fill-opacity="1" fill-rule="nonzero" stroke="none"/><path id="path126" d="m 10.565,3.365 h 0.966 v 0.966 h -0.966 z" fill="#1496e2" fill-opacity="1" fill-rule="nonzero" stroke="none"/><path id="path128" d="m 10.564,6.622 h 0.966 v 0.765 h -0.966 z m 0,-1.527 h 0.966 v 0.764 h -0.966 z" fill="#1496e2" fill-opacity="1" fill-rule="nonzero" stroke="none"/><path id="path130" d="m 25.374,15.557 h 0.967 v 0.967 h -0.967 z" fill="#1496e2" fill-opacity="1" fill-rule="nonzero" stroke="none"/><path id="path132" d="m 23.846,15.556 h 0.764 v 0.967 h -0.764 z m -1.528,0 h 0.763 v 0.967 h -0.763 z" fill="#1496e2" fill-opacity="1" fill-rule="nonzero" stroke="none"/><path id="path134" d="m 20.587,15.557 h 0.966 v 0.967 h -0.966 z" fill="#1496e2" fill-opacity="1" fill-rule="nonzero" stroke="none"/><path id="path136" d="m 20.587,14.028 h 0.966 v 0.763 h -0.966 z m 0,-1.529 h 0.966 v 0.765 h -0.966 z" fill="#1496e2" fill-opacity="1" fill-rule="nonzero" stroke="none"/><path id="path138" d="m 20.587,10.769 h 0.966 v 0.967 h -0.966 z" fill="#1496e2" fill-opacity="1" fill-rule="nonzero" stroke="none"/><path id="path140" d="m 23.846,10.77 h 0.763 v 0.966 h -0.763 z m -1.529,0 h 0.764 v 0.966 h -0.764 z" fill="#1496e2" fill-opacity="1" fill-rule="nonzero" stroke="none"/><path id="path142" d="m 25.374,10.769 h 0.967 v 0.967 h -0.967 z" fill="#1496e2" fill-opacity="1" fill-rule="nonzero" stroke="none"/><path id="path144" d="m 25.374,14.028 h 0.966 v 0.763 h -0.966 z m 0,-1.529 h 0.966 v 0.765 h -0.966 z" fill="#1496e2" fill-opacity="1" fill-rule="nonzero" stroke="none"/><path id="path146" d="m 27.391,13.163 h 4.727 v 0.967 h -4.727 z" fill="#1496e2" fill-opacity="1" fill-rule="nonzero" stroke="none"/><path id="path148" d="M 0,5.758 H 4.728 V 6.725 H 0 Z" fill="#1496e2" fill-opacity="1" fill-rule="nonzero" stroke="none"/><path id="path150" d="m 24.847,23.786 h 9.812 v 5.848 h -9.812 z m 0.966,4.882 h 7.88 v -3.915 h -7.88 z" fill="#1496e2" fill-opacity="1" fill-rule="nonzero" stroke="none"/><g transform="translate(3.781 36.975)" id="g152"><path id="path154" d="m 0,0 h 25.49 v -2.804 h 0.966 v 3.77 L 0,0.966 Z" fill="#1496e2" fill-opacity="1" fill-rule="nonzero" stroke="none"/></g><g transform="translate(28.383 24.753)" id="g156"><path id="path158" d="M 0,0 H -2.57 V 2.868 H -3.536 V -0.966 H 0 Z" fill="#1496e2" fill-opacity="1" fill-rule="nonzero" stroke="none"/></g><path id="path160" d="m 29.271,23.786 h 0.967 v 0.967 h -0.967 z" fill="#1496e2" fill-opacity="1" fill-rule="nonzero" stroke="none"/><path id="path162" d="m 29.271,28.668 h 0.967 v 0.967 h -0.967 z" fill="#1496e2" fill-opacity="1" fill-rule="nonzero" stroke="none"/><path id="path164" d="M 1.88,5.758 H 2.847 V 6.725 H 1.88 Z" fill="#1496e2" fill-opacity="1" fill-rule="nonzero" stroke="none"/><path id="path166" d="m 29.271,13.163 h 0.967 v 0.967 h -0.967 z" fill="#1496e2" fill-opacity="1" fill-rule="nonzero" stroke="none"/></g></svg>