<svg xmlns="http://www.w3.org/2000/svg" viewBox="0 0 55.696 55.149" height="55.149" width="55.696" xml:space="preserve" id="svg2" version="1.1"><defs id="defs6"><clipPath id="clipPath18" clipPathUnits="userSpaceOnUse"><path id="path16" d="M 0,41.361 H 41.772 V 0 H 0 Z"/></clipPath><clipPath id="clipPath26" clipPathUnits="userSpaceOnUse"><path id="path24" d="M 9.03847,38.6964 H 34.8648 V 7.65372 H 9.03847 Z"/></clipPath><clipPath id="clipPath54" clipPathUnits="userSpaceOnUse"><path id="path52" d="M 0,41.361 H 41.772 V 0 H 0 Z"/></clipPath><clipPath id="clipPath214" clipPathUnits="userSpaceOnUse"><path id="path212" d="m 30.053,19.2566 h 10.4556 v -7.01 H 30.053 Z"/></clipPath><clipPath id="clipPath244" clipPathUnits="userSpaceOnUse"><path id="path242" d="M 2.16881,35.2773 H 13.7518 v -8.843 H 2.16881 Z"/></clipPath><clipPath id="clipPath260" clipPathUnits="userSpaceOnUse"><path id="path258" d="M 0,39.9272 H 41.7722 V 25.4704 H 0 Z"/></clipPath><clipPath id="clipPath292" clipPathUnits="userSpaceOnUse"><path id="path290" d="m 12.034,12.246 h 2.4582 V 9.78598 H 12.034 Z"/></clipPath><clipPath id="clipPath308" clipPathUnits="userSpaceOnUse"><path id="path306" d="m 14.2602,41.3614 h 5.3287 v -5.3285 h -5.3287 z"/></clipPath></defs><g transform="matrix(1.33333 0 0 -1.33333 0 55.149)" id="g10"><g id="g12"><g clip-path="url(#clipPath18)" id="g14"><g id="g20"><g id="g34"><g id="g32" clip-path="url(#clipPath26)" opacity=".4"><g id="g30" transform="translate(21.948 16.004)"><path id="path28" d="m 0,0 c -5.399,0 -9.777,4.377 -9.777,9.778 0,5.399 4.377,9.776 9.777,9.776 5.399,0 9.777,-4.377 9.777,-9.776 C 9.777,4.377 5.399,0 0,0 M 0.004,22.693 C -7.129,22.691 -12.91,16.91 -12.91,9.778 c 0,-3.78 1.626,-7.177 4.211,-9.539 0.123,-0.107 0.245,-0.211 0.369,-0.32 2.02,-1.841 3.288,-4.486 3.288,-7.434 V -8.35 h 5.046 5.044 v 0.835 c 0,2.948 1.271,5.593 3.289,7.434 0.123,0.109 0.247,0.213 0.37,0.32 2.584,2.362 4.21,5.759 4.21,9.539 0,7.132 -5.78,12.913 -12.913,12.915" fill="#1496e2" fill-opacity="1" fill-rule="nonzero" stroke="none"/></g></g></g></g></g></g><path id="path36" d="m 17.784,2.682 h 8.335 V 7.215 H 17.784 Z M 26.996,1.805 H 16.907 v 6.287 h 10.089 z" fill="#6d53fe" fill-opacity="1" fill-rule="nonzero" stroke="none"/><path id="path38" d="M 15.79,7.216 H 28.116 V 8.093 H 15.79 Z" fill="#6d53fe" fill-opacity="1" fill-rule="nonzero" stroke="none"/><path id="path40" d="M 15.79,5.412 H 28.116 V 6.29 H 15.79 Z" fill="#6d53fe" fill-opacity="1" fill-rule="nonzero" stroke="none"/><path id="path42" d="M 15.79,3.607 H 28.116 V 4.484 H 15.79 Z" fill="#6d53fe" fill-opacity="1" fill-rule="nonzero" stroke="none"/><path id="path44" d="M 15.79,1.805 H 28.116 V 2.682 H 15.79 Z" fill="#6d53fe" fill-opacity="1" fill-rule="nonzero" stroke="none"/><path id="path46" d="m 18.946,0 h 6.011 v 0.877 h -6.011 z" fill="#6d53fe" fill-opacity="1" fill-rule="nonzero" stroke="none"/><g id="g48"><g clip-path="url(#clipPath54)" id="g50"><g transform="translate(18.8 17.316)" id="g56"><path id="path58" d="m 0,0 c -1.265,0 -2.294,1.03 -2.294,2.296 0,1.266 1.029,2.296 2.294,2.296 V 3.715 c -0.781,0 -1.417,-0.637 -1.417,-1.419 0,-0.782 0.636,-1.419 1.417,-1.419 0.783,0 1.42,0.637 1.42,1.419 v 13.013 c 0,0.783 -0.637,1.419 -1.42,1.419 -0.781,0 -1.417,-0.637 -1.417,-1.419 0,-0.782 0.636,-1.418 1.417,-1.418 v -0.877 c -1.265,0 -2.294,1.029 -2.294,2.295 0,1.266 1.029,2.296 2.294,2.296 1.267,0 2.297,-1.03 2.297,-2.296 V 2.296 C 2.297,1.029 1.267,0 0,0" fill="#1496e2" fill-opacity="1" fill-rule="nonzero" stroke="none"/></g><g transform="translate(17.872 26.603)" id="g60"><path id="path62" d="m 0,0 c -1.266,0 -2.295,1.03 -2.295,2.296 h 0.877 C -1.418,1.514 -0.782,0.877 0,0.877 Z" fill="#1496e2" fill-opacity="1" fill-rule="nonzero" stroke="none"/></g><g transform="translate(16.454 23.34)" id="g64"><path id="path66" d="m 0,0 h -0.877 c 0,1.266 1.029,2.295 2.295,2.295 V 1.418 C 0.636,1.418 0,0.782 0,0" fill="#1496e2" fill-opacity="1" fill-rule="nonzero" stroke="none"/></g><g transform="translate(21.097 22.405)" id="g68"><path id="path70" d="m 0,0 h -0.877 c 0,0.782 -0.637,1.418 -1.418,1.418 V 2.295 C -1.03,2.295 0,1.266 0,0" fill="#1496e2" fill-opacity="1" fill-rule="nonzero" stroke="none"/></g><g transform="translate(18.8 27.538)" id="g72"><path id="path74" d="m 0,0 v 0.877 c 0.783,0 1.42,0.637 1.42,1.419 H 2.297 C 2.297,1.03 1.267,0 0,0" fill="#1496e2" fill-opacity="1" fill-rule="nonzero" stroke="none"/></g><g transform="translate(14.03 30.759)" id="g76"><path id="path78" d="m 0,0 c -0.038,0.171 -0.057,0.341 -0.057,0.506 0,1.266 1.031,2.297 2.298,2.297 0.304,0 0.599,-0.059 0.877,-0.177 L 2.778,1.818 C 2.608,1.889 2.428,1.926 2.241,1.926 1.458,1.926 0.82,1.289 0.82,0.506 0.82,0.405 0.833,0.299 0.856,0.19 Z" fill="#1496e2" fill-opacity="1" fill-rule="nonzero" stroke="none"/></g><g transform="translate(12.911 27.375)" id="g80"><path id="path82" d="M 0,0 C -0.895,0.895 -0.895,2.351 0,3.246 0.434,3.681 1.011,3.92 1.624,3.92 H 1.625 C 2.238,3.919 2.814,3.68 3.248,3.246 L 2.627,2.626 C 2.359,2.895 2.003,3.042 1.625,3.043 H 1.624 C 1.245,3.043 0.888,2.895 0.62,2.626 0.067,2.073 0.067,1.173 0.62,0.62 Z" fill="#1496e2" fill-opacity="1" fill-rule="nonzero" stroke="none"/></g><g transform="translate(13.89 23.823)" id="g84"><path id="path86" d="m 0,0 c -1.265,0 -2.294,1.03 -2.294,2.296 0,1.266 1.029,2.297 2.294,2.297 V 3.715 c -0.782,0 -1.418,-0.636 -1.418,-1.419 0,-0.782 0.636,-1.419 1.418,-1.419 z" fill="#1496e2" fill-opacity="1" fill-rule="nonzero" stroke="none"/></g><g transform="translate(14.535 20.944)" id="g88"><path id="path90" d="m 0,0 c -0.613,0 -1.19,0.239 -1.624,0.673 -0.894,0.894 -0.894,2.35 0,3.246 l 0.621,-0.62 C -1.556,2.746 -1.557,1.846 -1.003,1.293 -0.735,1.025 -0.378,0.877 0,0.877 c 0.379,0 0.736,0.148 1.003,0.416 L 1.624,0.674 C 1.19,0.239 0.614,0 0,0" fill="#1496e2" fill-opacity="1" fill-rule="nonzero" stroke="none"/></g><g transform="translate(16.27 18.677)" id="g92"><path id="path94" d="m 0,0 c -1.267,0 -2.298,1.029 -2.298,2.294 0,0.165 0.02,0.336 0.057,0.508 L -1.384,2.614 C -1.409,2.503 -1.421,2.396 -1.421,2.294 -1.421,1.513 -0.783,0.877 0,0.877 c 0.186,0 0.367,0.036 0.539,0.106 L 0.875,0.175 C 0.597,0.059 0.302,0 0,0" fill="#1496e2" fill-opacity="1" fill-rule="nonzero" stroke="none"/></g><g transform="translate(23.855 17.316)" id="g96"><path id="path98" d="m 0,0 c -1.266,0 -2.295,1.03 -2.295,2.296 v 13.013 c 0,1.266 1.029,2.296 2.295,2.296 1.266,0 2.296,-1.03 2.296,-2.296 0,-1.266 -1.03,-2.295 -2.296,-2.295 v 0.877 c 0.782,0 1.419,0.636 1.419,1.418 0,0.783 -0.637,1.419 -1.419,1.419 -0.782,0 -1.418,-0.637 -1.418,-1.419 V 2.296 c 0,-0.782 0.636,-1.419 1.418,-1.419 0.782,0 1.419,0.637 1.419,1.419 0,0.782 -0.637,1.419 -1.419,1.419 v 0.877 c 1.266,0 2.296,-1.03 2.296,-2.296 C 2.296,1.029 1.266,0 0,0" fill="#1496e2" fill-opacity="1" fill-rule="nonzero" stroke="none"/></g><g transform="translate(24.784 26.603)" id="g100"><path id="path102" d="m 0,0 v 0.877 c 0.781,0 1.417,0.637 1.417,1.419 H 2.294 C 2.294,1.031 1.265,0 0,0" fill="#1496e2" fill-opacity="1" fill-rule="nonzero" stroke="none"/></g><g transform="translate(27.078 23.34)" id="g104"><path id="path106" d="m 0,0 h -0.877 c 0,0.782 -0.636,1.418 -1.417,1.418 V 2.295 C -1.029,2.295 0,1.266 0,0" fill="#1496e2" fill-opacity="1" fill-rule="nonzero" stroke="none"/></g><g transform="translate(22.436 22.405)" id="g108"><path id="path110" d="m 0,0 h -0.877 c 0,1.266 1.03,2.295 2.295,2.295 V 1.418 C 0.636,1.418 0,0.782 0,0" fill="#1496e2" fill-opacity="1" fill-rule="nonzero" stroke="none"/></g><g transform="translate(23.855 27.538)" id="g112"><path id="path114" d="m 0,0 c -1.266,0 -2.295,1.03 -2.295,2.296 h 0.877 C -1.418,1.514 -0.782,0.877 0,0.877 Z" fill="#1496e2" fill-opacity="1" fill-rule="nonzero" stroke="none"/></g><g transform="translate(28.624 30.757)" id="g116"><path id="path118" d="m 0,0 -0.854,0.193 c 0.022,0.102 0.034,0.208 0.034,0.315 0,0.783 -0.636,1.42 -1.417,1.42 -0.187,0 -0.369,-0.037 -0.541,-0.108 l -0.337,0.809 c 0.28,0.117 0.575,0.176 0.878,0.176 1.265,0 2.294,-1.031 2.294,-2.297 C 0.057,0.336 0.038,0.166 0,0" fill="#1496e2" fill-opacity="1" fill-rule="nonzero" stroke="none"/></g><g transform="translate(29.743 27.374)" id="g120"><path id="path122" d="m 0,0 -0.619,0.621 c 0.267,0.267 0.416,0.623 0.416,1.002 0,0.379 -0.149,0.736 -0.416,1.004 -0.269,0.269 -0.625,0.416 -1.004,0.416 -0.379,0 -0.735,-0.147 -1.003,-0.416 l -0.62,0.62 c 0.433,0.434 1.009,0.673 1.622,0.673 h 0.001 C -1.01,3.92 -0.434,3.681 0.001,3.247 0.435,2.813 0.673,2.236 0.673,1.623 0.673,1.01 0.435,0.433 0,0" fill="#1496e2" fill-opacity="1" fill-rule="nonzero" stroke="none"/></g><g transform="translate(28.765 23.823)" id="g124"><path id="path126" d="m 0,0 v 0.877 c 0.783,0 1.421,0.637 1.421,1.419 C 1.421,3.079 0.783,3.715 0,3.715 V 4.593 C 1.268,4.593 2.298,3.562 2.298,2.296 2.298,1.03 1.268,0 0,0" fill="#1496e2" fill-opacity="1" fill-rule="nonzero" stroke="none"/></g><g transform="translate(28.12 20.944)" id="g128"><path id="path130" d="m 0,0 c -0.613,0 -1.189,0.239 -1.623,0.673 l 0.62,0.62 C -0.734,1.025 -0.379,0.877 0,0.877 c 0.379,0 0.735,0.148 1.004,0.416 0.267,0.268 0.416,0.624 0.416,1.002 0,0.379 -0.148,0.736 -0.416,1.004 l 0.62,0.62 C 2.058,3.485 2.297,2.908 2.297,2.295 2.297,1.682 2.058,1.105 1.624,0.673 1.19,0.239 0.613,0 0,0" fill="#1496e2" fill-opacity="1" fill-rule="nonzero" stroke="none"/></g><g transform="translate(26.387 18.677)" id="g132"><path id="path134" d="m 0,0 c -0.301,0 -0.596,0.058 -0.876,0.174 l 0.334,0.81 c 0.174,-0.071 0.356,-0.107 0.543,-0.107 0.781,0 1.417,0.636 1.417,1.418 0,0.106 -0.012,0.213 -0.035,0.317 L 2.238,2.804 C 2.275,2.637 2.295,2.466 2.295,2.294 2.294,1.029 1.266,0 0,0" fill="#1496e2" fill-opacity="1" fill-rule="nonzero" stroke="none"/></g><g transform="translate(23.855 24.7)" id="g136"><path id="path138" d="m 0,0 c -0.111,0 -0.22,-0.01 -0.326,-0.025 v -0.891 c 0.104,0.025 0.214,0.039 0.326,0.039 z" fill="#1496e2" fill-opacity="1" fill-rule="nonzero" stroke="none"/></g><g transform="translate(23.855 28.416)" id="g140"><path id="path142" d="M 0,0 C -0.112,0 -0.222,0.014 -0.326,0.039 V -0.852 C -0.22,-0.867 -0.111,-0.877 0,-0.877 Z" fill="#1496e2" fill-opacity="1" fill-rule="nonzero" stroke="none"/></g><g transform="translate(26.201 28.9)" id="g144"><path id="path146" d="m 0,0 c 0,-0.783 -0.636,-1.419 -1.417,-1.419 v -0.877 c 1.265,0 2.294,1.03 2.294,2.296 z" fill="#1496e2" fill-opacity="1" fill-rule="nonzero" stroke="none"/></g><g transform="translate(24.784 25.635)" id="g148"><path id="path150" d="m 0,0 v -0.877 c 0.781,0 1.417,-0.636 1.417,-1.418 H 2.294 C 2.294,-1.03 1.265,0 0,0" fill="#1496e2" fill-opacity="1" fill-rule="nonzero" stroke="none"/></g><g transform="translate(31.063 26.12)" id="g152"><path id="path154" d="m 0,0 c 0,0.742 -0.355,1.401 -0.903,1.821 0.168,0.323 0.257,0.683 0.257,1.057 0,0.049 -0.004,0.098 -0.007,0.146 -0.216,0.097 -0.448,0.151 -0.68,0.16 0.029,0.132 0.046,0.27 0.046,0.412 0,0.488 -0.19,0.932 -0.498,1.263 -0.188,0.11 -0.388,0.193 -0.599,0.245 0,0.014 0.002,0.027 0.002,0.041 0,0.05 -0.004,0.099 -0.007,0.147 -0.231,0.104 -0.487,0.162 -0.757,0.162 -0.048,0 -0.097,-0.003 -0.145,-0.007 0.02,-0.096 0.032,-0.195 0.032,-0.296 C -3.752,5.083 -4.208,4.86 -4.565,4.501 l 0.621,-0.619 c 0.267,0.268 0.623,0.416 1.002,0.416 h 0.001 c 0.378,0 0.734,-0.148 1.003,-0.416 0.268,-0.268 0.416,-0.625 0.416,-1.004 0,-0.236 -0.058,-0.463 -0.166,-0.666 -0.195,0.053 -0.398,0.084 -0.609,0.084 V 1.419 c 0.783,0 1.42,-0.636 1.42,-1.419 0,-0.783 -0.637,-1.419 -1.42,-1.419 v -0.877 c 0.211,0 0.414,0.031 0.609,0.084 0.108,-0.203 0.166,-0.431 0.166,-0.668 0,-0.379 -0.148,-0.735 -0.416,-1.002 -0.268,-0.268 -0.625,-0.416 -1.004,-0.416 -0.379,0 -0.735,0.148 -1.002,0.416 l -0.621,-0.619 c 0.358,-0.359 0.813,-0.582 1.306,-0.65 -0.002,-0.78 -0.637,-1.414 -1.416,-1.414 -0.081,0 -0.16,0.008 -0.239,0.022 0,0.012 0.002,0.024 0.002,0.036 0,1.266 -1.03,2.297 -2.296,2.297 v -0.878 c 0.782,0 1.419,-0.637 1.419,-1.419 0,-0.783 -0.637,-1.419 -1.419,-1.419 -0.112,0 -0.221,0.014 -0.326,0.04 v -0.17 c 0,-0.263 0.055,-0.512 0.153,-0.738 0.057,-0.004 0.114,-0.009 0.173,-0.009 0.948,0 1.765,0.579 2.114,1.401 0.138,-0.026 0.278,-0.04 0.418,-0.04 1.266,0 2.294,1.03 2.294,2.295 0,0.015 -0.002,0.029 -0.002,0.043 0.4,0.1 0.767,0.304 1.065,0.602 0.433,0.433 0.673,1.009 0.673,1.622 0,0.375 -0.09,0.736 -0.258,1.059 C -0.355,-1.401 0,-0.742 0,0" fill="#1496e2" fill-opacity="1" fill-rule="nonzero" stroke="none"/></g><g transform="translate(21.56 32.468)" id="g156"><path id="path158" d="m 0,0 v -12.857 c 0,-0.61 0.241,-1.164 0.63,-1.575 0,0.009 0.001,0.018 0.001,0.026 V -1.393 C 0.631,-0.838 0.386,-0.34 0,0" fill="#1496e2" fill-opacity="1" fill-rule="nonzero" stroke="none"/></g><g transform="translate(25.388 32.932)" id="g160"><path id="path162" d="m 0,0 c -0.05,0 -0.099,-0.003 -0.147,-0.007 0.021,-0.097 0.033,-0.198 0.033,-0.301 0,-0.782 -0.637,-1.418 -1.419,-1.418 v -0.877 c 1.265,0 2.296,1.03 2.296,2.295 0,0.013 -0.002,0.025 -0.002,0.038 0.056,0.01 0.114,0.016 0.172,0.019 C 0.658,-0.091 0.34,0 0,0" fill="#1496e2" fill-opacity="1" fill-rule="nonzero" stroke="none"/></g><g transform="translate(13.72 23.835)" id="g164"><path id="path166" d="m 0,0 c 0.057,-0.004 0.112,-0.012 0.17,-0.012 v 0.877 c -0.107,0 -0.211,0.013 -0.312,0.036 C -0.146,0.845 -0.154,0.791 -0.154,0.733 -0.154,0.473 -0.097,0.226 0,0" fill="#1496e2" fill-opacity="1" fill-rule="nonzero" stroke="none"/></g><g transform="translate(15.577 23.34)" id="g168"><path id="path170" d="m 0,0 h 0.877 c 0,0.782 0.636,1.418 1.418,1.418 V 2.295 C 1.029,2.295 0,1.266 0,0" fill="#1496e2" fill-opacity="1" fill-rule="nonzero" stroke="none"/></g><g transform="translate(15.193 20.05)" id="g172"><path id="path174" d="m 0,0 c -0.212,0.248 -0.342,0.567 -0.343,0.917 0.494,0.068 0.95,0.291 1.309,0.65 L 0.345,2.187 C 0.078,1.918 -0.279,1.771 -0.658,1.771 -0.766,1.771 -0.871,1.784 -0.973,1.807 -1.021,1.277 -0.845,0.731 -0.44,0.325 -0.307,0.192 -0.158,0.085 0,0" fill="#1496e2" fill-opacity="1" fill-rule="nonzero" stroke="none"/></g><g transform="translate(17.872 27.48)" id="g176"><path id="path178" d="m 0,0 c -0.782,0 -1.418,0.636 -1.418,1.419 h -0.877 c 0,-1.266 1.029,-2.296 2.295,-2.296 z" fill="#1496e2" fill-opacity="1" fill-rule="nonzero" stroke="none"/></g><g transform="translate(18.8 30.33)" id="g180"><path id="path182" d="m 0,0 v 0.877 c -0.363,0 -0.694,0.139 -0.945,0.364 -0.017,0 -0.034,0.003 -0.052,0.003 -0.328,0 -0.635,-0.086 -0.902,-0.234 C -1.486,0.401 -0.789,0 0,0" fill="#1496e2" fill-opacity="1" fill-rule="nonzero" stroke="none"/></g><g transform="translate(21.097 19.612)" id="g184"><path id="path186" d="m 0,0 v 13.013 c 0,0.049 -0.004,0.097 -0.007,0.146 -0.231,0.103 -0.487,0.161 -0.756,0.161 -0.049,0 -0.098,-0.002 -0.147,-0.006 0.021,-0.097 0.033,-0.198 0.033,-0.301 v -2.79 c 0,-0.783 -0.637,-1.419 -1.42,-1.419 V 7.927 c 0.536,0 1.029,0.186 1.42,0.494 V 4.594 C -1.268,4.902 -1.76,5.088 -2.295,5.088 V 4.211 c 0.782,0 1.418,-0.636 1.418,-1.419 V 0 c 0,-0.782 -0.637,-1.419 -1.42,-1.419 -0.781,0 -1.417,0.637 -1.417,1.419 0,0.783 0.636,1.419 1.417,1.419 v 0.877 c -1.265,0 -2.294,-1.03 -2.294,-2.296 0,-0.013 0.002,-0.024 0.002,-0.036 -0.078,-0.014 -0.157,-0.022 -0.238,-0.022 -0.108,0 -0.214,0.013 -0.316,0.037 -0.005,-0.055 -0.009,-0.111 -0.009,-0.168 0,-0.262 0.054,-0.511 0.152,-0.737 0.058,-0.005 0.115,-0.009 0.173,-0.009 0.141,0 0.281,0.014 0.417,0.039 0.211,-0.496 0.593,-0.903 1.071,-1.148 0.015,0 0.029,-0.002 0.045,-0.002 0.249,0 0.488,0.049 0.706,0.141 0.026,-0.134 0.068,-0.262 0.122,-0.384 0.056,-0.005 0.112,-0.007 0.169,-0.007 C -1.03,-2.296 0,-1.267 0,0" fill="#1496e2" fill-opacity="1" fill-rule="nonzero" stroke="none"/></g><g transform="translate(13.982 31.446)" id="g188"><path id="path190" d="M 0,0 C 0.568,0.797 1.251,1.505 2.026,2.099 0.942,1.975 0.086,1.095 0,0" fill="#1496e2" fill-opacity="1" fill-rule="nonzero" stroke="none"/></g><g transform="translate(18.369 34.88)" id="g192"><path id="path194" d="M 0,0 C -0.37,-0.071 -0.709,-0.23 -0.993,-0.457 -0.672,-0.286 -0.341,-0.134 0,0" fill="#1496e2" fill-opacity="1" fill-rule="nonzero" stroke="none"/></g><g transform="translate(12.44 28.06)" id="g196"><path id="path198" d="M 0,0 C 0.268,1.122 0.728,2.168 1.345,3.103 1.02,2.991 0.72,2.812 0.47,2.561 -0.221,1.869 -0.376,0.844 0,0" fill="#1496e2" fill-opacity="1" fill-rule="nonzero" stroke="none"/></g><g transform="translate(13.23 21.357)" id="g200"><path id="path202" d="M 0,0 C -0.408,0.801 -0.708,1.666 -0.883,2.576 -1.132,1.785 -0.945,0.886 -0.319,0.261 -0.221,0.162 -0.112,0.078 0,0" fill="#1496e2" fill-opacity="1" fill-rule="nonzero" stroke="none"/></g><g transform="translate(12.17 25.782)" id="g204"><path id="path206" d="M 0,0 C 0,0.71 0.078,1.401 0.221,2.068 -0.264,1.647 -0.575,1.03 -0.575,0.338 c 0,-0.625 0.253,-1.189 0.659,-1.602 C 0.031,-0.85 0,-0.429 0,0" fill="#1496e2" fill-opacity="1" fill-rule="nonzero" stroke="none"/></g><g id="g208"><g id="g220"><g id="g218" clip-path="url(#clipPath214)" opacity=".5"><path id="path216" d="m 30.053,19.257 h 10.456 v -7.01 H 30.053 Z" fill="#1496e2" fill-opacity="1" fill-rule="nonzero" stroke="none"/></g></g></g><g transform="translate(41.747 10.097)" id="g222"><path id="path224" d="M 0,0 H -10.895 V 0.877 H -0.877 V 7.448 L 0,7.448 Z" fill="#6d53fe" fill-opacity="1" fill-rule="nonzero" stroke="none"/></g><g transform="translate(36.657 16.55)" id="g226"><path id="path228" d="M 0,0 -3.336,-3.334 H 3.332 Z" fill="#fff" fill-opacity="1" fill-rule="nonzero" stroke="none"/></g><g transform="translate(34.276 15.394)" id="g230"><path id="path232" d="M 0,0 -2.175,-2.178 H 2.178 Z" fill="#fff" fill-opacity="1" fill-rule="nonzero" stroke="none"/></g><g transform="translate(35.673 16.817)" id="g234"><path id="path236" d="m 0,0 c 0,-0.385 -0.312,-0.698 -0.696,-0.698 -0.388,0 -0.7,0.313 -0.7,0.698 0,0.387 0.312,0.699 0.7,0.699 C -0.312,0.699 0,0.387 0,0" fill="#fff" fill-opacity="1" fill-rule="nonzero" stroke="none"/></g><g id="g238"><g id="g252"><g id="g250" clip-path="url(#clipPath244)" opacity=".4"><g id="g248" transform="translate(13.752 35.277)"><path id="path246" d="m 0,0 v -7.042 h -8.688 l -1.802,-1.801 v 1.801 h -1.093 V 0 Z" fill="#1496e2" fill-opacity="1" fill-rule="nonzero" stroke="none"/></g></g></g></g><g id="g254"><g id="g284"><g id="g282" clip-path="url(#clipPath260)" opacity=".5"><path id="path262" d="M 3.643,31.336 H 9.495 V 30.459 H 3.643 Z" fill="#6d53fe" fill-opacity="1" fill-rule="nonzero" stroke="none"/><path id="path264" d="M 0,33.112 H 9.497 V 32.235 H 0 Z" fill="#6d53fe" fill-opacity="1" fill-rule="nonzero" stroke="none"/><g id="g268" transform="translate(37.855 27.79)"><path id="path266" d="m 0,0 c -0.398,0 -0.723,-0.324 -0.723,-0.722 0,-0.398 0.325,-0.721 0.723,-0.721 0.398,0 0.722,0.323 0.722,0.721 C 0.722,-0.324 0.398,0 0,0 m 0,-2.32 c -0.882,0 -1.6,0.717 -1.6,1.598 0,0.882 0.718,1.599 1.6,1.599 0.882,0 1.599,-0.717 1.599,-1.599 C 1.599,-1.603 0.882,-2.32 0,-2.32" fill="#6d53fe" fill-opacity="1" fill-rule="nonzero" stroke="none"/></g><g id="g272" transform="translate(40.175 31.034)"><path id="path270" d="m 0,0 c -0.881,0 -1.599,0.716 -1.599,1.597 h 0.877 C -0.722,1.2 -0.397,0.876 0,0.876 Z" fill="#6d53fe" fill-opacity="1" fill-rule="nonzero" stroke="none"/></g><g id="g276" transform="translate(41.772 30.312)"><path id="path274" d="m 0,0 h -0.877 c 0,0.398 -0.323,0.723 -0.721,0.723 V 1.599 C -0.717,1.6 0,0.882 0,0" fill="#6d53fe" fill-opacity="1" fill-rule="nonzero" stroke="none"/></g><path id="path278" d="m 38.577,32.632 h 0.876 v -5.563 h -0.876 z" fill="#6d53fe" fill-opacity="1" fill-rule="nonzero" stroke="none"/><path id="path280" d="m 27.078,36.614 h 4.362 v 2.437 h -4.362 z m 5.239,-0.877 h -6.116 v 4.19 h 6.116 z" fill="#6d53fe" fill-opacity="1" fill-rule="nonzero" stroke="none"/></g></g></g><g id="g286"><g id="g300"><g id="g298" clip-path="url(#clipPath292)" opacity=".5"><g id="g296" transform="translate(14.492 11.016)"><path id="path294" d="m 0,0 c 0,-0.679 -0.55,-1.23 -1.229,-1.23 -0.679,0 -1.229,0.551 -1.229,1.23 0,0.68 0.55,1.229 1.229,1.229 C -0.55,1.229 0,0.68 0,0" fill="#6d53fe" fill-opacity="1" fill-rule="nonzero" stroke="none"/></g></g></g></g><g id="g302"><g id="g316"><g id="g314" clip-path="url(#clipPath308)" opacity=".6"><g id="g312" transform="translate(19.589 38.697)"><path id="path310" d="m 0,0 c 0,-1.471 -1.193,-2.664 -2.664,-2.664 -1.471,0 -2.665,1.193 -2.665,2.664 0,1.472 1.194,2.665 2.665,2.665 C -1.193,2.665 0,1.472 0,0" fill="#6d53fe" fill-opacity="1" fill-rule="nonzero" stroke="none"/></g></g></g></g><g transform="translate(28.98 36.614)" id="g318"><path id="path320" d="M 0,0 H -1.901 V 1.022 C -2.188,1.146 -2.48,1.259 -2.778,1.363 v -2.24 H 1.198 C 0.817,-0.562 0.416,-0.271 0,0" fill="#6d53fe" fill-opacity="1" fill-rule="nonzero" stroke="none"/></g><g transform="translate(13.752 28.405)" id="g322"><path id="path324" d="m 0,0 c -0.161,-0.01 -0.319,-0.033 -0.47,-0.074 -0.285,0.536 -0.202,1.218 0.249,1.67 0.068,0.068 0.142,0.129 0.221,0.18 v 0.97 C -0.312,2.634 -0.6,2.458 -0.841,2.216 -1.485,1.571 -1.664,0.636 -1.381,-0.171 H 0 Z" fill="#1496e2" fill-opacity="1" fill-rule="nonzero" stroke="none"/></g><path id="path326" d="M 3.643,31.336 H 9.495 V 30.459 H 3.643 Z" fill="#6d53fe" fill-opacity="1" fill-rule="nonzero" stroke="none"/><path id="path328" d="M 2.169,33.112 H 9.496 V 32.235 H 2.169 Z" fill="#6d53fe" fill-opacity="1" fill-rule="nonzero" stroke="none"/></g></g></g></svg>