<svg xmlns="http://www.w3.org/2000/svg" viewBox="0 0 50.137 52.516" height="52.516" width="50.137" xml:space="preserve" id="svg2" version="1.1"><defs id="defs6"><clipPath id="clipPath18" clipPathUnits="userSpaceOnUse"><path id="path16" d="M 0,39.387 H 37.602 V 0 H 0 Z"/></clipPath><clipPath id="clipPath26" clipPathUnits="userSpaceOnUse"><path id="path24" d="M 9.83138,27.5157 H 26.3699 V 4.754 H 9.83138 Z"/></clipPath><clipPath id="clipPath40" clipPathUnits="userSpaceOnUse"><path id="path38" d="M 7.9593,32.2691 H 28.2422 V 0 H 7.9593 Z"/></clipPath><clipPath id="clipPath54" clipPathUnits="userSpaceOnUse"><path id="path52" d="M 0,35.414 H 23.1875 V 16.2288 H 0 Z"/></clipPath><clipPath id="clipPath70" clipPathUnits="userSpaceOnUse"><path id="path68" d="M 9.83138,27.5157 H 23.1875 V 20.6712 H 9.83138 Z"/></clipPath><clipPath id="clipPath96" clipPathUnits="userSpaceOnUse"><path id="path94" d="M 0,39.387 H 37.602 V 0 H 0 Z"/></clipPath><clipPath id="clipPath110" clipPathUnits="userSpaceOnUse"><path id="path108" d="m 25.9377,17.5372 h 2.3051 V 7.00516 h -2.3051 z"/></clipPath></defs><g transform="matrix(1.33333 0 0 -1.33333 0 52.516)" id="g10"><g id="g12"><g clip-path="url(#clipPath18)" id="g14"><g id="g20"><g id="g32"><g id="g30" clip-path="url(#clipPath26)" opacity=".8"><path id="path28" d="M 10.697,5.62 H 25.505 V 26.65 H 10.697 Z M 26.37,4.754 H 9.831 V 27.515 H 26.37 Z" fill="#6d53fe" fill-opacity="1" fill-rule="nonzero" stroke="none"/></g></g></g><g id="g34"><g id="g46"><g id="g44" clip-path="url(#clipPath40)" opacity=".4"><path id="path42" d="M 25.937,5.187 H 10.264 V 27.083 H 25.937 Z M 20.983,1.988 H 15.22 v 0.866 h 5.763 z m 5.185,30.281 H 10.034 c -1.142,0 -2.075,-0.933 -2.075,-2.075 V 2.075 C 7.959,0.933 8.892,0 10.034,0 h 16.134 c 1.141,0 2.074,0.933 2.074,2.075 v 28.119 c 0,1.142 -0.933,2.075 -2.074,2.075" fill="#1496e2" fill-opacity="1" fill-rule="nonzero" stroke="none"/></g></g></g><g id="g48"><g id="g62"><g id="g60" clip-path="url(#clipPath54)" opacity=".5"><g id="g58" transform="translate(23.187 35.414)"><path id="path56" d="m 0,0 v -14.743 h -16.044 l -4.444,-4.442 v 4.442 h -2.699 V 0 Z" fill="#6d53fe" fill-opacity="1" fill-rule="nonzero" stroke="none"/></g></g></g></g><g id="g64"><g id="g78"><g id="g76" clip-path="url(#clipPath70)" opacity=".1"><g id="g74" transform="translate(9.831 20.671)"><path id="path72" d="m 0,0 h 0.866 v 5.979 h 12.49 V 6.844 H 0 Z" fill="#6d53fe" fill-opacity="1" fill-rule="nonzero" stroke="none"/></g></g></g></g></g></g><path id="path80" d="m 20.351,36.18 h 3.419 v 0.866 h -3.419 z" fill="#1496e2" fill-opacity="1" fill-rule="nonzero" stroke="none"/><path id="path82" d="m 20.351,34.706 h 10.26 v 0.866 h -10.26 z" fill="#1496e2" fill-opacity="1" fill-rule="nonzero" stroke="none"/><path id="path84" d="m 20.351,33.231 h 10.26 v 0.866 h -10.26 z" fill="#1496e2" fill-opacity="1" fill-rule="nonzero" stroke="none"/><path id="path86" d="m 20.351,31.757 h 6.595 v 0.866 h -6.595 z" fill="#1496e2" fill-opacity="1" fill-rule="nonzero" stroke="none"/><path id="path88" d="m 16.746,29.417 h 17.467 v 9.97 H 16.746 Z m 0.866,9.105 h 15.736 v -8.24 H 17.612 Z" fill="#1496e2" fill-opacity="1" fill-rule="nonzero" stroke="none"/><g id="g90"><g clip-path="url(#clipPath96)" id="g92"><g transform="translate(28.242 30.194)" id="g98"><path id="path100" d="M 0,0 C 0,0.029 -0.003,0.058 -0.004,0.087 H -10.63 v 1.988 h -0.866 v -2.854 l 11.496,0 z" fill="#1496e2" fill-opacity="1" fill-rule="nonzero" stroke="none"/></g><path id="path102" d="M 16.205,17.538 H 37.602 V 7.006 H 16.205 Z" fill="#1496e2" fill-opacity="1" fill-rule="nonzero" stroke="none"/><g id="g104"><g id="g116"><g id="g114" clip-path="url(#clipPath110)" opacity=".4"><path id="path112" d="m 25.937,17.538 h 2.306 V 7.006 h -2.306 z" fill="#1496e2" fill-opacity="1" fill-rule="nonzero" stroke="none"/></g></g></g><path id="path118" d="m 24.961,17.538 h 0.865 V 7.006 h -0.865 z" fill="#1496e2" fill-opacity="1" fill-rule="nonzero" stroke="none"/><path id="path120" d="m 19.767,14.14 h 1.428 v -1.428 h -1.428 z" fill="#fff" fill-opacity="1" fill-rule="nonzero" stroke="none"/><path id="path122" d="m 21.908,14.14 h 1.428 v -1.428 h -1.428 z" fill="#fff" fill-opacity="1" fill-rule="nonzero" stroke="none"/><path id="path124" d="m 24.051,14.14 h 1.427 v -1.428 h -1.427 z" fill="#fff" fill-opacity="1" fill-rule="nonzero" stroke="none"/><path id="path126" d="M 26.191,14.14 H 27.62 V 12.712 H 26.191 Z" fill="#fff" fill-opacity="1" fill-rule="nonzero" stroke="none"/><path id="path128" d="M 28.332,14.14 H 29.76 V 12.712 H 28.332 Z" fill="#fff" fill-opacity="1" fill-rule="nonzero" stroke="none"/><path id="path130" d="m 30.474,14.14 h 1.428 v -1.428 h -1.428 z" fill="#fff" fill-opacity="1" fill-rule="nonzero" stroke="none"/><path id="path132" d="m 32.615,14.14 h 1.427 v -1.428 h -1.427 z" fill="#fff" fill-opacity="1" fill-rule="nonzero" stroke="none"/><path id="path134" d="m 18.696,12 h 1.428 v -1.428 h -1.428 z" fill="#fff" fill-opacity="1" fill-rule="nonzero" stroke="none"/><path id="path136" d="m 20.839,12 h 1.427 v -1.428 h -1.427 z" fill="#fff" fill-opacity="1" fill-rule="nonzero" stroke="none"/><path id="path138" d="m 22.979,12 h 1.428 v -1.428 h -1.428 z" fill="#fff" fill-opacity="1" fill-rule="nonzero" stroke="none"/><path id="path140" d="m 25.12,12 h 1.428 V 10.572 H 25.12 Z" fill="#fff" fill-opacity="1" fill-rule="nonzero" stroke="none"/><path id="path142" d="m 27.262,12 h 1.427 v -1.428 h -1.427 z" fill="#fff" fill-opacity="1" fill-rule="nonzero" stroke="none"/><path id="path144" d="m 29.403,12 h 1.428 v -1.428 h -1.428 z" fill="#fff" fill-opacity="1" fill-rule="nonzero" stroke="none"/><path id="path146" d="m 31.544,12 h 1.428 v -1.428 h -1.428 z" fill="#fff" fill-opacity="1" fill-rule="nonzero" stroke="none"/><path id="path148" d="m 33.684,12 h 1.428 v -1.428 h -1.428 z" fill="#fff" fill-opacity="1" fill-rule="nonzero" stroke="none"/><path id="path150" d="m 19.767,9.857 h 1.428 V 8.429 h -1.428 z" fill="#fff" fill-opacity="1" fill-rule="nonzero" stroke="none"/><path id="path152" d="m 21.908,9.857 h 9.993 V 8.429 h -9.993 z" fill="#fff" fill-opacity="1" fill-rule="nonzero" stroke="none"/><path id="path154" d="m 32.615,9.857 h 1.427 V 8.429 h -1.427 z" fill="#fff" fill-opacity="1" fill-rule="nonzero" stroke="none"/><path id="path156" d="M 2.063,31.756 H 13.876 V 30.89 H 2.063 Z" fill="#fff" fill-opacity="1" fill-rule="nonzero" stroke="none"/><path id="path158" d="M 2.063,30.281 H 13.876 V 29.415 H 2.063 Z" fill="#fff" fill-opacity="1" fill-rule="nonzero" stroke="none"/><path id="path160" d="m 2.063,28.807 h 3.22 v -0.866 h -3.22 z" fill="#fff" fill-opacity="1" fill-rule="nonzero" stroke="none"/><g transform="translate(23.187 30.281)" id="g162"><path id="path164" d="M 0,0 H -5.575 V 5.133 H -6.441 V -0.865 H 0 Z" fill="#1496e2" fill-opacity="1" fill-rule="nonzero" stroke="none"/></g><path id="path166" d="m 20.35,34.097 h 2.838 V 33.231 H 20.35 Z" fill="#1496e2" fill-opacity="1" fill-rule="nonzero" stroke="none"/><path id="path168" d="m 20.35,35.413 h 2.838 V 34.705 H 20.35 Z" fill="#1496e2" fill-opacity="1" fill-rule="nonzero" stroke="none"/><path id="path170" d="m 20.35,32.623 h 2.838 V 31.757 H 20.35 Z" fill="#1496e2" fill-opacity="1" fill-rule="nonzero" stroke="none"/></g></g></g></svg>