<svg xmlns="http://www.w3.org/2000/svg" viewBox="0 0 49.731 56.643" height="56.643" width="49.731" xml:space="preserve" id="svg2" version="1.1"><defs id="defs6"><clipPath id="clipPath18" clipPathUnits="userSpaceOnUse"><path id="path16" d="M 0,42.482 H 37.298 V 0 H 0 Z"/></clipPath><clipPath id="clipPath26" clipPathUnits="userSpaceOnUse"><path id="path24" d="M 6.49089,36.4748 H 30.8074 V 0 H 6.49089 Z"/></clipPath><clipPath id="clipPath44" clipPathUnits="userSpaceOnUse"><path id="path42" d="M 0,42.482 H 37.298 V 0 H 0 Z"/></clipPath><clipPath id="clipPath52" clipPathUnits="userSpaceOnUse"><path id="path50" d="M 3.68216,20.5509 H 34.4076 V 16.2602 H 3.68216 Z"/></clipPath><clipPath id="clipPath76" clipPathUnits="userSpaceOnUse"><path id="path74" d="M 8.49373,42.4825 H 32.8107 V 38.1917 H 8.49373 Z"/></clipPath><clipPath id="clipPath98" clipPathUnits="userSpaceOnUse"><path id="path96" d="M 10.4968,32.4693 H 20.5099 V 22.4562 H 10.4968 Z"/></clipPath><clipPath id="clipPath152" clipPathUnits="userSpaceOnUse"><path id="path150" d="M 6.49089,20.5509 H 30.8072 V 16.258 H 6.49089 Z"/></clipPath></defs><g transform="matrix(1.33333 0 0 -1.33333 0 56.643)" id="g10"><g id="g12"><g clip-path="url(#clipPath18)" id="g14"><g id="g20"><g id="g34"><g id="g32" clip-path="url(#clipPath26)" opacity=".4"><g id="g30" transform="translate(6.49 36.475)"><path id="path28" d="m 0,0 v -31.469 h 17.308 l 5.006,-5.006 v 5.006 h 2.003 V 0 Z" fill="#1496e2" fill-opacity="1" fill-rule="nonzero" stroke="none"/></g></g></g></g></g></g><path id="path36" d="M 8.494,34.472 H 28.805 V 7.01 H 8.494 Z" fill="#fff" fill-opacity="1" fill-rule="nonzero" stroke="none"/><g id="g38"><g clip-path="url(#clipPath44)" id="g40"><g id="g46"><g id="g58"><g id="g56" clip-path="url(#clipPath52)" opacity=".4"><path id="path54" d="M 3.682,20.551 H 34.407 V 16.26 H 3.682 Z" fill="#1496e2" fill-opacity="1" fill-rule="nonzero" stroke="none"/></g></g></g><g transform="translate(36.067 17.491)" id="g60"><path id="path62" d="M 0,0 C -0.218,-0.219 -0.499,-0.349 -0.803,-0.37 V 2.197 C -0.499,2.175 -0.217,2.045 0,1.826 0.24,1.583 0.373,1.259 0.373,0.913 0.373,0.567 0.24,0.242 0,0 M 0.609,2.431 C 0.194,2.85 -0.351,3.059 -0.896,3.059 H -1.66 v -4.291 h 0.764 c 0.545,0 1.09,0.209 1.505,0.628 0.415,0.418 0.621,0.967 0.621,1.517 0,0.549 -0.206,1.098 -0.621,1.518" fill="#1496e2" fill-opacity="1" fill-rule="nonzero" stroke="none"/></g><g transform="translate(2.824 17.752)" id="g64"><path id="path66" d="M 0,0 -1.119,0.652 0,1.304 Z m -2.824,0.652 3.682,-2.145 v 4.291 z" fill="#1496e2" fill-opacity="1" fill-rule="nonzero" stroke="none"/></g><path id="path68" d="m 32.178,20.551 h 0.858 V 16.26 h -0.858 z" fill="#1496e2" fill-opacity="1" fill-rule="nonzero" stroke="none"/><g id="g70"><g id="g82"><g id="g80" clip-path="url(#clipPath76)" opacity=".5"><path id="path78" d="M 8.494,42.482 H 32.811 V 38.191 H 8.494 Z" fill="#1496e2" fill-opacity="1" fill-rule="nonzero" stroke="none"/></g></g></g><path id="path84" d="m 29.949,37.333 h -22.6 v 2.575 h 22.6 z M 6.491,36.475 h 24.317 v 4.292 H 6.491 Z" fill="#1496e2" fill-opacity="1" fill-rule="nonzero" stroke="none"/><path id="path86" d="M 9.662,39.05 H 10.52 V 38.192 H 9.662 Z" fill="#1496e2" fill-opacity="1" fill-rule="nonzero" stroke="none"/><path id="path88" d="m 11.378,39.05 h 0.858 v -0.858 h -0.858 z" fill="#1496e2" fill-opacity="1" fill-rule="nonzero" stroke="none"/><path id="path90" d="m 13.095,39.05 h 0.858 v -0.858 h -0.858 z" fill="#1496e2" fill-opacity="1" fill-rule="nonzero" stroke="none"/><g id="g92"><g id="g104"><g id="g102" clip-path="url(#clipPath98)" opacity=".8"><path id="path100" d="M 10.497,32.469 H 20.51 V 22.456 H 10.497 Z" fill="#6d53fe" fill-opacity="1" fill-rule="nonzero" stroke="none"/></g></g></g><g transform="translate(17.838 24.173)" id="g106"><path id="path108" d="m 0,0 h -0.858 v 4.72 c 0,0.268 -0.104,0.519 -0.294,0.708 -0.189,0.19 -0.44,0.294 -0.708,0.294 H -2.813 C -3.081,5.722 -3.332,5.618 -3.521,5.428 -3.71,5.239 -3.814,4.988 -3.814,4.72 V 0 h -0.859 v 4.72 c 0,0.497 0.194,0.965 0.545,1.315 0.351,0.351 0.818,0.545 1.315,0.545 h 0.953 c 0.497,0 0.964,-0.194 1.315,-0.545 C -0.194,5.684 0,5.217 0,4.72 Z" fill="#fff" fill-opacity="1" fill-rule="nonzero" stroke="none"/></g><path id="path110" d="m 13.167,27.892 h 4.672 v -0.858 h -4.672 z" fill="#fff" fill-opacity="1" fill-rule="nonzero" stroke="none"/><path id="path112" d="M 22.894,32.469 H 33.55 V 31.611 H 22.894 Z" fill="#1496e2" fill-opacity="1" fill-rule="nonzero" stroke="none"/><path id="path114" d="M 22.894,30.181 H 33.55 V 29.323 H 22.894 Z" fill="#1496e2" fill-opacity="1" fill-rule="nonzero" stroke="none"/><path id="path116" d="M 22.894,27.892 H 33.55 V 27.034 H 22.894 Z" fill="#1496e2" fill-opacity="1" fill-rule="nonzero" stroke="none"/><path id="path118" d="M 22.894,25.604 H 33.55 V 24.746 H 22.894 Z" fill="#1496e2" fill-opacity="1" fill-rule="nonzero" stroke="none"/><path id="path120" d="m 22.894,23.314 h 4.147 v -0.858 h -4.147 z" fill="#1496e2" fill-opacity="1" fill-rule="nonzero" stroke="none"/><path id="path122" d="M 2.699,14.351 H 15.501 V 13.493 H 2.699 Z" fill="#1496e2" fill-opacity="1" fill-rule="nonzero" stroke="none"/><path id="path124" d="M 2.699,12.063 H 24.967 V 11.206 H 2.699 Z" fill="#1496e2" fill-opacity="1" fill-rule="nonzero" stroke="none"/><path id="path126" d="M 2.699,9.773 H 24.967 V 8.915 H 2.699 Z" fill="#1496e2" fill-opacity="1" fill-rule="nonzero" stroke="none"/><g transform="translate(8.493 39.908)" id="g128"><path id="path130" d="m 0,0 h 21.456 v -1.716 h 0.858 V 0.858 L 0,0.858 Z" fill="#1496e2" fill-opacity="1" fill-rule="nonzero" stroke="none"/></g><path id="path132" d="m 28.805,32.469 h 2.003 v -0.858 h -2.003 z" fill="#1496e2" fill-opacity="1" fill-rule="nonzero" stroke="none"/><path id="path134" d="m 28.805,25.604 h 2.003 v -0.858 h -2.003 z" fill="#1496e2" fill-opacity="1" fill-rule="nonzero" stroke="none"/><path id="path136" d="m 28.805,27.892 h 2.003 v -0.858 h -2.003 z" fill="#1496e2" fill-opacity="1" fill-rule="nonzero" stroke="none"/><path id="path138" d="m 28.805,30.181 h 2.003 v -0.858 h -2.003 z" fill="#1496e2" fill-opacity="1" fill-rule="nonzero" stroke="none"/><path id="path140" d="M 6.491,14.351 H 8.494 V 13.493 H 6.491 Z" fill="#1496e2" fill-opacity="1" fill-rule="nonzero" stroke="none"/><path id="path142" d="M 6.491,12.063 H 8.494 V 11.206 H 6.491 Z" fill="#1496e2" fill-opacity="1" fill-rule="nonzero" stroke="none"/><path id="path144" d="M 6.491,9.773 H 8.494 V 8.915 H 6.491 Z" fill="#1496e2" fill-opacity="1" fill-rule="nonzero" stroke="none"/><g id="g146"><g id="g160"><g id="g158" clip-path="url(#clipPath152)" opacity=".4" fill="#1496e2" fill-opacity="1" fill-rule="nonzero" stroke="none"><path id="path154" d="M 6.491,20.549 H 8.494 V 16.258 H 6.491 Z"/><path id="path156" d="m 28.805,20.551 h 2.003 V 16.26 h -2.003 z"/></g></g></g></g></g></g></svg>