<svg xmlns="http://www.w3.org/2000/svg" viewBox="0 0 55.333 55.899" height="55.899" width="55.333" xml:space="preserve" id="svg2" version="1.1"><defs id="defs6"><clipPath id="clipPath18" clipPathUnits="userSpaceOnUse"><path id="path16" d="M 0,41.924 H 41.5 V 0 H 0 Z"/></clipPath><clipPath id="clipPath26" clipPathUnits="userSpaceOnUse"><path id="path24" d="M 7.21773,34.5954 H 35.4297 V 6.38298 H 7.21773 Z"/></clipPath><clipPath id="clipPath56" clipPathUnits="userSpaceOnUse"><path id="path54" d="m 24.0292,3.39915 h 3.3989 V 0 h -3.3989 z"/></clipPath><clipPath id="clipPath72" clipPathUnits="userSpaceOnUse"><path id="path70" d="M 2.88487,39.8914 H 19.5305 V 13.5771 H 2.88487 Z"/></clipPath><clipPath id="clipPath104" clipPathUnits="userSpaceOnUse"><path id="path102" d="M 30.8266,36.1202 H 41.5 V 25.4468 H 30.8266 Z"/></clipPath><clipPath id="clipPath120" clipPathUnits="userSpaceOnUse"><path id="path118" d="M 16.7287,34.4698 H 34.4155 V 25.7409 H 16.7287 Z"/></clipPath></defs><g transform="matrix(1.33333 0 0 -1.33333 0 55.899)" id="g10"><g id="g12"><g clip-path="url(#clipPath18)" id="g14"><g id="g20"><g id="g34"><g id="g32" clip-path="url(#clipPath26)" opacity=".4"><g id="g30" transform="translate(21.324 12.308)"><path id="path28" d="m 0,0 c -4.519,0 -8.182,3.663 -8.182,8.182 0,4.518 3.663,8.181 8.182,8.181 4.518,0 8.181,-3.663 8.181,-8.181 C 8.181,3.663 4.518,0 0,0 m 0,22.288 c -7.791,0 -14.106,-6.316 -14.106,-14.106 0,-7.791 6.315,-14.107 14.106,-14.107 7.791,0 14.106,6.316 14.106,14.107 0,7.79 -6.315,14.106 -14.106,14.106" fill="#1496e2" fill-opacity="1" fill-rule="nonzero" stroke="none"/></g></g></g></g><g transform="translate(20.482 31.16)" id="g36"><path id="path38" d="m 0,0 -0.068,0.877 c 0.293,0.022 0.59,0.035 0.885,0.035 L 0.819,0.033 C 0.546,0.032 0.271,0.021 0,0 M 2.453,-0.088 C 2.185,-0.047 1.911,-0.017 1.638,0.003 L 1.703,0.88 C 1.998,0.859 2.294,0.826 2.584,0.781 Z m -4.071,-0.163 -0.201,0.855 c 0.286,0.068 0.579,0.125 0.87,0.17 l 0.135,-0.869 c -0.269,-0.042 -0.54,-0.094 -0.804,-0.156 M 4.048,-0.456 C 3.789,-0.375 3.523,-0.302 3.257,-0.241 L 3.456,0.616 C 3.743,0.55 4.031,0.472 4.312,0.383 Z m -7.227,-0.292 -0.33,0.815 c 0.273,0.111 0.554,0.212 0.835,0.302 L -2.408,-0.47 C -2.667,-0.552 -2.926,-0.646 -3.179,-0.748 M 5.57,-1.065 c -0.244,0.12 -0.495,0.232 -0.749,0.334 l 0.327,0.816 c 0.274,-0.109 0.547,-0.231 0.81,-0.362 z m -10.213,-0.413 -0.451,0.755 c 0.252,0.151 0.514,0.294 0.777,0.426 l 0.393,-0.787 C -4.168,-1.206 -4.41,-1.338 -4.643,-1.478 M 6.979,-1.901 C 6.756,-1.745 6.524,-1.595 6.291,-1.456 L 6.739,-0.7 C 6.992,-0.85 7.243,-1.012 7.484,-1.181 Z M -5.98,-2.423 -6.541,-1.746 c 0.228,0.188 0.464,0.37 0.704,0.539 L -5.33,-1.925 C -5.551,-2.082 -5.77,-2.249 -5.98,-2.423 M 8.246,-2.941 C 8.049,-2.753 7.842,-2.57 7.632,-2.397 l 0.559,0.679 c 0.227,-0.187 0.45,-0.386 0.663,-0.589 z m -15.405,-0.62 -0.657,0.584 c 0.195,0.22 0.401,0.435 0.614,0.64 L -6.591,-2.97 C -6.788,-3.159 -6.979,-3.358 -7.159,-3.561 M 9.339,-4.162 c -0.166,0.216 -0.341,0.428 -0.523,0.631 l 0.654,0.587 c 0.197,-0.22 0.388,-0.449 0.567,-0.682 z M -8.152,-4.865 -8.89,-4.387 c 0.16,0.247 0.331,0.491 0.51,0.726 l 0.7,-0.533 c -0.165,-0.217 -0.324,-0.443 -0.472,-0.671 m 18.386,-0.668 c -0.131,0.239 -0.273,0.475 -0.422,0.703 l 0.737,0.481 c 0.161,-0.247 0.315,-0.503 0.456,-0.761 z m -19.168,-0.772 -0.803,0.36 c 0.121,0.27 0.254,0.537 0.394,0.796 l 0.773,-0.42 C -8.7,-5.808 -8.822,-6.056 -8.934,-6.305 m 19.842,-0.718 c -0.093,0.255 -0.197,0.51 -0.309,0.757 l 0.802,0.363 c 0.121,-0.267 0.233,-0.544 0.334,-0.821 z m -20.394,-0.824 -0.848,0.232 c 0.077,0.283 0.167,0.568 0.266,0.845 l 0.828,-0.295 c -0.092,-0.257 -0.175,-0.52 -0.246,-0.782 m 20.831,-0.754 c -0.052,0.267 -0.115,0.535 -0.188,0.798 l 0.847,0.234 c 0.079,-0.284 0.148,-0.575 0.204,-0.863 z m -21.139,-0.854 -0.874,0.099 c 0.033,0.292 0.078,0.587 0.133,0.876 l 0.864,-0.165 c -0.051,-0.268 -0.093,-0.54 -0.123,-0.81 m 21.331,-0.773 c -0.011,0.272 -0.033,0.547 -0.065,0.817 l 0.873,0.103 c 0.034,-0.292 0.059,-0.589 0.07,-0.884 z m -22.27,-0.898 c -0.006,0.15 -0.009,0.302 -0.009,0.455 0,0.144 0.003,0.288 0.008,0.431 l 0.879,-0.032 c -0.005,-0.133 -0.007,-0.266 -0.007,-0.399 0,-0.142 0.002,-0.282 0.008,-0.421 z m 23.087,-0.836 -0.874,0.096 c 0.03,0.271 0.05,0.546 0.06,0.818 l 0.878,-0.031 c -0.01,-0.294 -0.032,-0.591 -0.064,-0.883 m -22.884,-0.925 c -0.056,0.29 -0.102,0.585 -0.136,0.877 l 0.874,0.1 c 0.031,-0.27 0.073,-0.542 0.125,-0.809 z m 22.554,-0.817 -0.849,0.23 c 0.071,0.264 0.132,0.532 0.184,0.799 l 0.863,-0.164 c -0.055,-0.289 -0.121,-0.579 -0.198,-0.865 m -22.084,-0.892 c -0.1,0.277 -0.19,0.562 -0.268,0.846 l 0.848,0.233 c 0.072,-0.262 0.156,-0.525 0.248,-0.781 z m 21.49,-0.779 -0.805,0.358 c 0.112,0.249 0.214,0.505 0.305,0.761 l 0.829,-0.294 c -0.098,-0.278 -0.21,-0.556 -0.329,-0.825 m -20.763,-0.836 c -0.141,0.258 -0.274,0.525 -0.395,0.793 l 0.803,0.361 c 0.111,-0.247 0.234,-0.494 0.364,-0.734 z m 19.919,-0.725 -0.74,0.477 c 0.149,0.229 0.289,0.466 0.418,0.706 l 0.774,-0.418 c -0.139,-0.259 -0.291,-0.516 -0.452,-0.765 m -18.954,-0.761 c -0.179,0.234 -0.351,0.478 -0.511,0.724 l 0.738,0.479 c 0.148,-0.227 0.307,-0.452 0.473,-0.67 z m 17.884,-0.651 -0.659,0.583 c 0.181,0.204 0.355,0.417 0.52,0.635 l 0.701,-0.533 C 9.9,-17.897 9.711,-18.127 9.516,-18.348 m -16.704,-0.671 c -0.212,0.203 -0.419,0.419 -0.615,0.639 l 0.656,0.585 c 0.182,-0.204 0.373,-0.402 0.569,-0.59 z m 15.431,-0.563 -0.563,0.677 c 0.209,0.173 0.414,0.358 0.611,0.547 l 0.612,-0.631 c -0.212,-0.205 -0.434,-0.405 -0.66,-0.593 m -14.064,-0.566 c -0.24,0.169 -0.477,0.351 -0.705,0.538 l 0.56,0.679 c 0.21,-0.174 0.43,-0.342 0.652,-0.498 z m 12.619,-0.459 -0.453,0.754 c 0.234,0.14 0.464,0.291 0.686,0.448 l 0.51,-0.718 C 7.3,-20.292 7.05,-20.456 6.798,-20.607 m -11.095,-0.448 c -0.264,0.131 -0.527,0.274 -0.78,0.425 l 0.451,0.755 c 0.234,-0.139 0.476,-0.271 0.72,-0.392 z m 9.511,-0.346 -0.332,0.815 c 0.252,0.103 0.503,0.216 0.745,0.338 l 0.395,-0.787 C 5.759,-21.167 5.487,-21.29 5.214,-21.401 m -7.866,-0.317 c -0.281,0.089 -0.562,0.189 -0.835,0.3 l 0.329,0.816 c 0.252,-0.103 0.512,-0.195 0.772,-0.277 z m 6.179,-0.224 -0.204,0.856 c 0.265,0.063 0.531,0.137 0.79,0.219 l 0.268,-0.837 c -0.28,-0.089 -0.567,-0.17 -0.854,-0.238 m -4.452,-0.179 c -0.291,0.045 -0.584,0.101 -0.871,0.168 l 0.199,0.857 c 0.265,-0.062 0.536,-0.114 0.805,-0.155 z m 2.701,-0.096 -0.069,0.877 c 0.27,0.021 0.543,0.053 0.812,0.095 l 0.137,-0.869 c -0.29,-0.046 -0.587,-0.081 -0.88,-0.103 m -0.931,-0.037 c -0.298,0 -0.596,0.01 -0.889,0.033 l 0.066,0.877 c 0.272,-0.021 0.547,-0.031 0.82,-0.031 h 0.047 v -0.879 l -0.043,-10e-4 c -0.001,10e-4 -0.001,10e-4 -0.001,10e-4" fill="#1496e2" fill-opacity="1" fill-rule="nonzero" stroke="none"/></g><g transform="translate(22.044 15.718)" id="g40"><path id="path42" d="M 0,0 H -1.444 C -2.139,0 -2.793,0.27 -3.287,0.759 -3.779,1.26 -4.049,1.915 -4.049,2.606 l 0.879,0.002 c 10e-4,-0.461 0.181,-0.897 0.507,-1.229 0.324,-0.32 0.758,-0.5 1.219,-0.5 h 1.445 c 0.458,0 0.893,0.18 1.225,0.506 0.323,0.328 0.503,0.763 0.503,1.222 0,0.459 -0.179,0.892 -0.506,1.218 C 0.894,4.152 0.458,4.333 0,4.333 h -1.444 c -0.696,0 -1.35,0.27 -1.843,0.761 -0.492,0.498 -0.762,1.152 -0.762,1.843 0.001,0.696 0.271,1.351 0.76,1.844 0.499,0.492 1.153,0.762 1.845,0.762 h 1.445 c 0.686,0 1.341,-0.269 1.841,-0.757 0.496,-0.5 0.767,-1.155 0.767,-1.849 H 1.729 C 1.729,7.397 1.55,7.832 1.222,8.161 0.893,8.483 0.457,8.663 0,8.663 h -1.444 c -0.459,0 -0.894,-0.18 -1.223,-0.505 C -2.99,7.833 -3.169,7.399 -3.17,6.937 c 0,-0.459 0.18,-0.893 0.506,-1.223 0.325,-0.323 0.759,-0.503 1.22,-0.503 H 0 c 0.691,0 1.347,-0.27 1.843,-0.763 C 2.337,3.955 2.608,3.302 2.608,2.606 2.608,1.916 2.338,1.261 1.847,0.762 1.345,0.269 0.69,0 0,0" fill="#6d53fe" fill-opacity="1" fill-rule="nonzero" stroke="none"/></g><path id="path44" d="m 20.882,26.554 h 0.879 v -12.13 h -0.879 z" fill="#6d53fe" fill-opacity="1" fill-rule="nonzero" stroke="none"/><g transform="translate(27.346 41.045)" id="g46"><path id="path48" d="m 0,0 c -1.055,0 -1.912,-0.858 -1.912,-1.912 0,-1.054 0.857,-1.911 1.912,-1.911 1.053,0 1.91,0.857 1.91,1.911 C 1.91,-0.858 1.053,0 0,0 m 0,-4.702 c -1.539,0 -2.792,1.251 -2.792,2.79 0,1.539 1.252,2.791 2.792,2.791 1.538,0 2.79,-1.252 2.79,-2.791 0,-1.539 -1.252,-2.79 -2.79,-2.79" fill="#6d53fe" fill-opacity="1" fill-rule="nonzero" stroke="none"/></g><g id="g50"><g id="g64"><g id="g62" clip-path="url(#clipPath56)" opacity=".8"><g id="g60" transform="translate(25.729 2.52)"><path id="path58" d="m 0,0 c -0.452,0 -0.819,-0.368 -0.819,-0.82 0,-0.452 0.367,-0.821 0.819,-0.821 0.452,0 0.82,0.369 0.82,0.821 C 0.82,-0.368 0.452,0 0,0 m 0,-2.52 c -0.937,0 -1.699,0.762 -1.699,1.7 0,0.936 0.762,1.7 1.699,1.7 0.937,0 1.699,-0.763 1.699,-1.7 0,-0.938 -0.762,-1.7 -1.699,-1.7" fill="#6d53fe" fill-opacity="1" fill-rule="nonzero" stroke="none"/></g></g></g></g><g id="g66"><g id="g88"><g id="g86" clip-path="url(#clipPath72)" opacity=".5"><g id="g76" transform="translate(18.12 35.467)"><path id="path74" d="M 0,0 C 0.779,0 1.411,-0.632 1.411,-1.411 1.411,-2.19 0.779,-2.822 0,-2.822 c -0.779,0 -1.411,0.632 -1.411,1.411 C -1.411,-0.632 -0.779,0 0,0" fill="#6d53fe" fill-opacity="1" fill-rule="nonzero" stroke="none"/></g><g id="g80" transform="translate(4.578 14.423)"><path id="path78" d="m 0,0 c 0,-0.467 -0.379,-0.846 -0.847,-0.846 -0.467,0 -0.846,0.379 -0.846,0.846 0,0.468 0.379,0.847 0.846,0.847 C -0.379,0.847 0,0.468 0,0" fill="#6d53fe" fill-opacity="1" fill-rule="nonzero" stroke="none"/></g><g id="g84" transform="translate(8.214 39.891)"><path id="path82" d="M 0,0 C 2.259,0 4.091,-1.832 4.091,-4.091 4.091,-6.35 2.259,-8.182 0,-8.182 c -2.259,0 -4.091,1.832 -4.091,4.091 C -4.091,-1.832 -2.259,0 0,0" fill="#6d53fe" fill-opacity="1" fill-rule="nonzero" stroke="none"/></g></g></g></g><g transform="translate(3.731 11.343)" id="g90"><path id="path92" d="m 0,0 c -1.573,0 -2.852,-1.279 -2.852,-2.852 0,-1.572 1.28,-2.851 2.852,-2.851 1.573,0 2.852,1.279 2.852,2.851 C 2.852,-1.279 1.573,0 0,0 m 0,-6.583 c -2.058,0 -3.731,1.674 -3.731,3.731 0,2.058 1.673,3.732 3.731,3.732 2.058,0 3.731,-1.674 3.731,-3.732 C 3.732,-4.909 2.058,-6.583 0,-6.583" fill="#6d53fe" fill-opacity="1" fill-rule="nonzero" stroke="none"/></g><g transform="translate(12.33 6.383)" id="g94"><path id="path96" d="m 0,0 c 0,-0.729 -0.59,-1.318 -1.319,-1.318 -0.729,0 -1.32,0.589 -1.32,1.318 0,0.729 0.591,1.32 1.32,1.32 C -0.59,1.319 0,0.729 0,0" fill="#6d53fe" fill-opacity="1" fill-rule="nonzero" stroke="none"/></g><g id="g98"><g id="g112"><g id="g110" clip-path="url(#clipPath104)" opacity=".7"><g id="g108" transform="translate(36.163 36.12)"><path id="path106" d="m 0,0 c 2.947,0 5.337,-2.389 5.337,-5.337 0,-2.947 -2.39,-5.336 -5.337,-5.336 -2.947,0 -5.337,2.389 -5.337,5.336 C -5.337,-2.389 -2.947,0 0,0" fill="#6d53fe" fill-opacity="1" fill-rule="nonzero" stroke="none"/></g></g></g></g><g id="g114"><g id="g132"><g id="g130" clip-path="url(#clipPath120)" opacity=".2"><g id="g124" transform="translate(18.12 32.643)"><path id="path122" d="M 0,0 C 0.779,0 1.411,0.632 1.411,1.411 1.411,1.556 1.389,1.695 1.348,1.827 0.402,1.702 -0.514,1.485 -1.391,1.182 -1.281,0.512 -0.701,0 0,0" fill="#6d53fe" fill-opacity="1" fill-rule="nonzero" stroke="none"/></g><g id="g128" transform="translate(34.415 25.74)"><path id="path126" d="M 0,0 C -0.797,1.986 -2.03,3.75 -3.585,5.169 -3.586,5.127 -3.588,5.085 -3.588,5.042 -3.588,2.708 -2.088,0.724 0,0" fill="#6d53fe" fill-opacity="1" fill-rule="nonzero" stroke="none"/></g></g></g></g></g></g></g></svg>