<svg xmlns="http://www.w3.org/2000/svg" viewBox="0 0 44.544 53.841" height="53.841" width="44.544" xml:space="preserve" id="svg2" version="1.1"><defs id="defs6"><clipPath id="clipPath18" clipPathUnits="userSpaceOnUse"><path id="path16" d="M 0,40.381 H 33.408 V 0 H 0 Z"/></clipPath><clipPath id="clipPath26" clipPathUnits="userSpaceOnUse"><path id="path24" d="M 3.08205,30.3254 H 30.326 V 3.08165 H 3.08205 Z"/></clipPath></defs><g transform="matrix(1.33333 0 0 -1.33333 0 53.84)" id="g10"><g id="g12"><g clip-path="url(#clipPath18)" id="g14"><g id="g20"><g id="g82"><g id="g80" clip-path="url(#clipPath26)" opacity=".4"><g id="g30" transform="translate(15.832 30.326)"><path id="path28" d="M 0,0 H 1.743 L 2.905,-2.324 H -1.162 Z" fill="#6d53fe" fill-opacity="1" fill-rule="nonzero" stroke="none"/></g><g id="g34" transform="translate(22.76 28.936)"><path id="path32" d="M 0,0 1.51,-0.872 1.354,-3.466 -2.168,-1.432 Z" fill="#6d53fe" fill-opacity="1" fill-rule="nonzero" stroke="none"/></g><g id="g38" transform="translate(28.065 24.269)"><path id="path36" d="M 0,0 0.872,-1.509 -0.56,-3.678 -2.594,-0.155 Z" fill="#6d53fe" fill-opacity="1" fill-rule="nonzero" stroke="none"/></g><g id="g42" transform="translate(30.326 17.575)"><path id="path40" d="M 0,0 V -1.742 L -2.324,-2.905 V 1.163 Z" fill="#6d53fe" fill-opacity="1" fill-rule="nonzero" stroke="none"/></g><g id="g46" transform="translate(28.936 10.647)"><path id="path44" d="m 0,0 -0.871,-1.509 -2.594,0.155 2.033,3.523 z" fill="#6d53fe" fill-opacity="1" fill-rule="nonzero" stroke="none"/></g><g id="g50" transform="translate(24.269 5.342)"><path id="path48" d="m 0,0 -1.509,-0.871 -2.169,1.432 3.523,2.033 z" fill="#6d53fe" fill-opacity="1" fill-rule="nonzero" stroke="none"/></g><g id="g54" transform="translate(17.575 3.081)"><path id="path52" d="M 0,0 H -1.742 L -2.905,2.324 H 1.163 Z" fill="#6d53fe" fill-opacity="1" fill-rule="nonzero" stroke="none"/></g><g id="g58" transform="translate(10.648 4.471)"><path id="path56" d="M 0,0 -1.509,0.872 -1.354,3.466 2.169,1.432 Z" fill="#6d53fe" fill-opacity="1" fill-rule="nonzero" stroke="none"/></g><g id="g62" transform="translate(5.343 9.138)"><path id="path60" d="M 0,0 -0.871,1.51 0.56,3.678 2.594,0.155 Z" fill="#6d53fe" fill-opacity="1" fill-rule="nonzero" stroke="none"/></g><g id="g66" transform="translate(3.083 15.832)"><path id="path64" d="M 0,0 V 1.743 L 2.324,2.905 2.323,-1.162 Z" fill="#6d53fe" fill-opacity="1" fill-rule="nonzero" stroke="none"/></g><g id="g70" transform="translate(4.472 22.76)"><path id="path68" d="M 0,0 0.871,1.509 3.465,1.354 1.431,-2.168 Z" fill="#6d53fe" fill-opacity="1" fill-rule="nonzero" stroke="none"/></g><g id="g74" transform="translate(9.139 28.064)"><path id="path72" d="M 0,0 1.509,0.872 3.678,-0.56 0.155,-2.593 Z" fill="#6d53fe" fill-opacity="1" fill-rule="nonzero" stroke="none"/></g><g id="g78" transform="translate(16.704 12.346)"><path id="path76" d="m 0,0 c -2.406,0 -4.358,1.951 -4.358,4.357 0,2.407 1.952,4.358 4.358,4.358 2.406,0 4.358,-1.951 4.358,-4.358 C 4.358,1.952 2.406,0 0,0 m 0,15.978 c -6.417,0 -11.621,-5.206 -11.621,-11.621 0,-6.415 5.204,-11.62 11.621,-11.62 6.416,0 11.621,5.205 11.621,11.62 0,6.416 -5.205,11.621 -11.621,11.621" fill="#6d53fe" fill-opacity="1" fill-rule="nonzero" stroke="none"/></g></g></g></g><g transform="translate(16.704 31.955)" id="g84"><path id="path86" d="m 0,0 c -8.41,0 -15.251,-6.842 -15.251,-15.251 0,-8.41 6.841,-15.252 15.251,-15.252 8.41,0 15.251,6.842 15.251,15.252 C 15.251,-6.842 8.41,0 0,0 m 0,-31.955 c -9.211,0 -16.704,7.493 -16.704,16.704 0,9.21 7.493,16.703 16.704,16.703 9.21,0 16.704,-7.493 16.704,-16.703 0,-9.211 -7.494,-16.704 -16.704,-16.704" fill="#1496e2" fill-opacity="1" fill-rule="nonzero" stroke="none"/></g><g transform="translate(29.544 30.57)" id="g88"><path id="path90" d="m 0,0 1.027,-1.027 -2.054,-2.055 -1.028,1.027 z" fill="#1496e2" fill-opacity="1" fill-rule="nonzero" stroke="none"/></g><g transform="translate(29.028 32.11)" id="g92"><path id="path94" d="M 0,0 3.081,-3.082 2.055,-4.109 -1.027,-1.027 Z" fill="#1496e2" fill-opacity="1" fill-rule="nonzero" stroke="none"/></g><g transform="translate(3.866 30.57)" id="g96"><path id="path98" d="M 0,0 2.055,-2.055 1.028,-3.083 -1.027,-1.027 Z" fill="#1496e2" fill-opacity="1" fill-rule="nonzero" stroke="none"/></g><g transform="translate(4.38 32.111)" id="g100"><path id="path102" d="m 0,0 1.027,-1.027 -3.081,-3.081 -1.028,1.026 z" fill="#1496e2" fill-opacity="1" fill-rule="nonzero" stroke="none"/></g><path id="path104" d="M 15.977,37.621 H 17.43 V 32.682 H 15.977 Z" fill="#1496e2" fill-opacity="1" fill-rule="nonzero" stroke="none"/><g transform="translate(13.508 38.928)" id="g106"><path id="path108" d="m 0,0 c -0.349,0 -0.677,-0.136 -0.925,-0.383 -0.246,-0.247 -0.382,-0.575 -0.382,-0.925 0,-0.349 0.136,-0.677 0.383,-0.924 0.247,-0.247 0.575,-0.383 0.924,-0.383 h 6.392 c 0.348,0 0.676,0.136 0.924,0.383 0.246,0.247 0.383,0.576 0.383,0.924 0,0.35 -0.137,0.678 -0.383,0.926 C 7.069,-0.136 6.741,0 6.392,0 Z M 6.392,-4.067 H 0 c -0.737,0 -1.431,0.287 -1.952,0.808 -0.521,0.522 -0.808,1.215 -0.808,1.952 0,0.737 0.287,1.43 0.808,1.952 C -1.43,1.166 -0.737,1.453 0,1.453 h 6.392 c 0.736,0 1.429,-0.287 1.951,-0.808 0.521,-0.522 0.808,-1.215 0.808,-1.952 0,-0.737 -0.287,-1.43 -0.808,-1.952 C 7.821,-3.78 7.129,-4.067 6.392,-4.067" fill="#1496e2" fill-opacity="1" fill-rule="nonzero" stroke="none"/></g><g transform="translate(16.704 17.721)" id="g110"><path id="path112" d="m 0,0 c -0.561,0 -1.017,-0.456 -1.017,-1.017 0,-0.56 0.456,-1.016 1.017,-1.016 0.56,0 1.017,0.456 1.017,1.016 C 1.017,-0.456 0.56,0 0,0 m 0,-3.486 c -1.362,0 -2.469,1.108 -2.469,2.469 0,1.362 1.107,2.469 2.469,2.469 1.362,0 2.469,-1.107 2.469,-2.469 0,-1.361 -1.107,-2.469 -2.469,-2.469" fill="#1496e2" fill-opacity="1" fill-rule="nonzero" stroke="none"/></g><path id="path114" d="m 18.447,17.43 h 5.561 v -1.452 h -5.561 z" fill="#1496e2" fill-opacity="1" fill-rule="nonzero" stroke="none"/><path id="path116" d="M 15.977,26.914 H 17.43 V 25.461 H 15.977 Z" fill="#6d53fe" fill-opacity="1" fill-rule="nonzero" stroke="none"/><g transform="translate(21.18 25.909)" id="g118"><path id="path120" d="M 0,0 1.258,-0.726 0.532,-1.984 -0.726,-1.258 Z" fill="#6d53fe" fill-opacity="1" fill-rule="nonzero" stroke="none"/></g><g transform="translate(25.182 22.438)" id="g122"><path id="path124" d="m 0,0 0.727,-1.258 -1.258,-0.726 -0.727,1.258 z" fill="#6d53fe" fill-opacity="1" fill-rule="nonzero" stroke="none"/></g><path id="path126" d="m 25.46,17.43 h 1.452 V 15.978 H 25.46 Z" fill="#6d53fe" fill-opacity="1" fill-rule="nonzero" stroke="none"/><g transform="translate(24.65 12.955)" id="g128"><path id="path130" d="M 0,0 1.258,-0.727 0.531,-1.984 -0.727,-1.258 Z" fill="#6d53fe" fill-opacity="1" fill-rule="nonzero" stroke="none"/></g><g transform="translate(21.71 9.485)" id="g132"><path id="path134" d="m 0,0 0.726,-1.258 -1.258,-0.725 -0.727,1.257 z" fill="#6d53fe" fill-opacity="1" fill-rule="nonzero" stroke="none"/></g><path id="path136" d="m 15.979,6.494 h 1.453 v 1.452 h -1.453 z" fill="#6d53fe" fill-opacity="1" fill-rule="nonzero" stroke="none"/><g transform="translate(11.7 9.484)" id="g138"><path id="path140" d="M 0,0 1.258,-0.727 0.532,-1.984 -0.726,-1.258 Z" fill="#6d53fe" fill-opacity="1" fill-rule="nonzero" stroke="none"/></g><g transform="translate(8.758 12.954)" id="g142"><path id="path144" d="m 0,0 0.726,-1.258 -1.258,-0.726 -0.726,1.257 z" fill="#6d53fe" fill-opacity="1" fill-rule="nonzero" stroke="none"/></g><path id="path146" d="M 6.496,17.43 H 7.949 V 15.978 H 6.496 Z" fill="#6d53fe" fill-opacity="1" fill-rule="nonzero" stroke="none"/><g transform="translate(8.226 22.438)" id="g148"><path id="path150" d="M 0,0 1.258,-0.727 0.532,-1.984 -0.727,-1.258 Z" fill="#6d53fe" fill-opacity="1" fill-rule="nonzero" stroke="none"/></g><g transform="translate(12.229 25.909)" id="g152"><path id="path154" d="m 0,0 0.726,-1.258 -1.258,-0.726 -0.726,1.258 z" fill="#6d53fe" fill-opacity="1" fill-rule="nonzero" stroke="none"/></g></g></g></g></svg>