<svg xmlns="http://www.w3.org/2000/svg" viewBox="0 0 50.103 54.889" height="54.889" width="50.103" xml:space="preserve" id="svg2" version="1.1"><defs id="defs6"><clipPath id="clipPath18" clipPathUnits="userSpaceOnUse"><path id="path16" d="M 0,41.167 H 37.577 V 0 H 0 Z"/></clipPath><clipPath id="clipPath26" clipPathUnits="userSpaceOnUse"><path id="path24" d="M 12.3384,5.58597 H 22.6213 V 0.445023 H 12.3384 Z"/></clipPath><clipPath id="clipPath42" clipPathUnits="userSpaceOnUse"><path id="path40" d="M 0,41.167 H 37.577 V 0 H 0 Z"/></clipPath><clipPath id="clipPath50" clipPathUnits="userSpaceOnUse"><path id="path48" d="M 0,33.3824 H 34.9603 V 9.7 L 0,9.7 Z"/></clipPath><clipPath id="clipPath72" clipPathUnits="userSpaceOnUse"><path id="path70" d="M 9.17676,33.8647 H 25.7836 V 25.7671 H 9.17676 Z"/></clipPath><clipPath id="clipPath112" clipPathUnits="userSpaceOnUse"><path id="path110" d="m 31.7503,35.9992 h 5.8266 v -5.827 h -5.8266 z"/></clipPath><clipPath id="clipPath140" clipPathUnits="userSpaceOnUse"><path id="path138" d="M 3.74744,37.0615 H 29.3877 V 21.5726 H 3.74744 Z"/></clipPath><clipPath id="clipPath156" clipPathUnits="userSpaceOnUse"><path id="path154" d="m 25.0549,20.9536 h 4.3328 v -2.9712 h -4.3328 z"/></clipPath><clipPath id="clipPath170" clipPathUnits="userSpaceOnUse"><path id="path168" d="m 25.0549,16.7587 h 4.3328 v -2.9714 h -4.3328 z"/></clipPath></defs><g transform="matrix(1.33333 0 0 -1.33333 0 54.889)" id="g10"><g id="g12"><g clip-path="url(#clipPath18)" id="g14"><g id="g20"><g id="g32"><g id="g30" clip-path="url(#clipPath26)" opacity=".4"><path id="path28" d="M 12.338,5.586 H 22.621 V 0.444 H 12.338 Z" fill="#1496e2" fill-opacity="1" fill-rule="nonzero" stroke="none"/></g></g></g></g></g><path id="path34" d="M 9.871,0 H 25.089 V 0.891 H 9.871 Z" fill="#1496e2" fill-opacity="1" fill-rule="nonzero" stroke="none"/><g id="g36"><g clip-path="url(#clipPath42)" id="g38"><g id="g44"><g id="g56"><g id="g54" clip-path="url(#clipPath50)" opacity=".4"><path id="path52" d="M 32.699,11.961 H 2.262 v 19.16 h 30.437 z m 1.901,21.06 c -0.241,0.242 -0.558,0.361 -0.874,0.361 H 1.232 c -0.315,0 -0.631,-0.119 -0.87,-0.361 C 0.12,32.78 0,32.465 0,32.149 V 9.7 h 34.96 v 22.449 c 0,0.316 -0.12,0.631 -0.36,0.872" fill="#1496e2" fill-opacity="1" fill-rule="nonzero" stroke="none"/></g></g></g><g transform="translate(34.07 6.82)" id="g58"><path id="path60" d="m 0,0 c 0,-0.053 -0.013,-0.154 -0.099,-0.24 -0.089,-0.09 -0.192,-0.103 -0.245,-0.103 h -32.494 c -0.052,0 -0.152,0.013 -0.242,0.103 -0.086,0.086 -0.099,0.187 -0.099,0.24 V 1.989 H 0 Z M -34.069,2.88 V 0 c 0,-0.315 0.12,-0.631 0.361,-0.871 0.24,-0.24 0.556,-0.362 0.87,-0.362 h 32.494 c 0.317,0 0.633,0.122 0.874,0.362 0.241,0.24 0.361,0.556 0.361,0.871 v 2.88 z" fill="#1496e2" fill-opacity="1" fill-rule="nonzero" stroke="none"/></g><g transform="translate(28.56 11.961)" id="g62"><path id="path64" d="m 0,0 h -0.892 v 26.619 l -1.327,1.326 -1.771,-1.772 -1.773,1.772 -1.772,-1.772 -1.773,1.772 -1.772,-1.772 -1.772,1.772 -1.772,-1.772 -1.773,1.772 -1.772,-1.772 -1.772,1.772 -1.327,-1.326 V 0 h -0.891 v 26.988 l 2.218,2.218 1.772,-1.773 1.772,1.773 1.773,-1.773 1.772,1.773 1.772,-1.773 1.772,1.773 1.773,-1.773 1.772,1.773 1.773,-1.773 1.771,1.773 L 0,26.988 Z" fill="#1496e2" fill-opacity="1" fill-rule="nonzero" stroke="none"/></g><g id="g66"><g id="g78"><g id="g76" clip-path="url(#clipPath72)" opacity=".5"><path id="path74" d="M 9.177,33.865 H 25.784 V 25.767 H 9.177 Z" fill="#1496e2" fill-opacity="1" fill-rule="nonzero" stroke="none"/></g></g></g><path id="path80" d="m 11.208,27.337 h 0.891 v -1.019 h -0.891 z" fill="#fff" fill-opacity="1" fill-rule="nonzero" stroke="none"/><path id="path82" d="m 13.151,28.838 h 0.891 v -2.519 h -0.891 z" fill="#fff" fill-opacity="1" fill-rule="nonzero" stroke="none"/><path id="path84" d="m 15.093,28.191 h 0.891 V 26.32 h -0.891 z" fill="#fff" fill-opacity="1" fill-rule="nonzero" stroke="none"/><path id="path86" d="m 17.036,30.083 h 0.891 v -3.764 h -0.891 z" fill="#fff" fill-opacity="1" fill-rule="nonzero" stroke="none"/><path id="path88" d="m 18.977,29.554 h 0.891 v -3.235 h -0.891 z" fill="#fff" fill-opacity="1" fill-rule="nonzero" stroke="none"/><path id="path90" d="m 20.919,32.146 h 0.892 v -5.827 h -0.892 z" fill="#fff" fill-opacity="1" fill-rule="nonzero" stroke="none"/><path id="path92" d="m 22.861,31.14 h 0.891 v -4.821 h -0.891 z" fill="#fff" fill-opacity="1" fill-rule="nonzero" stroke="none"/><path id="path94" d="m 11.266,24.552 h 9.711 v -0.891 h -9.711 z" fill="#1496e2" fill-opacity="1" fill-rule="nonzero" stroke="none"/><path id="path96" d="m 11.266,22.454 h 9.711 v -0.891 h -9.711 z" fill="#1496e2" fill-opacity="1" fill-rule="nonzero" stroke="none"/><path id="path98" d="m 11.266,20.359 h 9.711 v -0.891 h -9.711 z" fill="#1496e2" fill-opacity="1" fill-rule="nonzero" stroke="none"/><path id="path100" d="m 11.266,18.261 h 9.711 V 17.37 h -9.711 z" fill="#1496e2" fill-opacity="1" fill-rule="nonzero" stroke="none"/><path id="path102" d="m 11.266,16.163 h 9.711 v -0.891 h -9.711 z" fill="#1496e2" fill-opacity="1" fill-rule="nonzero" stroke="none"/><path id="path104" d="m 11.266,14.067 h 9.711 v -0.892 h -9.711 z" fill="#1496e2" fill-opacity="1" fill-rule="nonzero" stroke="none"/><g id="g106"><g id="g120"><g id="g118" clip-path="url(#clipPath112)" opacity=".8"><g id="g116" transform="translate(37.577 33.085)"><path id="path114" d="m 0,0 c 0,-1.609 -1.304,-2.913 -2.913,-2.913 -1.609,0 -2.913,1.304 -2.913,2.913 0,1.61 1.304,2.914 2.913,2.914 C -1.304,2.914 0,1.61 0,0" fill="#6d53fe" fill-opacity="1" fill-rule="nonzero" stroke="none"/></g></g></g></g><g transform="translate(35.074 33.139)" id="g122"><path id="path124" d="m 0,0 c 0.287,0.046 0.609,0.266 0.609,0.646 0,0.47 -0.406,0.757 -1.014,0.757 -0.47,0 -0.813,-0.185 -1.032,-0.444 l 0.252,-0.308 c 0.204,0.207 0.441,0.312 0.733,0.312 0.313,0 0.57,-0.134 0.57,-0.393 0,-0.258 -0.249,-0.371 -0.583,-0.371 -0.11,0 -0.275,0 -0.322,0.004 v -0.449 c 0.042,0.005 0.204,0.009 0.322,0.009 0.406,0 0.626,-0.122 0.626,-0.402 0,-0.258 -0.216,-0.431 -0.589,-0.431 -0.3,0 -0.595,0.131 -0.777,0.342 l -0.271,-0.326 c 0.195,-0.253 0.567,-0.456 1.066,-0.456 0.656,0 1.066,0.343 1.066,0.824 C 0.656,-0.25 0.271,-0.03 0,0" fill="#fff" fill-opacity="1" fill-rule="nonzero" stroke="none"/></g><path id="path126" d="m 6.401,34.8 h 0.891 v 2.262 H 6.401 Z" fill="#1496e2" fill-opacity="1" fill-rule="nonzero" stroke="none"/><path id="path128" d="m 27.669,13.184 h 0.891 v 2.972 h -0.891 z" fill="#1496e2" fill-opacity="1" fill-rule="nonzero" stroke="none"/><path id="path130" d="M 27.669,17.379 H 28.56 V 20.35 H 27.669 Z" fill="#1496e2" fill-opacity="1" fill-rule="nonzero" stroke="none"/><path id="path132" d="m 27.669,21.573 h 0.891 v 2.971 h -0.891 z" fill="#1496e2" fill-opacity="1" fill-rule="nonzero" stroke="none"/><g id="g134"><g id="g148"><g id="g146" clip-path="url(#clipPath140)" opacity=".5" fill="#6d53fe" fill-opacity="1" fill-rule="nonzero" stroke="none"><path id="path142" d="M 3.747,37.061 H 24.108 V 34.799 H 3.747 Z"/><path id="path144" d="m 25.055,24.543 h 4.333 v -2.971 h -4.333 z"/></g></g></g><g id="g150"><g id="g162"><g id="g160" clip-path="url(#clipPath156)" opacity=".5"><path id="path158" d="m 25.055,20.953 h 4.333 v -2.971 h -4.333 z" fill="#6d53fe" fill-opacity="1" fill-rule="nonzero" stroke="none"/></g></g></g><g id="g164"><g id="g176"><g id="g174" clip-path="url(#clipPath170)" opacity=".5"><path id="path172" d="m 25.055,16.759 h 4.333 v -2.972 h -4.333 z" fill="#6d53fe" fill-opacity="1" fill-rule="nonzero" stroke="none"/></g></g></g></g></g></g></svg>