<svg xmlns="http://www.w3.org/2000/svg" viewBox="0 0 34.933 31.5" height="31.5" width="34.933" xml:space="preserve" id="svg2" version="1.1"><defs id="defs6"><linearGradient id="linearGradient28" spreadMethod="pad" gradientTransform="matrix(2.38468 0 0 -2.38468 6.705 2.032)" gradientUnits="userSpaceOnUse" y2="0" x2="1" y1="0" x1="0"><stop id="stop24" offset="0" stop-opacity="1" stop-color="#6d53fe"/><stop id="stop26" offset="1" stop-opacity="1" stop-color="#1496e2"/></linearGradient><linearGradient id="linearGradient48" spreadMethod="pad" gradientTransform="matrix(11.17815 0 0 -11.17815 2.308 10.394)" gradientUnits="userSpaceOnUse" y2="0" x2="1" y1="0" x1="0"><stop id="stop44" offset="0" stop-opacity="1" stop-color="#6d53fe"/><stop id="stop46" offset="1" stop-opacity="1" stop-color="#1496e2"/></linearGradient><linearGradient id="linearGradient68" spreadMethod="pad" gradientTransform="matrix(15.79487 0 0 -15.79487 0 13)" gradientUnits="userSpaceOnUse" y2="0" x2="1" y1="0" x1="0"><stop id="stop64" offset="0" stop-opacity="1" stop-color="#6d53fe"/><stop id="stop66" offset="1" stop-opacity="1" stop-color="#1496e2"/></linearGradient><linearGradient id="linearGradient88" spreadMethod="pad" gradientTransform="matrix(12.83524 0 0 -12.83524 1.48 13.799)" gradientUnits="userSpaceOnUse" y2="0" x2="1" y1="0" x1="0"><stop id="stop84" offset="0" stop-opacity="1" stop-color="#6d53fe"/><stop id="stop86" offset="1" stop-opacity="1" stop-color="#1496e2"/></linearGradient><linearGradient id="linearGradient108" spreadMethod="pad" gradientTransform="matrix(1.8659 0 0 -1.8659 11.194 18.992)" gradientUnits="userSpaceOnUse" y2="0" x2="1" y1="0" x1="0"><stop id="stop104" offset="0" stop-opacity="1" stop-color="#6d53fe"/><stop id="stop106" offset="1" stop-opacity="1" stop-color="#1496e2"/></linearGradient><linearGradient id="linearGradient128" spreadMethod="pad" gradientTransform="matrix(7.14679 0 0 -7.14679 2.755 18.992)" gradientUnits="userSpaceOnUse" y2="0" x2="1" y1="0" x1="0"><stop id="stop124" offset="0" stop-opacity="1" stop-color="#6d53fe"/><stop id="stop126" offset="1" stop-opacity="1" stop-color="#1496e2"/></linearGradient><linearGradient id="linearGradient148" spreadMethod="pad" gradientTransform="matrix(10.30441 0 0 -10.30441 2.755 17.377)" gradientUnits="userSpaceOnUse" y2="0" x2="1" y1="0" x1="0"><stop id="stop144" offset="0" stop-opacity="1" stop-color="#6d53fe"/><stop id="stop146" offset="1" stop-opacity="1" stop-color="#1496e2"/></linearGradient><clipPath id="clipPath18" clipPathUnits="userSpaceOnUse"><path id="path16" d="M 0,23.625 H 26.2 V 0 H 0 Z"/></clipPath></defs><g transform="matrix(1.33333 0 0 -1.33333 0 31.5)" id="g10"><g id="g12"><g clip-path="url(#clipPath18)" id="g14"><g transform="translate(21.106 .746)" id="g20"><path id="path22" d="m 0,0 c -2.397,0 -4.348,1.95 -4.348,4.348 0,2.397 1.951,4.348 4.348,4.348 2.397,0 4.349,-1.951 4.349,-4.348 C 4.349,1.95 2.397,0 0,0 M -6.869,1.071 -7.027,2.079 C -7.059,2.283 -7.249,2.422 -7.453,2.391 -7.656,2.358 -7.795,2.168 -7.764,1.964 l 0.14,-0.893 h -2.678 l 0.67,4.28 h 1.339 l 0.209,-1.334 c 0.031,-0.204 0.222,-0.343 0.425,-0.311 0.204,0.031 0.343,0.223 0.311,0.426 l -0.246,1.57 0.189,0.7 C -7.2,6.278 -6.97,6.216 -6.739,6.216 c 0.276,0 0.552,0.088 0.782,0.263 l 2.974,2.266 0.262,-0.093 C -4.146,7.748 -5.094,6.157 -5.094,4.348 c 0,-1.247 0.45,-2.391 1.198,-3.277 z m -4.188,0 h -5.04 c 0.016,0.838 0.047,2.816 -0.009,3.604 -0.107,1.514 -0.875,2.604 -1.386,3.171 l 2.549,0.899 2.974,-2.266 c 0.23,-0.175 0.506,-0.263 0.782,-0.263 0.231,0 0.462,0.062 0.667,0.186 l 0.188,-0.699 z m -2.193,8.271 c 0.032,0.012 0.065,0.019 0.099,0.024 0.017,0.003 0.034,0.005 0.05,0.005 0.085,0.004 0.169,-0.013 0.247,-0.051 L -9.72,7.815 -10.889,7.05 c -0.193,-0.126 -0.445,-0.117 -0.628,0.022 l -2.585,1.97 z m 1.382,3.523 c -0.479,0.47 -0.754,1.135 -0.754,1.824 v 0.561 c 0,0.197 -0.152,0.36 -0.348,0.373 -0.336,0.022 -0.598,0.257 -0.598,0.535 v 0.531 c 0,0.119 0.048,0.229 0.129,0.319 0.01,0.012 0.021,0.022 0.031,0.033 0.004,0.003 0.007,0.006 0.011,0.009 0.014,0.014 0.03,0.027 0.046,0.039 l 0.011,0.007 c 0.013,0.009 0.026,0.018 0.04,0.027 0.006,0.003 0.013,0.007 0.019,0.01 0.012,0.007 0.024,0.013 0.036,0.019 0.007,0.004 0.015,0.007 0.021,0.01 0.013,0.006 0.025,0.011 0.038,0.016 0.007,0.003 0.015,0.005 0.022,0.008 0.014,0.004 0.027,0.008 0.041,0.012 0.007,0.002 0.014,0.004 0.021,0.006 0.016,0.004 0.031,0.007 0.046,0.009 0.007,0.002 0.013,0.003 0.019,0.004 0.022,0.004 0.044,0.006 0.067,0.008 0.004,0 0.007,10e-4 0.011,10e-4 0.19,0.018 0.337,0.178 0.337,0.371 v 0.307 c 0.119,0.087 0.3,0.128 0.562,0.143 0.253,0.015 0.581,0.005 1.004,-0.009 0.035,-0.002 0.07,-0.003 0.106,-0.004 0.517,-0.018 1.15,-0.037 1.906,-0.008 0.061,0.002 0.12,0.006 0.179,0.01 l 0.05,0.005 c 0.044,0.003 0.088,0.007 0.131,0.012 0.016,0.002 0.032,0.003 0.048,0.005 0.05,0.006 0.099,0.013 0.147,0.02 0.007,0.001 0.014,0.002 0.02,0.003 0.121,0.019 0.237,0.043 0.348,0.07 0.001,0 0.001,0 0.002,0 1.098,0.271 1.698,0.925 2.025,1.581 0.129,-0.149 0.272,-0.386 0.367,-0.761 0.003,-0.013 0.007,-0.027 0.01,-0.04 0.003,-0.014 0.006,-0.027 0.01,-0.04 0.006,-0.028 0.012,-0.056 0.017,-0.085 0.001,-0.004 0.002,-0.009 0.003,-0.014 0.033,-0.175 0.055,-0.366 0.065,-0.57 V 18.22 c 0.002,-0.036 0.003,-0.073 0.004,-0.11 v -0.026 c 0.001,-0.039 0.002,-0.078 0.002,-0.117 0,-0.024 10e-4,-0.047 0.003,-0.07 l 0.003,-0.023 c 0.002,-0.015 0.003,-0.029 0.006,-0.043 0,-0.002 0,-0.005 0,-0.007 0.001,-0.008 0.003,-0.015 0.005,-0.022 0.003,-0.012 0.005,-0.025 0.009,-0.036 0.003,-0.012 0.006,-0.023 0.01,-0.034 0.003,-0.009 0.006,-0.019 0.01,-0.028 0.004,-0.012 0.008,-0.024 0.014,-0.037 l 0.009,-0.02 c 0.007,-0.014 0.014,-0.027 0.021,-0.04 0.002,-0.003 0.004,-0.006 0.005,-0.01 0.007,-0.012 0.014,-0.025 0.023,-0.036 0.024,-0.038 0.054,-0.074 0.086,-0.107 0.012,-0.011 0.024,-0.021 0.036,-0.032 0.004,-0.003 0.007,-0.006 0.011,-0.009 0.014,-0.012 0.029,-0.024 0.045,-0.036 0.002,-10e-4 0.004,-0.002 0.006,-0.003 0.016,-0.012 0.033,-0.025 0.051,-0.036 0.074,-0.044 0.158,-0.078 0.251,-0.103 l 10e-4,-10e-4 c 0.004,-0.001 0.008,-0.002 0.011,-0.003 0.005,-0.001 0.01,-0.001 0.015,-0.002 0.003,0 0.006,-10e-4 0.01,-0.002 0.009,-0.001 0.018,-0.002 0.028,-0.003 0.001,0 0.001,-0.001 0.002,-0.001 0.021,-10e-4 0.042,-0.004 0.061,-0.008 0.004,0 0.008,0 0.011,-0.001 0.021,-0.004 0.042,-0.008 0.062,-0.014 0.009,-0.002 0.017,-0.005 0.026,-0.008 0.012,-0.003 0.023,-0.007 0.035,-0.011 0.01,-0.003 0.02,-0.008 0.029,-0.012 0.009,-0.003 0.019,-0.007 0.028,-0.011 0.009,-0.005 0.02,-0.01 0.03,-0.015 0.008,-0.004 0.016,-0.009 0.024,-0.014 0.009,-0.005 0.019,-0.011 0.029,-0.017 0.008,-0.006 0.017,-0.012 0.026,-0.018 0.013,-0.009 0.024,-0.018 0.035,-0.028 0.011,-0.008 0.021,-0.016 0.029,-0.025 0.006,-0.006 0.012,-0.011 0.017,-0.017 0.009,-0.009 0.018,-0.018 0.025,-0.027 0.076,-0.088 0.121,-0.194 0.121,-0.308 v -0.531 c 0,-0.272 -0.257,-0.506 -0.584,-0.533 -0.194,-0.017 -0.342,-0.178 -0.342,-0.372 v -0.564 c 0,-0.689 -0.276,-1.354 -0.755,-1.823 L -6.885,12.035 C -6.951,11.97 -7.022,11.911 -7.096,11.857 -7.097,11.856 -7.099,11.855 -7.1,11.854 c -0.077,-0.056 -0.158,-0.105 -0.242,-0.148 0,0 -0.001,0 -0.001,-10e-4 -0.081,-0.041 -0.164,-0.076 -0.249,-0.104 -0.006,-0.001 -0.011,-0.003 -0.016,-0.005 -0.04,-0.013 -0.081,-0.025 -0.122,-0.035 -0.006,-10e-4 -0.011,-0.002 -0.016,-0.003 -0.037,-0.009 -0.075,-0.016 -0.113,-0.023 -0.007,-10e-4 -0.013,-0.002 -0.019,-0.003 -0.04,-0.007 -0.08,-0.011 -0.121,-0.015 -0.009,0 -0.018,-10e-4 -0.027,-0.002 -0.041,-0.003 -0.083,-0.005 -0.125,-0.005 h -1.603 c -0.027,0 -0.055,10e-4 -0.081,0.002 -0.009,10e-4 -0.017,10e-4 -0.025,0.002 -0.019,0.001 -0.038,0.003 -0.057,0.004 -0.009,10e-4 -0.018,0.002 -0.027,0.003 -0.019,0.002 -0.038,0.004 -0.057,0.007 -0.008,10e-4 -0.016,0.002 -0.024,0.003 -0.023,0.004 -0.045,0.008 -0.068,0.012 -0.004,0.001 -0.008,0.001 -0.011,0.002 -0.027,0.006 -0.054,0.012 -0.08,0.018 -0.006,10e-4 -0.012,0.003 -0.018,0.005 l -0.058,0.016 c -0.01,0.003 -0.02,0.006 -0.03,0.009 -0.015,0.005 -0.03,0.01 -0.045,0.015 l -0.034,0.012 c -0.012,0.005 -0.026,0.01 -0.038,0.015 -0.013,0.005 -0.026,0.01 -0.038,0.015 -0.008,0.004 -0.016,0.008 -0.025,0.012 -0.035,0.015 -0.071,0.032 -0.105,0.05 -0.001,0 -0.002,0 -0.003,10e-4 -0.018,0.01 -0.037,0.02 -0.055,0.03 -0.004,0.002 -0.007,0.005 -0.011,0.007 -0.019,0.01 -0.037,0.021 -0.055,0.032 -0.003,0.002 -0.006,0.004 -0.009,0.006 -0.039,0.025 -0.077,0.051 -0.115,0.079 l -0.002,10e-4 c -0.068,0.051 -0.134,0.107 -0.196,0.167 z m -1.484,6.486 c 0,1.534 1.248,2.782 2.783,2.782 h 3.233 c 1.534,0 2.782,-1.248 2.782,-2.782 v -1.448 c -0.092,0.029 -0.189,0.049 -0.291,0.06 -0.004,10e-4 -0.008,0.003 -0.01,0.004 -0.006,0.002 -0.012,0.005 -0.016,0.006 v 0.001 c 0,0.059 -10e-4,0.117 -0.002,0.174 -10e-4,0.017 -0.002,0.033 -0.002,0.049 -0.002,0.041 -0.004,0.082 -0.006,0.122 -10e-4,0.017 -0.002,0.033 -0.003,0.049 -0.003,0.041 -0.006,0.081 -0.01,0.121 -10e-4,0.012 -0.002,0.025 -0.003,0.037 -0.004,0.045 -0.009,0.089 -0.015,0.133 0,0.006 -0.001,0.012 -0.002,0.018 -0.068,0.531 -0.218,0.974 -0.446,1.323 -0.007,0.01 -0.014,0.02 -0.021,0.029 -0.013,0.018 -0.024,0.035 -0.037,0.053 -0.018,0.023 -0.035,0.047 -0.053,0.069 -0.013,0.018 -0.028,0.035 -0.042,0.051 -0.012,0.015 -0.025,0.03 -0.039,0.045 -0.02,0.023 -0.04,0.044 -0.06,0.065 -0.012,0.011 -0.023,0.022 -0.034,0.033 -0.024,0.022 -0.047,0.043 -0.07,0.063 -0.006,0.005 -0.012,0.01 -0.017,0.015 -0.005,0.004 -0.01,0.008 -0.015,0.012 -0.024,0.019 -0.048,0.037 -0.071,0.054 -0.006,0.004 -0.011,0.009 -0.017,0.012 -0.016,0.012 -0.032,0.023 -0.048,0.033 -0.029,0.019 -0.058,0.036 -0.088,0.052 -0.007,0.004 -0.012,0.007 -0.018,0.011 -0.009,0.005 -0.018,0.009 -0.027,0.013 -0.015,0.008 -0.03,0.015 -0.045,0.022 -0.002,10e-4 -0.005,0.002 -0.008,0.004 -0.02,0.009 -0.037,0.016 -0.053,0.022 -0.003,10e-4 -0.005,0.002 -0.007,0.002 -0.01,0.004 -0.019,0.007 -0.028,0.009 -0.003,0.001 -0.007,0.002 -0.01,0.003 -0.009,0.002 -0.018,0.004 -0.026,0.006 -0.004,0 -0.007,0 -0.01,10e-4 -0.009,0.001 -0.018,0.002 -0.026,0.003 h -0.012 c -0.008,0.001 -0.017,0.001 -0.025,0.001 -0.004,0 -0.008,-0.001 -0.012,-0.001 -0.008,0 -0.016,-10e-4 -0.024,-0.002 -0.005,0 -0.009,-0.001 -0.013,-0.002 -0.007,-0.001 -0.014,-0.002 -0.022,-0.004 -0.005,-0.001 -0.01,-0.002 -0.015,-0.004 -0.005,-0.001 -0.012,-0.003 -0.019,-0.005 -0.005,-0.002 -0.01,-0.003 -0.015,-0.005 -0.007,-0.003 -0.012,-0.005 -0.019,-0.008 -0.003,-0.002 -0.007,-0.003 -0.011,-0.005 -0.001,0 -0.002,-10e-4 -0.003,-10e-4 -0.007,-0.004 -0.014,-0.008 -0.02,-0.012 -0.004,-0.002 -0.008,-0.003 -0.011,-0.006 -0.011,-0.005 -0.021,-0.012 -0.03,-0.02 -0.001,-0.001 -0.002,-0.002 -0.004,-0.003 -0.008,-0.006 -0.016,-0.012 -0.024,-0.02 -0.003,-0.002 -0.005,-0.004 -0.008,-0.007 -0.005,-0.006 -0.011,-0.012 -0.017,-0.018 L -6.543,20.55 C -6.548,20.544 -6.553,20.538 -6.557,20.532 -6.561,20.528 -6.562,20.524 -6.565,20.52 -6.569,20.514 -6.573,20.508 -6.577,20.502 -6.58,20.498 -6.583,20.493 -6.585,20.488 -6.587,20.484 -6.589,20.48 -6.591,20.477 -6.592,20.475 -6.593,20.474 -6.594,20.472 -6.6,20.458 -6.606,20.444 -6.611,20.429 V 20.428 C -6.623,20.393 -6.636,20.357 -6.649,20.321 L -6.654,20.31 C -6.662,20.289 -6.67,20.267 -6.679,20.247 -6.683,20.238 -6.686,20.231 -6.688,20.223 -6.695,20.207 -6.702,20.191 -6.709,20.176 -6.721,20.149 -6.733,20.123 -6.746,20.097 -6.751,20.087 -6.755,20.077 -6.76,20.067 -6.765,20.059 -6.769,20.05 -6.773,20.042 -6.784,20.021 -6.795,20 -6.807,19.979 -6.809,19.976 -6.81,19.973 -6.812,19.97 c -0.004,-0.009 -0.01,-0.018 -0.015,-0.027 -0.015,-0.026 -0.03,-0.051 -0.046,-0.077 -0.008,-0.012 -0.017,-0.025 -0.024,-0.037 -0.014,-0.021 -0.028,-0.04 -0.041,-0.06 -0.02,-0.028 -0.04,-0.056 -0.061,-0.082 -0.007,-0.01 -0.015,-0.02 -0.022,-0.03 C -7.039,19.636 -7.056,19.615 -7.074,19.594 -7.077,19.59 -7.08,19.587 -7.083,19.584 -7.3,19.336 -7.571,19.145 -7.894,19.009 -7.902,19.006 -7.909,19.003 -7.917,19 c -0.021,-0.009 -0.044,-0.018 -0.066,-0.026 -0.016,-0.006 -0.031,-0.011 -0.046,-0.017 -0.02,-0.007 -0.04,-0.014 -0.06,-0.02 -0.025,-0.009 -0.051,-0.017 -0.078,-0.024 -0.019,-0.006 -0.039,-0.012 -0.058,-0.017 -0.03,-0.008 -0.059,-0.016 -0.089,-0.023 -0.015,-0.004 -0.03,-0.008 -0.045,-0.011 -0.028,-0.007 -0.057,-0.013 -0.086,-0.018 -0.013,-0.003 -0.027,-0.006 -0.04,-0.009 -0.043,-0.007 -0.085,-0.015 -0.129,-0.022 -10e-4,0 -0.002,0 -0.003,0 -0.043,-0.006 -0.087,-0.012 -0.131,-0.017 -0.013,-0.002 -0.026,-0.003 -0.04,-0.004 -0.034,-0.003 -0.068,-0.007 -0.102,-0.01 l -0.041,-0.003 c -0.047,-0.003 -0.094,-0.006 -0.142,-0.008 -0.732,-0.028 -1.351,-0.009 -1.857,0.008 -0.034,0.001 -0.067,0.003 -0.1,0.004 -1.095,0.038 -1.82,0.064 -2.258,-0.495 -0.012,-0.016 -0.023,-0.032 -0.032,-0.048 -10e-4,-0.003 -0.002,-0.005 -0.003,-0.007 -0.009,-0.016 -0.016,-0.032 -0.022,-0.049 -10e-4,-0.003 -0.002,-0.006 -0.003,-0.009 -0.002,-0.003 -0.003,-0.007 -0.004,-0.009 z m 2.157,-9.999 c 0.318,0.153 0.523,0.474 0.523,0.836 v 0.75 c 0.009,-0.004 0.019,-0.007 0.027,-0.011 0.022,-0.008 0.044,-0.016 0.066,-0.024 0.018,-0.006 0.036,-0.011 0.054,-0.017 0.019,-0.007 0.038,-0.012 0.058,-0.018 0.02,-0.007 0.041,-0.012 0.062,-0.017 0.017,-0.005 0.034,-0.01 0.052,-0.014 0.023,-0.006 0.046,-0.011 0.07,-0.016 l 0.047,-0.01 c 0.025,-0.005 0.05,-0.009 0.075,-0.013 0.015,-0.002 0.029,-0.005 0.043,-0.007 0.027,-0.004 0.054,-0.007 0.08,-0.01 0.014,-0.002 0.027,-0.003 0.04,-0.005 0.029,-0.003 0.058,-0.004 0.087,-0.006 0.012,0 0.023,-0.002 0.035,-0.002 0.041,-0.002 0.081,-0.003 0.122,-0.003 h 1.603 c 0.04,0 0.08,10e-4 0.12,0.003 0.014,0 0.027,0.002 0.04,0.003 0.027,10e-4 0.054,0.002 0.08,0.005 0.016,0.002 0.032,0.004 0.048,0.006 0.024,0.002 0.047,0.005 0.07,0.009 0.018,0.002 0.035,0.005 0.053,0.008 0.021,0.003 0.042,0.007 0.063,0.011 0.02,0.003 0.039,0.008 0.058,0.012 0.019,0.004 0.038,0.008 0.057,0.012 0.02,0.006 0.041,0.011 0.062,0.017 0.017,0.004 0.033,0.008 0.049,0.013 0.023,0.007 0.046,0.014 0.068,0.021 0.014,0.004 0.028,0.009 0.041,0.013 0.025,0.009 0.05,0.018 0.074,0.027 0.005,10e-4 0.01,0.003 0.014,0.005 v -0.742 c 0,-0.362 0.205,-0.683 0.523,-0.836 L -8.38,8.56 -8.963,8.279 -9.302,8.442 Z M -8.963,7.42 -8.063,6.83 -8.26,6.097 h -1.406 l -0.197,0.733 0.269,0.177 z m 3.891,1.9 c 0.117,0.057 0.253,0.066 0.377,0.028 0.007,-0.002 0.013,-0.003 0.019,-0.006 l 0.852,-0.3 -2.585,-1.97 C -6.592,6.933 -6.844,6.924 -7.036,7.05 l -1.17,0.765 z m 1.951,-8.995 v 0 c 0.863,-0.671 1.946,-1.071 3.121,-1.071 2.809,0 5.094,2.285 5.094,5.094 0,2.808 -2.285,5.093 -5.094,5.093 -0.631,0 -1.234,-0.115 -1.793,-0.326 l -2.634,0.93 c -0.015,0.006 -0.03,0.011 -0.046,0.016 -0.305,0.094 -0.631,0.071 -0.922,-0.068 l -0.361,-0.174 -0.621,0.192 c -0.078,0.024 -0.131,0.095 -0.131,0.177 v 1.183 c 0.05,0.042 0.099,0.086 0.146,0.131 l 0.846,0.831 c 0.622,0.609 0.979,1.468 0.979,2.356 v 0.261 c 0.546,0.176 0.926,0.651 0.926,1.208 v 0.531 c 0,0.242 -0.072,0.468 -0.197,0.661 v 2.001 c 0,1.945 -1.583,3.528 -3.528,3.528 h -3.233 c -1.946,0 -3.528,-1.583 -3.528,-3.528 v -1.978 c -0.137,-0.199 -0.217,-0.434 -0.217,-0.684 v -0.531 c 0,-0.558 0.395,-1.041 0.946,-1.214 v -0.255 c 0,-0.888 0.357,-1.747 0.978,-2.356 l 0.848,-0.831 c 0.04,-0.039 0.082,-0.077 0.125,-0.113 v -1.201 c 0,-0.082 -0.053,-0.153 -0.132,-0.177 l -0.621,-0.192 -0.361,0.174 c -0.305,0.146 -0.648,0.165 -0.968,0.052 L -18.305,8.35 c -1.47,-0.519 -2.484,-1.86 -2.582,-3.414 L -20.91,4.577 c -0.013,-0.205 0.143,-0.382 0.348,-0.395 0.206,-0.013 0.383,0.142 0.396,0.348 l 0.023,0.358 c 0.075,1.183 0.807,2.213 1.884,2.678 0.372,-0.36 1.3,-1.402 1.409,-2.944 0.053,-0.753 0.022,-2.731 0.007,-3.551 h -3.125 c -0.013,0 -0.027,0 -0.04,0.002 -0.095,0.009 -0.18,0.052 -0.246,0.122 -0.066,0.07 -0.103,0.159 -0.106,0.253 -0.001,0.013 0,0.027 0,0.04 l 0.064,1.004 c 0.013,0.205 -0.142,0.383 -0.348,0.396 -0.205,0.013 -0.383,-0.143 -0.396,-0.349 l -0.064,-1.003 c -0.02,-0.312 0.092,-0.623 0.306,-0.851 0.215,-0.229 0.517,-0.36 0.83,-0.36 h 16.847" fill="inherit" fill-opacity="1" fill-rule="nonzero" stroke="none"/></g><g transform="translate(24.39 5.559)" id="g24"><path id="path26" d="m 0,0 h -0.504 c -0.206,0 -0.373,-0.167 -0.373,-0.373 0,-0.206 0.167,-0.373 0.373,-0.373 H 0 c 0.206,0 0.373,0.167 0.373,0.373 C 0.373,-0.167 0.206,0 0,0" fill="inherit" fill-opacity="1" fill-rule="nonzero" stroke="none"/></g><g transform="translate(18.9 5.186)" id="g28"><path id="path30" d="m 0,0 c 0,0.206 -0.167,0.373 -0.373,0.373 h -0.504 c -0.205,0 -0.372,-0.167 -0.372,-0.373 0,-0.206 0.166,-0.372 0.372,-0.372 h 0.504 C -0.167,-0.372 0,-0.206 0,0" fill="inherit" fill-opacity="1" fill-rule="nonzero" stroke="none"/></g><g transform="translate(23.365 3.555)" id="g32"><path id="path34" d="m 0,0 c -0.146,0.146 -0.382,0.146 -0.527,0 -0.146,-0.146 -0.146,-0.382 0,-0.527 l 0.356,-0.357 c 0.072,-0.072 0.168,-0.109 0.264,-0.109 0.095,0 0.19,0.037 0.263,0.109 0.146,0.146 0.146,0.382 0,0.528 z" fill="inherit" fill-opacity="1" fill-rule="nonzero" stroke="none"/></g><g transform="translate(19.048 6.817)" id="g36"><path id="path38" d="m 0,0 c 0.073,-0.073 0.168,-0.109 0.264,-0.109 0.095,0 0.19,0.036 0.263,0.109 0.146,0.146 0.146,0.382 0,0.527 L 0.171,0.884 c -0.146,0.145 -0.382,0.145 -0.527,0 -0.146,-0.147 -0.146,-0.382 0,-0.528 z" fill="inherit" fill-opacity="1" fill-rule="nonzero" stroke="none"/></g><g transform="translate(23.101 6.708)" id="g40"><path id="path42" d="M 0,0 C 0.096,0 0.191,0.036 0.264,0.109 L 0.62,0.466 c 0.146,0.145 0.146,0.381 0,0.527 -0.145,0.146 -0.382,0.146 -0.527,0 L -0.264,0.637 C -0.409,0.491 -0.409,0.255 -0.264,0.109 -0.19,0.036 -0.096,0 0,0" fill="inherit" fill-opacity="1" fill-rule="nonzero" stroke="none"/></g><g transform="translate(19.048 3.555)" id="g44"><path id="path46" d="m 0,0 -0.356,-0.356 c -0.146,-0.146 -0.146,-0.382 0,-0.528 0.073,-0.072 0.169,-0.109 0.263,-0.109 0.096,0 0.192,0.037 0.264,0.109 l 0.356,0.357 C 0.673,-0.382 0.673,-0.146 0.527,0 0.382,0.146 0.146,0.146 0,0" fill="inherit" fill-opacity="1" fill-rule="nonzero" stroke="none"/></g><g transform="translate(21.207 7.493)" id="g48"><path id="path50" d="M 0,0 C 0.205,0 0.372,0.167 0.372,0.373 V 0.877 C 0.372,1.082 0.206,1.249 0,1.249 -0.206,1.249 -0.373,1.082 -0.373,0.877 V 0.373 C -0.373,0.167 -0.206,0 0,0" fill="inherit" fill-opacity="1" fill-rule="nonzero" stroke="none"/></g><g transform="translate(22.027 4.41)" id="g52"><path id="path54" d="m 0,0 c -0.258,-0.291 -0.42,-0.65 -0.467,-1.031 h -0.707 c -0.047,0.382 -0.208,0.74 -0.464,1.027 -0.178,0.199 -0.277,0.456 -0.279,0.724 -0.003,0.603 0.484,1.098 1.088,1.102 h 0.009 c 0.291,0 0.565,-0.112 0.771,-0.318 C 0.16,1.297 0.275,1.021 0.275,0.727 0.275,0.458 0.178,0.2 0,0 m -0.62,-2.225 h -0.401 v 0.447 H -0.62 Z M 0.477,2.033 C 0.126,2.382 -0.338,2.57 -0.834,2.568 -1.849,2.562 -2.669,1.729 -2.662,0.715 c 0.002,-0.449 0.169,-0.881 0.468,-1.216 0.186,-0.208 0.289,-0.479 0.289,-0.765 v -0.071 c 0,-0.126 0.052,-0.24 0.138,-0.32 v -0.695 c 0,-0.34 0.278,-0.619 0.619,-0.619 h 0.655 c 0.341,0 0.618,0.279 0.618,0.619 v 0.695 c 0.086,0.08 0.14,0.194 0.14,0.32 v 0.071 c 0,0.284 0.103,0.558 0.293,0.771 0.298,0.337 0.463,0.77 0.463,1.222 0,0.494 -0.193,0.958 -0.544,1.306" fill="inherit" fill-opacity="1" fill-rule="nonzero" stroke="none"/></g></g></g></g></svg>