<svg xmlns="http://www.w3.org/2000/svg" viewBox="0 0 21.06 34.667" height="34.667" width="21.06" xml:space="preserve" id="svg2" version="1.1"><defs id="defs6"><linearGradient id="linearGradient28" spreadMethod="pad" gradientTransform="matrix(2.38468 0 0 -2.38468 6.705 2.032)" gradientUnits="userSpaceOnUse" y2="0" x2="1" y1="0" x1="0"><stop id="stop24" offset="0" stop-opacity="1" stop-color="#6d53fe"/><stop id="stop26" offset="1" stop-opacity="1" stop-color="#1496e2"/></linearGradient><linearGradient id="linearGradient48" spreadMethod="pad" gradientTransform="matrix(11.17815 0 0 -11.17815 2.308 10.394)" gradientUnits="userSpaceOnUse" y2="0" x2="1" y1="0" x1="0"><stop id="stop44" offset="0" stop-opacity="1" stop-color="#6d53fe"/><stop id="stop46" offset="1" stop-opacity="1" stop-color="#1496e2"/></linearGradient><linearGradient id="linearGradient68" spreadMethod="pad" gradientTransform="matrix(15.79487 0 0 -15.79487 0 13)" gradientUnits="userSpaceOnUse" y2="0" x2="1" y1="0" x1="0"><stop id="stop64" offset="0" stop-opacity="1" stop-color="#6d53fe"/><stop id="stop66" offset="1" stop-opacity="1" stop-color="#1496e2"/></linearGradient><linearGradient id="linearGradient88" spreadMethod="pad" gradientTransform="matrix(12.83524 0 0 -12.83524 1.48 13.799)" gradientUnits="userSpaceOnUse" y2="0" x2="1" y1="0" x1="0"><stop id="stop84" offset="0" stop-opacity="1" stop-color="#6d53fe"/><stop id="stop86" offset="1" stop-opacity="1" stop-color="#1496e2"/></linearGradient><linearGradient id="linearGradient108" spreadMethod="pad" gradientTransform="matrix(1.8659 0 0 -1.8659 11.194 18.992)" gradientUnits="userSpaceOnUse" y2="0" x2="1" y1="0" x1="0"><stop id="stop104" offset="0" stop-opacity="1" stop-color="#6d53fe"/><stop id="stop106" offset="1" stop-opacity="1" stop-color="#1496e2"/></linearGradient><linearGradient id="linearGradient128" spreadMethod="pad" gradientTransform="matrix(7.14679 0 0 -7.14679 2.755 18.992)" gradientUnits="userSpaceOnUse" y2="0" x2="1" y1="0" x1="0"><stop id="stop124" offset="0" stop-opacity="1" stop-color="#6d53fe"/><stop id="stop126" offset="1" stop-opacity="1" stop-color="#1496e2"/></linearGradient><linearGradient id="linearGradient148" spreadMethod="pad" gradientTransform="matrix(10.30441 0 0 -10.30441 2.755 17.377)" gradientUnits="userSpaceOnUse" y2="0" x2="1" y1="0" x1="0"><stop id="stop144" offset="0" stop-opacity="1" stop-color="#6d53fe"/><stop id="stop146" offset="1" stop-opacity="1" stop-color="#1496e2"/></linearGradient></defs><g transform="matrix(1.33333 0 0 -1.33333 0 34.667)" id="g10"><g id="g12"><g id="g14"><g id="g20"><g id="g22"><path id="path30" d="M 6.705,2.032 C 6.705,1.375 7.24,0.84 7.898,0.84 v 0 c 0.657,0 1.192,0.535 1.192,1.192 v 0 c 0,0.657 -0.535,1.193 -1.192,1.193 v 0 C 7.24,3.225 6.705,2.689 6.705,2.032 m 0.745,0 c 0,0.248 0.201,0.448 0.448,0.448 v 0 c 0.246,0 0.447,-0.2 0.447,-0.448 v 0 C 8.345,1.786 8.144,1.585 7.898,1.585 v 0 C 7.651,1.585 7.45,1.786 7.45,2.032" fill="inherit" stroke="none"/></g></g></g></g><g id="g32"><g id="g34"><g id="g40"><g id="g42"><path id="path50" d="m 11.154,15.08 c -0.314,0 -0.569,-0.255 -0.569,-0.568 v 0 -6.765 H 10.27 v 3.412 c 0,0.313 -0.256,0.569 -0.569,0.569 v 0 H 8.624 c -0.314,0 -0.569,-0.256 -0.569,-0.569 v 0 -3.412 H 7.74 v 5.819 c 0,0.313 -0.256,0.568 -0.569,0.568 v 0 H 6.094 c -0.314,0 -0.569,-0.255 -0.569,-0.568 v 0 -5.819 H 5.21 V 9.87 c 0,0.314 -0.255,0.569 -0.569,0.569 v 0 H 3.564 c -0.313,0 -0.569,-0.255 -0.569,-0.569 v 0 -2.123 H 2.829 c -0.287,0 -0.52,-0.233 -0.52,-0.52 v 0 -1 c 0,-0.287 0.233,-0.52 0.52,-0.52 v 0 h 10.136 c 0.288,0 0.521,0.233 0.521,0.52 v 0 1 c 0,0.287 -0.233,0.52 -0.521,0.52 v 0 H 12.8 v 6.765 c 0,0.313 -0.255,0.568 -0.569,0.568 v 0 z m 0.176,-0.745 h 0.725 V 7.747 H 11.33 Z M 6.27,13.388 H 6.995 V 7.747 H 6.27 Z M 8.8,10.983 H 9.525 V 7.747 H 8.8 Z M 3.74,9.694 H 4.465 V 7.747 H 3.74 Z M 3.054,7.002 h 9.688 V 6.452 H 3.054 Z" fill="inherit" stroke="none"/></g></g></g></g><g id="g52"><g id="g54"><g id="g60"><g id="g62"><path id="path70" d="M 1.186,26 C 0.532,26 0,25.468 0,24.814 v 0 V 7.097 C 0,6.892 0.167,6.726 0.373,6.726 v 0 c 0.206,0 0.372,0.166 0.372,0.371 v 0 17.717 c 0,0.243 0.198,0.441 0.441,0.441 v 0 h 13.423 c 0.243,0 0.441,-0.198 0.441,-0.441 v 0 -23.628 c 0,-0.243 -0.198,-0.441 -0.441,-0.441 v 0 H 1.186 c -0.243,0 -0.441,0.198 -0.441,0.441 v 0 3.876 c 0,0.205 -0.166,0.371 -0.372,0.371 v 0 C 0.167,5.433 0,5.267 0,5.062 v 0 -3.876 C 0,0.532 0.532,0 1.186,0 v 0 h 13.423 c 0.654,0 1.186,0.532 1.186,1.186 v 0 23.628 c 0,0.654 -0.532,1.186 -1.186,1.186 v 0 z" fill="inherit" stroke="none"/></g></g></g></g><g id="g72"><g id="g74"><g id="g80"><g id="g82"><path id="path90" d="m 2.217,24.237 c -0.406,0 -0.737,-0.33 -0.737,-0.736 v 0 -1.444 -17.959 c 0,-0.406 0.33,-0.737 0.737,-0.737 v 0 h 11.361 c 0.406,0 0.737,0.331 0.737,0.737 v 0 17.959 1.444 c 0,0.406 -0.331,0.736 -0.737,0.736 v 0 z M 2.225,23.492 H 13.569 V 22.43 H 2.225 Z m 0,-1.807 H 13.569 V 4.107 H 2.225 Z" fill="inherit" stroke="none"/></g></g></g></g><g id="g92"><g id="g94"><g id="g100"><g id="g102"><path id="path110" d="m 11.567,19.364 c -0.206,0 -0.373,-0.166 -0.373,-0.372 v 0 c 0,-0.206 0.167,-0.373 0.373,-0.373 v 0 h 1.12 c 0.206,0 0.373,0.167 0.373,0.373 v 0 c 0,0.206 -0.167,0.372 -0.373,0.372 v 0 z" fill="inherit" stroke="none"/></g></g></g></g><g id="g112"><g id="g114"><g id="g120"><g id="g122"><path id="path130" d="m 3.128,19.364 c -0.206,0 -0.373,-0.166 -0.373,-0.372 v 0 c 0,-0.206 0.167,-0.373 0.373,-0.373 v 0 h 6.401 c 0.206,0 0.374,0.167 0.374,0.373 v 0 c 0,0.206 -0.168,0.372 -0.374,0.372 v 0 z" fill="inherit" stroke="none"/></g></g></g></g><g id="g132"><g id="g134"><g id="g140"><g id="g142"><path id="path150" d="m 3.128,17.75 c -0.206,0 -0.373,-0.167 -0.373,-0.373 v 0 c 0,-0.205 0.167,-0.372 0.373,-0.372 v 0 h 9.559 c 0.206,0 0.373,0.167 0.373,0.372 v 0 c 0,0.206 -0.167,0.373 -0.373,0.373 v 0 z" fill="inherit" stroke="none"/></g></g></g></g></g></svg>