<svg xmlns="http://www.w3.org/2000/svg" viewBox="0 0 89.611 95.573" height="95.573" width="89.611" xml:space="preserve" id="svg2" version="1.1"><defs id="defs6"><clipPath id="clipPath18" clipPathUnits="userSpaceOnUse"><path id="path16" d="M 0,71.679 H 67.208 V 0 H 0 Z"/></clipPath><clipPath id="clipPath26" clipPathUnits="userSpaceOnUse"><path id="path24" d="M 27.5615,8.22681 H 42.5113 V 0.752258 H 27.5615 Z"/></clipPath><clipPath id="clipPath42" clipPathUnits="userSpaceOnUse"><path id="path40" d="M 0,71.679 H 67.208 V 0 H 0 Z"/></clipPath><clipPath id="clipPath50" clipPathUnits="userSpaceOnUse"><path id="path48" d="M 9.62129,48.6423 H 60.4501 V 14.2101 H 9.62129 Z"/></clipPath><clipPath id="clipPath76" clipPathUnits="userSpaceOnUse"><path id="path74" d="M 12.9095,31.9733 H 54.2829 V 17.499 H 12.9095 Z"/></clipPath><clipPath id="clipPath92" clipPathUnits="userSpaceOnUse"><path id="path90" d="M 0,55.643 H 32.4642 V 31.5712 H 0 Z"/></clipPath><clipPath id="clipPath108" clipPathUnits="userSpaceOnUse"><path id="path106" d="M 9.62129,48.6423 H 32.4642 V 36.5968 H 9.62129 Z"/></clipPath><clipPath id="clipPath144" clipPathUnits="userSpaceOnUse"><path id="path142" d="M 35.3346,66.4302 H 48.9834 V 52.782 H 35.3346 Z"/></clipPath><clipPath id="clipPath164" clipPathUnits="userSpaceOnUse"><path id="path162" d="m 41.7888,57.3038 h 5.4536 v -5.8582 h -5.4536 z"/></clipPath><clipPath id="clipPath180" clipPathUnits="userSpaceOnUse"><path id="path178" d="m 42.9102,63.3817 h 8.4953 V 38.9289 h -8.4953 z"/></clipPath><clipPath id="clipPath200" clipPathUnits="userSpaceOnUse"><path id="path198" d="m 53.5156,54.3478 h 7.6022 V 46.746 h -7.6022 z"/></clipPath><clipPath id="clipPath220" clipPathUnits="userSpaceOnUse"><path id="path218" d="m 22.043,62.7119 h 3.0736 V 59.6383 H 22.043 Z"/></clipPath><clipPath id="clipPath260" clipPathUnits="userSpaceOnUse"><path id="path258" d="m 44.0241,62.3918 h 4.9593 v -8.0852 h -4.9593 z"/></clipPath></defs><g transform="matrix(1.33333 0 0 -1.33333 0 95.573)" id="g10"><g id="g12"><g clip-path="url(#clipPath18)" id="g14"><g id="g20"><g id="g32"><g id="g30" clip-path="url(#clipPath26)" opacity=".4"><path id="path28" d="m 27.561,8.227 h 14.95 V 0.752 h -14.95 z" fill="#1496e2" fill-opacity="1" fill-rule="nonzero" stroke="none"/></g></g></g></g></g><path id="path34" d="M 23.974,0 H 46.1 V 1.503 H 23.974 Z" fill="#1496e2" fill-opacity="1" fill-rule="nonzero" stroke="none"/><g id="g36"><g clip-path="url(#clipPath42)" id="g38"><g id="g44"><g id="g56"><g id="g54" clip-path="url(#clipPath50)" opacity=".4"><path id="path52" d="M 57.162,17.497 H 12.91 v 27.856 h 44.252 z m 2.762,30.62 c -0.35,0.35 -0.809,0.525 -1.268,0.525 H 11.412 c -0.458,0 -0.917,-0.175 -1.267,-0.525 -0.35,-0.35 -0.523,-0.81 -0.523,-1.268 V 14.21 H 60.45 v 32.639 c 0,0.458 -0.174,0.918 -0.526,1.268" fill="#1496e2" fill-opacity="1" fill-rule="nonzero" stroke="none"/></g></g></g><g transform="translate(58.946 10.022)" id="g58"><path id="path60" d="M 0,0 C 0,-0.054 -0.014,-0.133 -0.082,-0.201 -0.159,-0.278 -0.246,-0.29 -0.29,-0.29 h -47.244 c -0.044,0 -0.128,0.012 -0.205,0.088 -0.068,0.068 -0.082,0.147 -0.082,0.202 V 2.685 H 0.001 L 0.001,0 Z M -49.324,4.188 V 0 c 0,-0.458 0.174,-0.918 0.524,-1.267 0.349,-0.348 0.808,-0.527 1.266,-0.527 H -0.29 c 0.459,0 0.918,0.179 1.269,0.527 0.35,0.35 0.525,0.809 0.525,1.267 v 4.188 z" fill="#1496e2" fill-opacity="1" fill-rule="nonzero" stroke="none"/></g><g transform="translate(65.924 42.972)" id="g62"><path id="path64" d="m 0,0 -6.661,-6.66 -3.957,3.96 -8.198,-6.871 -1.839,1.838 -3.672,-3.673 -3.885,3.883 -7.949,-7.949 -2.893,2.89 c 0,0 -5.803,-5.801 -5.918,-5.918 l -5.69,5.687 -12.179,-12.178 1.063,-1.063 11.116,11.115 5.691,-5.686 c 0,0 4.73,4.73 5.917,5.917 l 2.893,-2.889 7.949,7.948 3.885,-3.882 3.672,3.673 1.75,-1.75 8.197,6.871 4.046,-4.049 7.725,7.723 z" fill="#1496e2" fill-opacity="1" fill-rule="nonzero" stroke="none"/></g><g transform="translate(67.207 38.338)" id="g66"><path id="path68" d="m 0,0 h -1.504 v 3.35 h -3.35 V 4.854 H 0 Z" fill="#1496e2" fill-opacity="1" fill-rule="nonzero" stroke="none"/></g><g id="g70"><g id="g84"><g id="g82" clip-path="url(#clipPath76)" opacity=".8"><g id="g80" transform="translate(49.548 27.808)"><path id="path78" d="m 0,0 -2.635,2.318 -5.398,-3.979 -1.182,1.039 -2.419,-2.126 -2.554,2.247 -5.234,-4.603 -1.905,1.674 -3.898,-3.428 -3.747,3.294 -7.667,-6.745 H 4.734 V 4.165 Z" fill="#6d53fe" fill-opacity="1" fill-rule="nonzero" stroke="none"/></g></g></g></g><g id="g86"><g id="g100"><g id="g98" clip-path="url(#clipPath92)" opacity=".5"><g id="g96" transform="translate(0 55.643)"><path id="path94" d="m 0,0 v -19.046 h 3.654 v -5.026 l 5.027,5.026 H 32.464 V 0 Z" fill="#1496e2" fill-opacity="1" fill-rule="nonzero" stroke="none"/></g></g></g></g><g id="g102"><g id="g116"><g id="g114" clip-path="url(#clipPath108)" opacity=".2"><g id="g112" transform="translate(12.91 36.597)"><path id="path110" d="m 0,0 v 8.757 h 19.555 v 3.288 H -1.498 c -0.458,0 -0.917,-0.174 -1.266,-0.525 -0.35,-0.35 -0.524,-0.81 -0.524,-1.268 L -3.288,0 Z" fill="#1496e2" fill-opacity="1" fill-rule="nonzero" stroke="none"/></g></g></g></g><path id="path118" d="M 2.481,43.069 H 4.409 V 40.468 H 2.481 Z" fill="#fff" fill-opacity="1" fill-rule="nonzero" stroke="none"/><path id="path120" d="M 5.025,45.481 H 6.953 V 40.469 H 5.025 Z" fill="#fff" fill-opacity="1" fill-rule="nonzero" stroke="none"/><path id="path122" d="m 7.567,44.367 h 1.93 v -3.899 h -1.93 z" fill="#fff" fill-opacity="1" fill-rule="nonzero" stroke="none"/><path id="path124" d="m 10.112,49.928 h 1.927 v -9.46 h -1.927 z" fill="#fff" fill-opacity="1" fill-rule="nonzero" stroke="none"/><path id="path126" d="m 12.655,47.416 h 1.928 v -6.949 h -1.928 z" fill="#fff" fill-opacity="1" fill-rule="nonzero" stroke="none"/><path id="path128" d="m 15.2,51.81 h 1.927 V 40.468 H 15.2 Z" fill="#fff" fill-opacity="1" fill-rule="nonzero" stroke="none"/><path id="path130" d="M 17.742,46.363 H 19.67 V 40.467 H 17.742 Z" fill="#fff" fill-opacity="1" fill-rule="nonzero" stroke="none"/><path id="path132" d="m 20.286,45.199 h 1.927 v -4.731 h -1.927 z" fill="#fff" fill-opacity="1" fill-rule="nonzero" stroke="none"/><path id="path134" d="m 22.829,49.928 h 1.929 v -9.46 h -1.929 z" fill="#fff" fill-opacity="1" fill-rule="nonzero" stroke="none"/><path id="path136" d="m 25.372,54.23 h 1.93 V 40.468 h -1.93 z" fill="#fff" fill-opacity="1" fill-rule="nonzero" stroke="none"/><g id="g138"><g id="g152"><g id="g150" clip-path="url(#clipPath144)" opacity=".5"><g id="g148" transform="translate(42.158 66.43)"><path id="path146" d="m 0,0 c -3.77,0 -6.823,-3.054 -6.823,-6.823 0,-3.769 3.053,-6.825 6.823,-6.825 3.769,0 6.826,3.056 6.826,6.825 C 6.826,-3.054 3.769,0 0,0" fill="#1496e2" fill-opacity="1" fill-rule="nonzero" stroke="none"/></g></g></g></g><g transform="translate(34.699 67.094)" id="g154"><path id="path156" d="M 0,0 6.897,-6.002 8.1,3.063 C 5.063,3.253 2.12,2.115 0,0 m 8.021,-8.972 -10.162,8.842 0.493,0.567 c 2.292,2.637 5.612,4.149 9.112,4.149 0.527,0 1.06,-0.035 1.583,-0.105 L 9.791,4.382 Z" fill="#1496e2" fill-opacity="1" fill-rule="nonzero" stroke="none"/></g><g id="g158"><g id="g172"><g id="g170" clip-path="url(#clipPath164)" opacity=".8"><g id="g168" transform="translate(41.788 51.464)"><path id="path166" d="M 0,0 C 0.124,-0.006 0.244,-0.019 0.367,-0.019 2.293,-0.02 4.059,0.651 5.454,1.765 L 2.236,5.839 C 1.729,5.428 1.084,5.18 0.379,5.178 0.324,5.176 0.273,5.181 0.217,5.184 Z" fill="#6d53fe" fill-opacity="1" fill-rule="nonzero" stroke="none"/></g></g></g></g><g id="g174"><g id="g192"><g id="g190" clip-path="url(#clipPath180)" opacity=".5"><g id="g184" transform="translate(44.867 60.817)"><path id="path182" d="M 0,0 C 0.56,-1.253 0.179,-2.687 -0.843,-3.513 L 3.113,-8.395 C 6.296,-5.821 7.479,-1.34 5.73,2.564 Z" fill="#1496e2" fill-opacity="1" fill-rule="nonzero" stroke="none"/></g><g id="g188" transform="translate(44.961 43.031)"><path id="path186" d="m 0,0 c 1.133,0 2.051,-0.918 2.051,-2.051 0,-1.133 -0.918,-2.052 -2.051,-2.052 -1.133,0 -2.051,0.919 -2.051,2.052 C -2.051,-0.918 -1.133,0 0,0" fill="#1496e2" fill-opacity="1" fill-rule="nonzero" stroke="none"/></g></g></g></g><g id="g194"><g id="g208"><g id="g206" clip-path="url(#clipPath200)" opacity=".8"><g id="g204" transform="translate(61.118 50.547)"><path id="path202" d="m 0,0 c 0,-2.099 -1.702,-3.801 -3.801,-3.801 -2.098,0 -3.801,1.702 -3.801,3.801 0,2.099 1.704,3.8 3.801,3.8 C -1.702,3.8 0,2.099 0,0" fill="#6d53fe" fill-opacity="1" fill-rule="nonzero" stroke="none"/></g></g></g></g><g transform="translate(12.594 63.778)" id="g210"><path id="path212" d="m 0,0 c -1.562,0 -2.833,-1.271 -2.833,-2.834 0,-1.563 1.271,-2.834 2.833,-2.834 1.562,0 2.833,1.271 2.833,2.834 C 2.833,-1.271 1.562,0 0,0 m 0,-7.171 c -2.391,0 -4.337,1.945 -4.337,4.337 0,2.392 1.946,4.338 4.337,4.338 2.391,0 4.337,-1.946 4.337,-4.338 0,-2.392 -1.946,-4.337 -4.337,-4.337" fill="#1496e2" fill-opacity="1" fill-rule="nonzero" stroke="none"/></g><g id="g214"><g id="g228"><g id="g226" clip-path="url(#clipPath220)" opacity=".2"><g id="g224" transform="translate(25.117 61.176)"><path id="path222" d="m 0,0 c 0,-0.849 -0.688,-1.538 -1.538,-1.538 -0.847,0 -1.536,0.689 -1.536,1.538 0,0.849 0.689,1.536 1.536,1.536 C -0.688,1.536 0,0.849 0,0" fill="#1496e2" fill-opacity="1" fill-rule="nonzero" stroke="none"/></g></g></g></g><g transform="translate(12.91 17.5)" id="g230"><path id="path232" d="M 0,0 V 0 L -3.288,-0.002 H 41.373 V 0 Z" fill="#6d53fe" fill-opacity="1" fill-rule="nonzero" stroke="none"/></g><g transform="translate(60.45 37.498)" id="g234"><path id="path236" d="M 0,0 -1.187,-1.186 -3.288,0.917 V -1.21 L -1.187,-3.312 0,-2.125 Z" fill="#1496e2" fill-opacity="1" fill-rule="nonzero" stroke="none"/></g><g transform="translate(9.621 22.392)" id="g238"><path id="path240" d="M 0,0 3.288,3.289 V 5.415 L 0,2.126 Z" fill="#1496e2" fill-opacity="1" fill-rule="nonzero" stroke="none"/></g><g transform="translate(59.924 48.117)" id="g242"><path id="path244" d="m 0,0 c -0.351,0.351 -0.81,0.525 -1.269,0.525 h -4.625 c 0.659,-1.132 1.882,-1.896 3.286,-1.896 1.087,0 2.064,0.459 2.756,1.189 C 0.102,-0.12 0.057,-0.057 0,0" fill="#6d53fe" fill-opacity="1" fill-rule="nonzero" stroke="none"/></g><g transform="translate(14.241 58.643)" id="g246"><path id="path248" d="m 0,0 c -0.465,-0.334 -1.033,-0.533 -1.647,-0.533 -0.615,0 -1.183,0.2 -1.648,0.533 h -2.022 c 0.768,-1.221 2.124,-2.036 3.669,-2.036 1.546,0 2.902,0.815 3.67,2.036 z" fill="#1496e2" fill-opacity="1" fill-rule="nonzero" stroke="none"/></g><g transform="translate(41.845 52.798)" id="g250"><path id="path252" d="m 0,0 c 0.104,-0.005 0.207,-0.016 0.312,-0.016 1.612,0 3.09,0.562 4.257,1.496 L 2.18,4.506 C 1.674,4.095 1.027,3.846 0.323,3.844 0.268,3.842 0.217,3.848 0.161,3.851 Z" fill="#6d53fe" fill-opacity="1" fill-rule="nonzero" stroke="none"/></g><g id="g254"><g id="g268"><g id="g266" clip-path="url(#clipPath260)" opacity=".5"><g id="g264" transform="translate(48.385 62.392)"><path id="path262" d="m 0,0 -3.519,-1.575 c 0.56,-1.253 0.179,-2.686 -0.842,-3.512 l 2.429,-2.998 c 1.542,1.251 2.531,3.16 2.531,5.3 C 0.599,-1.792 0.382,-0.852 0,0" fill="#1496e2" fill-opacity="1" fill-rule="nonzero" stroke="none"/></g></g></g></g><g transform="translate(43.794 66.225)" id="g270"><path id="path272" d="m 0,0 c -0.479,0.118 -0.979,0.187 -1.491,0.198 l -0.707,-5.331 -4.056,3.529 c -0.369,-0.34 -0.703,-0.717 -0.99,-1.131 l 6.169,-5.368 z" fill="#1496e2" fill-opacity="1" fill-rule="nonzero" stroke="none"/></g></g></g></g></svg>