<svg xmlns="http://www.w3.org/2000/svg" viewBox="0 0 78.204 85.661" height="85.661" width="78.204" xml:space="preserve" id="svg2" version="1.1"><defs id="defs6"><clipPath id="clipPath18" clipPathUnits="userSpaceOnUse"><path id="path16" d="M 0,64.246 H 58.653 V 0 H 0 Z"/></clipPath><clipPath id="clipPath26" clipPathUnits="userSpaceOnUse"><path id="path24" d="M 19.2556,8.71761 H 35.3035 V 0.694504 H 19.2556 Z"/></clipPath><clipPath id="clipPath42" clipPathUnits="userSpaceOnUse"><path id="path40" d="M 0,64.246 H 58.653 V 0 H 0 Z"/></clipPath><clipPath id="clipPath50" clipPathUnits="userSpaceOnUse"><path id="path48" d="M 0,52.0975 H 54.5601 V 15.1381 H 0 Z"/></clipPath><clipPath id="clipPath72" clipPathUnits="userSpaceOnUse"><path id="path70" d="M 14.3215,52.0975 H 40.2386 V 40.2129 H 14.3215 Z"/></clipPath><clipPath id="clipPath86" clipPathUnits="userSpaceOnUse"><path id="path84" d="M 14.3215,52.0975 H 40.2386 V 48.5681 H 14.3215 Z"/></clipPath><clipPath id="clipPath138" clipPathUnits="userSpaceOnUse"><path id="path136" d="m 49.5504,56.1813 h 9.0932 v -9.0937 h -9.0932 z"/></clipPath><clipPath id="clipPath154" clipPathUnits="userSpaceOnUse"><path id="path152" d="m 49.5504,52.0975 h 5.0103 v -5.0099 h -5.0103 z"/></clipPath><clipPath id="clipPath194" clipPathUnits="userSpaceOnUse"><path id="path192" d="M 5.84836,57.8392 H 45.8633 V 33.6668 H 5.84836 Z"/></clipPath><clipPath id="clipPath210" clipPathUnits="userSpaceOnUse"><path id="path208" d="m 39.1014,31.7596 h 6.7619 v -4.637 h -6.7619 z"/></clipPath><clipPath id="clipPath224" clipPathUnits="userSpaceOnUse"><path id="path222" d="m 39.1014,25.2129 h 6.7619 v -4.6373 h -6.7619 z"/></clipPath></defs><g transform="matrix(1.33333 0 0 -1.33333 0 85.661)" id="g10"><g id="g12"><g clip-path="url(#clipPath18)" id="g14"><g id="g20"><g id="g32"><g id="g30" clip-path="url(#clipPath26)" opacity=".4"><path id="path28" d="M 19.256,8.718 H 35.304 V 0.695 H 19.256 Z" fill="#1496e2" fill-opacity="1" fill-rule="nonzero" stroke="none"/></g></g></g></g></g><path id="path34" d="m 15.405,0 h 23.75 v 1.391 h -23.75 z" fill="#1496e2" fill-opacity="1" fill-rule="nonzero" stroke="none"/><g id="g36"><g clip-path="url(#clipPath42)" id="g38"><g id="g44"><g id="g56"><g id="g54" clip-path="url(#clipPath50)" opacity=".4"><path id="path52" d="M 51.03,18.667 H 3.53 v 29.901 h 47.5 z m 2.967,32.867 c -0.376,0.377 -0.87,0.564 -1.362,0.564 H 1.922 c -0.49,0 -0.984,-0.187 -1.358,-0.564 C 0.188,51.158 0,50.665 0,50.172 V 15.138 h 54.56 v 35.034 c 0,0.493 -0.188,0.986 -0.563,1.362" fill="#1496e2" fill-opacity="1" fill-rule="nonzero" stroke="none"/></g></g></g><g transform="translate(53.17 10.644)" id="g58"><path id="path60" d="m 0,0 c 0,-0.083 -0.02,-0.242 -0.153,-0.375 -0.141,-0.14 -0.3,-0.161 -0.382,-0.161 h -50.713 c -0.08,0 -0.237,0.02 -0.377,0.161 -0.134,0.134 -0.155,0.292 -0.155,0.375 V 3.104 H 0 Z M -53.169,4.494 V 0 c 0,-0.493 0.187,-0.985 0.564,-1.36 0.374,-0.374 0.867,-0.566 1.358,-0.566 h 50.712 c 0.492,0 0.986,0.192 1.362,0.566 0.375,0.375 0.564,0.867 0.564,1.36 v 4.494 z" fill="#1496e2" fill-opacity="1" fill-rule="nonzero" stroke="none"/></g><g transform="translate(44.571 18.667)" id="g62"><path id="path64" d="m 0,0 h -1.391 v 41.542 l -2.071,2.071 -2.766,-2.766 -2.765,2.766 -2.766,-2.766 -2.766,2.766 -2.766,-2.766 -2.766,2.766 -2.766,-2.766 -2.766,2.766 -2.766,-2.766 -2.765,2.766 -2.071,-2.071 V 0 h -1.391 v 42.118 l 3.462,3.461 2.765,-2.766 2.766,2.766 2.766,-2.766 2.766,2.766 2.766,-2.766 2.766,2.766 2.766,-2.766 2.766,2.766 2.765,-2.766 2.766,2.766 L 0,42.118 Z" fill="#1496e2" fill-opacity="1" fill-rule="nonzero" stroke="none"/></g><g id="g66"><g id="g78"><g id="g76" clip-path="url(#clipPath72)" opacity=".8"><path id="path74" d="M 14.322,52.098 H 40.239 V 40.213 H 14.322 Z" fill="#6d53fe" fill-opacity="1" fill-rule="nonzero" stroke="none"/></g></g></g><g id="g80"><g id="g92"><g id="g90" clip-path="url(#clipPath86)" opacity=".6"><path id="path88" d="m 14.322,52.098 h 25.917 v -3.53 H 14.322 Z" fill="#6d53fe" fill-opacity="1" fill-rule="nonzero" stroke="none"/></g></g></g><path id="path94" d="m 17.492,42.662 h 1.391 v -1.589 h -1.391 z" fill="#fff" fill-opacity="1" fill-rule="nonzero" stroke="none"/><path id="path96" d="m 20.524,45.006 h 1.391 v -3.931 h -1.391 z" fill="#fff" fill-opacity="1" fill-rule="nonzero" stroke="none"/><path id="path98" d="m 23.554,43.996 h 1.391 v -2.92 h -1.391 z" fill="#fff" fill-opacity="1" fill-rule="nonzero" stroke="none"/><path id="path100" d="m 26.586,46.948 h 1.391 v -5.874 h -1.391 z" fill="#fff" fill-opacity="1" fill-rule="nonzero" stroke="none"/><path id="path102" d="m 29.615,46.122 h 1.391 v -5.048 h -1.391 z" fill="#fff" fill-opacity="1" fill-rule="nonzero" stroke="none"/><path id="path104" d="m 32.647,50.168 h 1.391 v -9.094 h -1.391 z" fill="#fff" fill-opacity="1" fill-rule="nonzero" stroke="none"/><path id="path106" d="m 35.677,48.598 h 1.391 v -7.523 h -1.391 z" fill="#fff" fill-opacity="1" fill-rule="nonzero" stroke="none"/><path id="path108" d="M 48.581,38.316 H 58.653 V 36.925 H 48.581 Z" fill="#1496e2" fill-opacity="1" fill-rule="nonzero" stroke="none"/><path id="path110" d="m 48.581,35.042 h 4.64 v -1.39 h -4.64 z" fill="#1496e2" fill-opacity="1" fill-rule="nonzero" stroke="none"/><path id="path112" d="M 48.581,31.772 H 58.653 V 30.381 H 48.581 Z" fill="#1496e2" fill-opacity="1" fill-rule="nonzero" stroke="none"/><path id="path114" d="m 48.581,28.499 h 4.64 v -1.391 h -4.64 z" fill="#1496e2" fill-opacity="1" fill-rule="nonzero" stroke="none"/><path id="path116" d="m 48.581,25.226 h 10.072 v -1.39 H 48.581 Z" fill="#1496e2" fill-opacity="1" fill-rule="nonzero" stroke="none"/><path id="path118" d="m 48.581,21.952 h 4.64 v -1.39 h -4.64 z" fill="#1496e2" fill-opacity="1" fill-rule="nonzero" stroke="none"/><path id="path120" d="M 17.582,38.316 H 32.738 V 36.925 H 17.582 Z" fill="#1496e2" fill-opacity="1" fill-rule="nonzero" stroke="none"/><path id="path122" d="m 17.582,35.042 h 15.156 v -1.39 H 17.582 Z" fill="#1496e2" fill-opacity="1" fill-rule="nonzero" stroke="none"/><path id="path124" d="M 17.582,31.772 H 32.738 V 30.381 H 17.582 Z" fill="#1496e2" fill-opacity="1" fill-rule="nonzero" stroke="none"/><path id="path126" d="M 17.582,28.499 H 32.738 V 27.108 H 17.582 Z" fill="#1496e2" fill-opacity="1" fill-rule="nonzero" stroke="none"/><path id="path128" d="m 17.582,25.226 h 15.156 v -1.39 H 17.582 Z" fill="#1496e2" fill-opacity="1" fill-rule="nonzero" stroke="none"/><path id="path130" d="m 17.582,21.952 h 15.156 v -1.39 H 17.582 Z" fill="#1496e2" fill-opacity="1" fill-rule="nonzero" stroke="none"/><g id="g132"><g id="g146"><g id="g144" clip-path="url(#clipPath138)" opacity=".5"><g id="g142" transform="translate(58.644 51.634)"><path id="path140" d="m 0,0 c 0,-2.511 -2.034,-4.546 -4.546,-4.546 -2.512,0 -4.547,2.035 -4.547,4.546 0,2.512 2.035,4.547 4.547,4.547 C -2.034,4.547 0,2.512 0,0" fill="#6d53fe" fill-opacity="1" fill-rule="nonzero" stroke="none"/></g></g></g></g><g id="g148"><g id="g162"><g id="g160" clip-path="url(#clipPath154)" opacity=".8"><g id="g158" transform="translate(52.635 52.098)"><path id="path156" d="m 0,0 h -3.061 c -0.015,-0.153 -0.023,-0.307 -0.023,-0.464 0,-1.183 0.455,-2.257 1.195,-3.066 h 0.285 v -0.283 c 0.809,-0.741 1.883,-1.197 3.067,-1.197 0.156,0 0.31,0.008 0.463,0.023 v 3.061 c 0,0.493 -0.189,0.986 -0.564,1.363 C 0.986,-0.187 0.492,0 0,0" fill="#6d53fe" fill-opacity="1" fill-rule="nonzero" stroke="none"/></g></g></g></g><g transform="translate(54.737 51.717)" id="g164"><path id="path166" d="M 0,0 C 0.448,0.072 0.95,0.415 0.95,1.009 0.95,1.742 0.316,2.19 -0.633,2.19 -1.366,2.19 -1.9,1.9 -2.244,1.498 l 0.395,-0.482 c 0.317,0.323 0.687,0.488 1.143,0.488 0.488,0 0.891,-0.211 0.891,-0.613 0,-0.403 -0.389,-0.581 -0.912,-0.581 -0.171,0 -0.428,0 -0.502,0.006 v -0.699 c 0.066,0.007 0.318,0.013 0.502,0.013 0.634,0 0.978,-0.191 0.978,-0.626 0,-0.403 -0.337,-0.674 -0.919,-0.674 -0.467,0 -0.93,0.204 -1.213,0.535 L -2.304,-1.644 C -2,-2.04 -1.419,-2.356 -0.64,-2.356 c 1.023,0 1.663,0.534 1.663,1.287 C 1.023,-0.39 0.423,-0.047 0,0" fill="#fff" fill-opacity="1" fill-rule="nonzero" stroke="none"/></g><path id="path168" d="m 9.99,57.839 h 1.391 v -3.53 H 9.99 Z" fill="#1496e2" fill-opacity="1" fill-rule="nonzero" stroke="none"/><path id="path170" d="m 43.181,25.213 h 1.391 v -4.638 h -1.391 z" fill="#1496e2" fill-opacity="1" fill-rule="nonzero" stroke="none"/><path id="path172" d="m 43.181,31.76 h 1.391 v -4.637 h -1.391 z" fill="#1496e2" fill-opacity="1" fill-rule="nonzero" stroke="none"/><path id="path174" d="m 43.181,38.303 h 1.391 v -4.636 h -1.391 z" fill="#1496e2" fill-opacity="1" fill-rule="nonzero" stroke="none"/><path id="path176" d="m 51.029,35.042 h 2.189 v -1.39 h -2.189 z" fill="#1496e2" fill-opacity="1" fill-rule="nonzero" stroke="none"/><path id="path178" d="m 51.029,28.499 h 2.189 v -1.391 h -2.189 z" fill="#1496e2" fill-opacity="1" fill-rule="nonzero" stroke="none"/><path id="path180" d="m 51.029,21.952 h 2.189 v -1.39 h -2.189 z" fill="#1496e2" fill-opacity="1" fill-rule="nonzero" stroke="none"/><path id="path182" d="m 51.029,25.226 h 3.529 v -1.39 h -3.529 z" fill="#1496e2" fill-opacity="1" fill-rule="nonzero" stroke="none"/><path id="path184" d="m 51.029,38.316 h 3.529 v -1.391 h -3.529 z" fill="#1496e2" fill-opacity="1" fill-rule="nonzero" stroke="none"/><path id="path186" d="m 51.029,31.772 h 3.529 v -1.391 h -3.529 z" fill="#1496e2" fill-opacity="1" fill-rule="nonzero" stroke="none"/><g id="g188"><g id="g202"><g id="g200" clip-path="url(#clipPath194)" opacity=".8" fill="#6d53fe" fill-opacity="1" fill-rule="nonzero" stroke="none"><path id="path196" d="m 5.849,57.839 h 31.776 v -3.53 H 5.849 Z"/><path id="path198" d="m 39.102,38.303 h 6.762 v -4.636 h -6.762 z"/></g></g></g><g id="g204"><g id="g216"><g id="g214" clip-path="url(#clipPath210)" opacity=".8"><path id="path212" d="m 39.102,31.76 h 6.762 v -4.637 h -6.762 z" fill="#6d53fe" fill-opacity="1" fill-rule="nonzero" stroke="none"/></g></g></g><g id="g218"><g id="g230"><g id="g228" clip-path="url(#clipPath224)" opacity=".8"><path id="path226" d="m 39.102,25.213 h 6.762 v -4.638 h -6.762 z" fill="#6d53fe" fill-opacity="1" fill-rule="nonzero" stroke="none"/></g></g></g></g></g></g></svg>