<svg xmlns="http://www.w3.org/2000/svg" viewBox="0 0 90.456 85.165" height="85.165" width="90.456" xml:space="preserve" id="svg2" version="1.1"><defs id="defs6"><clipPath id="clipPath18" clipPathUnits="userSpaceOnUse"><path id="path16" d="M 0,63.874 H 67.842 V 0 H 0 Z"/></clipPath><clipPath id="clipPath26" clipPathUnits="userSpaceOnUse"><path id="path24" d="M 11.3544,57.2216 H 49.9372 V 6.21992 H 11.3544 Z"/></clipPath><clipPath id="clipPath42" clipPathUnits="userSpaceOnUse"><path id="path40" d="M 0,63.874 H 67.842 V 0 H 0 Z"/></clipPath><clipPath id="clipPath50" clipPathUnits="userSpaceOnUse"><path id="path48" d="M 2.92746,38.3719 H 16.2317 V 25.0677 H 2.92746 Z"/></clipPath><clipPath id="clipPath64" clipPathUnits="userSpaceOnUse"><path id="path62" d="M 16.233,46.1346 H 32.6411 V 17.307 H 16.233 Z"/></clipPath><clipPath id="clipPath84" clipPathUnits="userSpaceOnUse"><path id="path82" d="M 0,63.874 H 67.842 V 0 H 0 Z"/></clipPath><clipPath id="clipPath92" clipPathUnits="userSpaceOnUse"><path id="path90" d="M 9.57957,21.0784 H 13.1271 V 17.9746 H 9.57957 Z"/></clipPath><clipPath id="clipPath106" clipPathUnits="userSpaceOnUse"><path id="path104" d="m 11.3544,21.0784 h 1.7734 v -3.1038 h -1.7734 z"/></clipPath><clipPath id="clipPath136" clipPathUnits="userSpaceOnUse"><path id="path134" d="M 0,63.874 H 67.842 V 0 H 0 Z"/></clipPath><clipPath id="clipPath144" clipPathUnits="userSpaceOnUse"><path id="path142" d="M 56.7549,54.0808 H 67.8423 V 42.9934 H 56.7549 Z"/></clipPath><clipPath id="clipPath162" clipPathUnits="userSpaceOnUse"><path id="path160" d="M 0,63.874 H 67.842 V 0 H 0 Z"/></clipPath><clipPath id="clipPath170" clipPathUnits="userSpaceOnUse"><path id="path168" d="M 56.09,19.0601 H 67.1777 V 7.97269 H 56.09 Z"/></clipPath><clipPath id="clipPath204" clipPathUnits="userSpaceOnUse"><path id="path202" d="M 0,63.874 H 67.842 V 0 H 0 Z"/></clipPath><clipPath id="clipPath212" clipPathUnits="userSpaceOnUse"><path id="path210" d="M 16.7303,13.524 H 33.7252 V 6.22095 H 16.7303 Z"/></clipPath><clipPath id="clipPath226" clipPathUnits="userSpaceOnUse"><path id="path224" d="m 11.3544,38.3719 h 4.8783 V 25.0677 h -4.8783 z"/></clipPath></defs><g transform="matrix(1.33333 0 0 -1.33333 0 85.165)" id="g10"><g id="g12"><g clip-path="url(#clipPath18)" id="g14"><g id="g20"><g id="g32"><g id="g30" clip-path="url(#clipPath26)" opacity=".1"><path id="path28" d="M 11.354,57.221 H 49.937 V 6.22 H 11.354 Z" fill="#1496e2" fill-opacity="1" fill-rule="nonzero" stroke="none"/></g></g></g></g></g><path id="path34" d="m 11.354,57.221 h 38.584 v 6.653 H 11.354 Z m 1.42,5.234 H 48.518 V 58.642 H 12.774 Z" fill="#1496e2" fill-opacity="1" fill-rule="nonzero" stroke="none"/><g id="g36"><g clip-path="url(#clipPath42)" id="g38"><g id="g44"><g id="g56"><g id="g54" clip-path="url(#clipPath50)" opacity=".8"><path id="path52" d="M 2.927,38.372 H 16.231 V 25.068 H 2.927 Z" fill="#6d53fe" fill-opacity="1" fill-rule="nonzero" stroke="none"/></g></g></g><g id="g58"><g id="g72"><g id="g70" clip-path="url(#clipPath64)" opacity=".6"><g id="g68" transform="translate(32.641 17.307)"><path id="path66" d="M 0,0 -16.408,7.762 V 21.066 L 0,28.828 Z" fill="#6d53fe" fill-opacity="1" fill-rule="nonzero" stroke="none"/></g></g></g></g></g></g><path id="path74" d="m 33.351,17.13 h 1.685 v 29.181 h -1.685 z m 3.104,-1.419 h -4.523 v 32.02 h 4.523 z" fill="#1496e2" fill-opacity="1" fill-rule="nonzero" stroke="none"/><path id="path76" d="m 0,27.685 h 5.855 v 8.072 H 0 Z m 1.419,6.652 H 4.436 V 29.105 H 1.419 Z" fill="#1496e2" fill-opacity="1" fill-rule="nonzero" stroke="none"/><g id="g78"><g clip-path="url(#clipPath84)" id="g80"><g id="g86"><g id="g98"><g id="g96" clip-path="url(#clipPath92)" opacity=".8"><path id="path94" d="m 9.58,21.078 h 3.547 V 17.974 H 9.58 Z" fill="#6d53fe" fill-opacity="1" fill-rule="nonzero" stroke="none"/></g></g></g><g id="g100"><g id="g112"><g id="g110" clip-path="url(#clipPath106)" opacity=".8"><path id="path108" d="m 11.354,21.078 h 1.773 v -3.104 h -1.773 z" fill="#6d53fe" fill-opacity="1" fill-rule="nonzero" stroke="none"/></g></g></g></g></g><g transform="translate(12.064 13.272)" id="g114"><path id="path116" d="m 0,0 h -4.968 v 11.797 h 1.42 V 1.419 h 2.129 V 11.797 H 0 Z" fill="#1496e2" fill-opacity="1" fill-rule="nonzero" stroke="none"/></g><path id="path118" d="M 39.017,32.432 H 54.095 V 31.013 H 39.017 Z" fill="#1496e2" fill-opacity="1" fill-rule="nonzero" stroke="none"/><g transform="translate(54.095 15.711)" id="g120"><path id="path122" d="m 0,0 h -4.45 l -11.129,11.071 1.001,1.006 L -3.864,1.419 H 0 Z" fill="#1496e2" fill-opacity="1" fill-rule="nonzero" stroke="none"/></g><g transform="translate(39.517 35.653)" id="g124"><path id="path126" d="m 0,0 -1.001,1.006 11.129,11.072 h 4.45 v -1.419 h -3.864 z" fill="#1496e2" fill-opacity="1" fill-rule="nonzero" stroke="none"/></g><path id="path128" d="m 54.805,42.187 h 9.668 v 9.668 H 54.805 Z M 65.892,40.768 H 53.385 v 12.507 h 12.507 z" fill="#1496e2" fill-opacity="1" fill-rule="nonzero" stroke="none"/><g id="g130"><g clip-path="url(#clipPath136)" id="g132"><g id="g138"><g id="g150"><g id="g148" clip-path="url(#clipPath144)" opacity=".2"><path id="path146" d="M 56.755,54.081 H 67.842 V 42.994 H 56.755 Z" fill="#6d53fe" fill-opacity="1" fill-rule="nonzero" stroke="none"/></g></g></g></g></g><path id="path152" d="m 54.805,26.887 h 9.668 v 9.667 H 54.805 Z M 65.892,25.468 H 53.385 v 12.506 h 12.507 z" fill="#1496e2" fill-opacity="1" fill-rule="nonzero" stroke="none"/><path id="path154" d="m 54.805,11.586 h 9.668 v 9.668 h -9.668 z m 11.087,-1.42 H 53.385 v 12.507 h 12.507 z" fill="#1496e2" fill-opacity="1" fill-rule="nonzero" stroke="none"/><g id="g156"><g clip-path="url(#clipPath162)" id="g158"><g id="g164"><g id="g176"><g id="g174" clip-path="url(#clipPath170)" opacity=".2"><path id="path172" d="M 56.09,19.06 H 67.178 V 7.973 H 56.09 Z" fill="#6d53fe" fill-opacity="1" fill-rule="nonzero" stroke="none"/></g></g></g></g></g><path id="path178" d="M 3.854,53.274 H 16.213 V 51.855 H 3.854 Z" fill="#1496e2" fill-opacity="1" fill-rule="nonzero" stroke="none"/><path id="path180" d="m 3.854,49.984 h 19.38 V 48.565 H 3.854 Z" fill="#1496e2" fill-opacity="1" fill-rule="nonzero" stroke="none"/><path id="path182" d="m 3.854,46.693 h 19.38 v -1.42 H 3.854 Z" fill="#1496e2" fill-opacity="1" fill-rule="nonzero" stroke="none"/><g transform="translate(16.731 13.523)" id="g184"><path id="path186" d="m 0,0 v -10.266 h 1.978 v -3.257 l 3.258,3.257 h 11.76 V 0 Z" fill="#6d53fe" fill-opacity="1" fill-rule="nonzero" stroke="none"/></g><path id="path188" d="m 15.441,61.257 h 1.42 v -1.419 h -1.42 z" fill="#1496e2" fill-opacity="1" fill-rule="nonzero" stroke="none"/><path id="path190" d="M 18.281,61.257 H 19.7 v -1.419 h -1.419 z" fill="#1496e2" fill-opacity="1" fill-rule="nonzero" stroke="none"/><path id="path192" d="m 21.12,61.257 h 1.42 v -1.419 h -1.42 z" fill="#1496e2" fill-opacity="1" fill-rule="nonzero" stroke="none"/><g transform="translate(31.932 45.798)" id="g194"><path id="path196" d="m 0,0 v -28.156 l 0.709,-0.335 V 0.337 Z" fill="#1496e2" fill-opacity="1" fill-rule="nonzero" stroke="none"/></g><g id="g198"><g clip-path="url(#clipPath204)" id="g200"><g id="g206"><g id="g218"><g id="g216" clip-path="url(#clipPath212)" opacity=".7"><path id="path214" d="M 16.73,13.524 H 33.725 V 6.221 H 16.73 Z" fill="#6d53fe" fill-opacity="1" fill-rule="nonzero" stroke="none"/></g></g></g><g id="g220"><g id="g232"><g id="g230" clip-path="url(#clipPath226)" opacity=".8"><path id="path228" d="m 11.354,38.372 h 4.878 V 25.068 h -4.878 z" fill="#6d53fe" fill-opacity="1" fill-rule="nonzero" stroke="none"/></g></g></g></g></g><path id="path234" d="m 11.354,13.271 h 0.709 v 11.797 h -0.709 z" fill="#1496e2" fill-opacity="1" fill-rule="nonzero" stroke="none"/><path id="path236" d="m 10.645,21.078 h 1.42 v -3.104 h -1.42 z" fill="#1496e2" fill-opacity="1" fill-rule="nonzero" stroke="none"/><g transform="translate(2.927 34.337)" id="g238"><path id="path240" d="M 0,0 H 1.508 V -5.232 H 0 v -1.42 H 2.928 V 1.419 L 0,1.419 Z" fill="#1496e2" fill-opacity="1" fill-rule="nonzero" stroke="none"/></g><path id="path242" d="m 11.354,46.693 h 11.879 v -1.42 H 11.354 Z" fill="#1496e2" fill-opacity="1" fill-rule="nonzero" stroke="none"/><path id="path244" d="M 11.354,49.984 H 23.233 V 48.565 H 11.354 Z" fill="#1496e2" fill-opacity="1" fill-rule="nonzero" stroke="none"/><path id="path246" d="m 11.354,53.274 h 4.858 v -1.419 h -4.858 z" fill="#1496e2" fill-opacity="1" fill-rule="nonzero" stroke="none"/><path id="path248" d="m 39.017,32.432 h 10.92 v -1.419 h -10.92 z" fill="#1496e2" fill-opacity="1" fill-rule="nonzero" stroke="none"/><g transform="translate(49.938 17.422)" id="g250"><path id="path252" d="M 0,0 -10.421,10.366 -11.422,9.36 -0.293,-1.711 H 0 Z" fill="#1496e2" fill-opacity="1" fill-rule="nonzero" stroke="none"/></g><g transform="translate(38.516 36.659)" id="g254"><path id="path256" d="M 0,0 1.001,-1.006 11.422,9.361 v 1.711 h -0.293 z" fill="#1496e2" fill-opacity="1" fill-rule="nonzero" stroke="none"/></g><g transform="translate(56.756 51.856)" id="g258"><path id="path260" d="M 0,0 H 7.717 V -8.862 H 9.136 V 1.419 L 0,1.419 Z" fill="#1496e2" fill-opacity="1" fill-rule="nonzero" stroke="none"/></g><g transform="translate(53.385 28.395)" id="g262"><path id="path264" d="m 0,0 h 1.42 v 8.16 h 8.733 V 9.579 H 0 Z" fill="#1496e2" fill-opacity="1" fill-rule="nonzero" stroke="none"/></g><g transform="translate(65.892 19.062)" id="g266"><path id="path268" d="m 0,0 h -1.419 v -7.476 h -8.382 v -1.42 H 0 Z" fill="#1496e2" fill-opacity="1" fill-rule="nonzero" stroke="none"/></g><path id="path270" d="m 52.45,32.432 h 1.645 V 31.013 H 52.45 Z" fill="#1496e2" fill-opacity="1" fill-rule="nonzero" stroke="none"/><path id="path272" d="M 52.45,39.481 H 63.538 V 28.395 H 52.45 Z" fill="#6d53fe" fill-opacity="1" fill-rule="nonzero" stroke="none"/></g></svg>