<svg xmlns="http://www.w3.org/2000/svg" viewBox="0 0 48 47.893" height="47.893" width="48" xml:space="preserve" id="svg2" version="1.1"><defs id="defs6"><clipPath id="clipPath18" clipPathUnits="userSpaceOnUse"><path id="path16" d="M 0,35.92 H 36 V 0 H 0 Z"/></clipPath><clipPath id="clipPath26" clipPathUnits="userSpaceOnUse"><path id="path24" d="M 0.677704,25.5382 H 14.4677 V 12.1313 H 0.677704 Z"/></clipPath><clipPath id="clipPath64" clipPathUnits="userSpaceOnUse"><path id="path62" d="M 16.7616,13.5922 H 20.828 V 9.52583 h -4.0664 z"/></clipPath><clipPath id="clipPath84" clipPathUnits="userSpaceOnUse"><path id="path82" d="M 16.7616,19.0138 H 20.828 V 14.9476 H 16.7616 Z"/></clipPath><clipPath id="clipPath98" clipPathUnits="userSpaceOnUse"><path id="path96" d="M 16.7616,24.4354 H 20.828 V 20.3692 H 16.7616 Z"/></clipPath></defs><g transform="matrix(1.33333 0 0 -1.33333 0 47.893)" id="g10"><g id="g12"><g clip-path="url(#clipPath18)" id="g14"><g id="g20"><g id="g34"><g id="g32" clip-path="url(#clipPath26)" opacity=".5"><g id="g30" transform="translate(13.346 24.416)"><path id="path28" d="m 0,0 c -0.748,0.748 -1.728,1.122 -2.708,1.122 l -3.065,-3.064 -3.064,3.064 c -0.981,0 -1.961,-0.374 -2.709,-1.122 -0.748,-0.748 -1.122,-1.728 -1.122,-2.708 v -6.895 h 3.064 v -2.682 h 7.662 v 2.682 h 3.064 v 6.895 C 1.122,-1.728 0.748,-0.748 0,0" fill="#6d53fe" fill-opacity="1" fill-rule="nonzero" stroke="none"/></g></g></g></g><g transform="translate(7.573 34.565)" id="g36"><path id="path38" d="m 0,0 c -1.598,0 -2.897,-1.3 -2.897,-2.897 0,-1.598 1.299,-2.898 2.897,-2.898 1.598,0 2.897,1.3 2.897,2.898 C 2.897,-1.3 1.598,0 0,0 m 0,-7.15 c -2.345,0 -4.253,1.907 -4.253,4.253 0,2.345 1.908,4.252 4.253,4.252 2.345,0 4.253,-1.907 4.253,-4.252 C 4.253,-5.243 2.345,-7.15 0,-7.15" fill="#1496e2" fill-opacity="1" fill-rule="nonzero" stroke="none"/></g><path id="path40" d="M 6.896,10.726 H 8.251 V -10e-4 H 6.896 Z" fill="#1496e2" fill-opacity="1" fill-rule="nonzero" stroke="none"/><path id="path42" d="M 3.063,14.812 H 4.418 V -0.001 H 3.063 Z" fill="#1496e2" fill-opacity="1" fill-rule="nonzero" stroke="none"/><path id="path44" d="m 10.726,14.812 h 1.355 V -0.001 h -1.355 z" fill="#1496e2" fill-opacity="1" fill-rule="nonzero" stroke="none"/><g transform="translate(15.146 12.091)" id="g46"><path id="path48" d="m 0,0 h -3.742 v 1.355 h 2.387 v 8.261 c 0,0.842 -0.329,1.634 -0.924,2.23 -0.596,0.595 -1.387,0.923 -2.229,0.923 h -6.129 c -0.842,0 -1.634,-0.328 -2.23,-0.923 -0.595,-0.596 -0.923,-1.388 -0.923,-2.23 V 1.355 h 2.387 V 0 h -3.743 v 9.616 c 0,1.204 0.469,2.336 1.321,3.188 0.851,0.851 1.984,1.32 3.188,1.32 h 6.129 c 1.204,0 2.336,-0.469 3.187,-1.32 C -0.469,11.952 0,10.82 0,9.616 Z" fill="#1496e2" fill-opacity="1" fill-rule="nonzero" stroke="none"/></g><g transform="translate(36)" id="g50"><path id="path52" d="m 0,0 h -21.532 v 1.355 h 20.177 v 28.476 l -4.724,4.725 h -15.453 v 1.356 H -5.519 L 0,30.393 Z" fill="#1496e2" fill-opacity="1" fill-rule="nonzero" stroke="none"/></g><g transform="translate(35.321 29.436)" id="g54"><path id="path56" d="m 0,0 h -5.798 v 5.799 h 1.356 V 1.355 l 4.442,0 z" fill="#1496e2" fill-opacity="1" fill-rule="nonzero" stroke="none"/></g><g id="g58"><g id="g70"><g id="g68" clip-path="url(#clipPath64)" opacity=".5"><path id="path66" d="m 16.762,13.592 h 4.066 V 9.526 h -4.066 z" fill="#6d53fe" fill-opacity="1" fill-rule="nonzero" stroke="none"/></g></g></g><path id="path72" d="m 18.117,12.237 h 1.355 v -1.355 h -1.355 z" fill="#1496e2" fill-opacity="1" fill-rule="nonzero" stroke="none"/><path id="path74" d="m 22.184,13.592 h 5.421 v -1.355 h -5.421 z" fill="#1496e2" fill-opacity="1" fill-rule="nonzero" stroke="none"/><path id="path76" d="M 22.184,10.881 H 33.027 V 9.526 H 22.184 Z" fill="#1496e2" fill-opacity="1" fill-rule="nonzero" stroke="none"/><g id="g78"><g id="g90"><g id="g88" clip-path="url(#clipPath84)" opacity=".5"><path id="path86" d="m 16.762,19.014 h 4.066 v -4.066 h -4.066 z" fill="#6d53fe" fill-opacity="1" fill-rule="nonzero" stroke="none"/></g></g></g><g id="g92"><g id="g104"><g id="g102" clip-path="url(#clipPath98)" opacity=".5"><path id="path100" d="m 16.762,24.436 h 4.066 V 20.37 h -4.066 z" fill="#6d53fe" fill-opacity="1" fill-rule="nonzero" stroke="none"/></g></g></g><path id="path106" d="m 18.117,23.081 h 1.355 v -1.355 h -1.355 z" fill="#1496e2" fill-opacity="1" fill-rule="nonzero" stroke="none"/><path id="path108" d="m 22.184,24.436 h 5.421 v -1.355 h -5.421 z" fill="#1496e2" fill-opacity="1" fill-rule="nonzero" stroke="none"/><path id="path110" d="M 22.184,21.725 H 33.027 V 20.37 H 22.184 Z" fill="#1496e2" fill-opacity="1" fill-rule="nonzero" stroke="none"/></g></g></g></svg>