<svg xmlns="http://www.w3.org/2000/svg" viewBox="0 0 42.979 47.583" height="47.583" width="42.979" xml:space="preserve" id="svg2" version="1.1"><defs id="defs6"><clipPath id="clipPath18" clipPathUnits="userSpaceOnUse"><path id="path16" d="M 0,35.688 H 32.234 V 0 H 0 Z"/></clipPath><clipPath id="clipPath26" clipPathUnits="userSpaceOnUse"><path id="path24" d="m 29.9315,31.0827 h 1.1512 v -2.878 h -1.1512 z"/></clipPath><clipPath id="clipPath44" clipPathUnits="userSpaceOnUse"><path id="path42" d="M 0,35.688 H 32.234 V 0 H 0 Z"/></clipPath><clipPath id="clipPath52" clipPathUnits="userSpaceOnUse"><path id="path50" d="m 28.7802,3.45363 h 3.4537 V 0 h -3.4537 z"/></clipPath><clipPath id="clipPath76" clipPathUnits="userSpaceOnUse"><path id="path74" d="M 0,35.688 H 32.234 V 0 H 0 Z"/></clipPath><clipPath id="clipPath92" clipPathUnits="userSpaceOnUse"><path id="path90" d="M 2.30241,16.2249 H 25.3266 V 12.7712 H 2.30241 Z"/></clipPath><clipPath id="clipPath108" clipPathUnits="userSpaceOnUse"><path id="path106" d="M 2.30241,21.2249 H 25.3266 V 17.7712 H 2.30241 Z"/></clipPath><clipPath id="clipPath124" clipPathUnits="userSpaceOnUse"><path id="path122" d="M 2.30241,26.2249 H 25.3266 V 22.7712 H 2.30241 Z"/></clipPath></defs><g transform="matrix(1.33333 0 0 -1.33333 0 47.583)" id="g10"><g id="g12"><g clip-path="url(#clipPath18)" id="g14"><g id="g20"><g id="g32"><g id="g30" clip-path="url(#clipPath26)" opacity=".5"><path id="path28" d="m 29.932,31.083 h 1.151 v -2.878 h -1.151 z" fill="#6d53fe" fill-opacity="1" fill-rule="nonzero" stroke="none"/></g></g></g></g></g><g transform="translate(29.46 28.78)" id="g34"><path id="path36" d="M 0,0 -0.668,-3.341 -0.68,-25.902 h 1.152 v 22.391 l 0.471,2.36 h 0.209 l 0.472,-2.36 v -22.391 h 1.15 V -3.449 L 2.094,0 Z" fill="#1496e2" fill-opacity="1" fill-rule="nonzero" stroke="none"/></g><g id="g38"><g clip-path="url(#clipPath44)" id="g40"><g id="g46"><g id="g60"><g id="g58" clip-path="url(#clipPath52)" opacity=".5"><g id="g56" transform="translate(29.932 2.303)"><path id="path54" d="m 0,0 v -0.576 c 0,-0.145 0.061,-0.283 0.177,-0.4 0.23,-0.228 0.565,-0.23 0.799,0.001 0.114,0.116 0.175,0.254 0.175,0.399 V 0 Z m 0.575,-2.303 c -0.45,0 -0.881,0.182 -1.212,0.514 -0.333,0.332 -0.514,0.763 -0.514,1.213 V 1.151 H 2.303 V -0.576 C 2.303,-1.026 2.12,-1.457 1.789,-1.788 1.456,-2.121 1.025,-2.303 0.575,-2.303" fill="#6d53fe" fill-opacity="1" fill-rule="nonzero" stroke="none"/></g></g></g></g></g></g><g transform="translate(24.75 6.332)" id="g62"><path id="path64" d="M 0,0 H -1.151 V 1.727 H 1.727 V 22.448 H 2.878 V 0.575 L 0,0.575 Z" fill="#1496e2" fill-opacity="1" fill-rule="nonzero" stroke="none"/></g><g transform="translate(0 28.78)" id="g66"><path id="path68" d="m 0,0 v -21.873 h 19.57 v 1.151 H 1.151 L 1.151,0 Z" fill="#1496e2" fill-opacity="1" fill-rule="nonzero" stroke="none"/></g><g id="g70"><g clip-path="url(#clipPath76)" id="g72"><g transform="translate(24.176 3.454)" id="g78"><path id="path80" d="m 0,0 c -0.15,0 -0.297,0.059 -0.407,0.168 l -3.285,3.285 h -0.913 v 1.151 h 1.151 c 0.153,0 0.3,-0.06 0.407,-0.168 L -0.576,1.965 V 2.878 H 0.575 V 0.575 C 0.575,0.343 0.436,0.132 0.22,0.043 0.148,0.014 0.074,0 0,0" fill="#1496e2" fill-opacity="1" fill-rule="nonzero" stroke="none"/></g><g transform="translate(27.629 29.932)" id="g82"><path id="path84" d="M 0,0 H -27.629 V 5.756 H 0 V 2.302 H -18.419 V 3.454 H -1.151 V 4.605 H -26.478 V 1.151 L 0,1.151 Z" fill="#1496e2" fill-opacity="1" fill-rule="nonzero" stroke="none"/></g><g id="g86"><g id="g100"><g id="g98" clip-path="url(#clipPath92)" opacity=".5" fill="#6d53fe" fill-opacity="1" fill-rule="nonzero" stroke="none"><path id="path94" d="M 2.302,16.225 H 25.326 V 15.074 H 2.302 Z"/><path id="path96" d="M 2.302,13.923 H 25.326 V 12.772 H 2.302 Z"/></g></g></g><g id="g102"><g id="g116"><g id="g114" clip-path="url(#clipPath108)" opacity=".5" fill="#6d53fe" fill-opacity="1" fill-rule="nonzero" stroke="none"><path id="path110" d="M 2.302,21.225 H 25.326 V 20.074 H 2.302 Z"/><path id="path112" d="M 2.302,18.922 H 25.326 V 17.771 H 2.302 Z"/></g></g></g><g id="g118"><g id="g132"><g id="g130" clip-path="url(#clipPath124)" opacity=".5" fill="#6d53fe" fill-opacity="1" fill-rule="nonzero" stroke="none"><path id="path126" d="M 2.302,26.225 H 25.326 V 25.074 H 2.302 Z"/><path id="path128" d="M 2.302,23.922 H 25.326 V 22.771 H 2.302 Z"/></g></g></g></g></g></g></svg>