<svg xmlns="http://www.w3.org/2000/svg" viewBox="0 0 46.363 47.111" height="47.111" width="46.363" xml:space="preserve" id="svg2" version="1.1"><defs id="defs6"><clipPath id="clipPath18" clipPathUnits="userSpaceOnUse"><path id="path16" d="M 0,35.333 H 34.772 V 0 H 0 Z"/></clipPath><clipPath id="clipPath26" clipPathUnits="userSpaceOnUse"><path id="path24" d="M 10.6561,26.7103 H 24.1164 V 16.0542 H 10.6561 Z"/></clipPath><clipPath id="clipPath42" clipPathUnits="userSpaceOnUse"><path id="path40" d="M 12.8995,22.6442 H 21.873 V 15.914 h -8.9735 z"/></clipPath><clipPath id="clipPath58" clipPathUnits="userSpaceOnUse"><path id="path56" d="M 8.01852,15.1429 H 27.0873 V 0 H 8.01852 Z"/></clipPath><clipPath id="clipPath86" clipPathUnits="userSpaceOnUse"><path id="path84" d="M 0,35.333 H 34.772 V 0 H 0 Z"/></clipPath><clipPath id="clipPath94" clipPathUnits="userSpaceOnUse"><path id="path92" d="m 16.1362,9.5 h 2.8334 V 6.66667 h -2.8334 z"/></clipPath><clipPath id="clipPath110" clipPathUnits="userSpaceOnUse"><path id="path108" d="M 8.6675,14.1042 H 26.1987 V 0.822922 H 8.6675 Z"/></clipPath></defs><g transform="matrix(1.33333 0 0 -1.33333 0 47.111)" id="g10"><g id="g12"><g clip-path="url(#clipPath18)" id="g14"><g id="g20"><g id="g34"><g id="g32" clip-path="url(#clipPath26)" opacity=".7"><g id="g30" transform="translate(24.117 16.054)"><path id="path28" d="m 0,0 h -1.122 v 3.926 c 0,3.092 -2.516,5.608 -5.608,5.608 -3.093,0 -5.609,-2.516 -5.609,-5.608 V 0 h -1.121 v 3.926 c 0,3.711 3.019,6.73 6.73,6.73 3.71,0 6.73,-3.019 6.73,-6.73 z" fill="#6d53fe" fill-opacity="1" fill-rule="nonzero" stroke="none"/></g></g></g></g><g id="g36"><g id="g50"><g id="g48" clip-path="url(#clipPath42)" opacity=".7"><g id="g46" transform="translate(21.873 15.914)"><path id="path44" d="m 0,0 h -1.121 v 2.244 c 0,1.886 -1.479,3.365 -3.365,3.365 -1.887,0 -3.366,-1.479 -3.366,-3.365 V 0 h -1.121 v 2.244 c 0,2.516 1.971,4.486 4.487,4.486 C -1.971,6.73 0,4.76 0,2.244 Z" fill="#6d53fe" fill-opacity="1" fill-rule="nonzero" stroke="none"/></g></g></g></g><g id="g52"><g id="g66"><g id="g64" clip-path="url(#clipPath58)" opacity=".7"><g id="g62" transform="translate(19.728 1.122)"><path id="path60" d="m 0,0 h 5.677 c 0.309,0 0.56,0.251 0.56,0.561 v 11.778 c 0,0.309 -0.251,0.56 -0.56,0.56 h -15.704 c -0.309,0 -0.561,-0.251 -0.561,-0.56 V 0.561 c 0,-0.31 0.252,-0.561 0.561,-0.561 h 5.676 c 0.243,0.979 1.112,1.683 2.176,1.683 C -1.111,1.683 -0.243,0.979 0,0 m 5.677,-1.122 h -6.731 v 0.561 c 0,0.64 -0.481,1.122 -1.121,1.122 -0.639,0 -1.122,-0.482 -1.122,-1.122 v -0.561 h -6.73 c -0.928,0 -1.682,0.755 -1.682,1.683 v 11.778 c 0,0.928 0.754,1.682 1.682,1.682 H 5.677 c 0.927,0 1.682,-0.754 1.682,-1.682 V 0.561 c 0,-0.928 -0.755,-1.683 -1.682,-1.683" fill="#6d53fe" fill-opacity="1" fill-rule="nonzero" stroke="none"/></g></g></g></g></g></g><g transform="translate(33.651 28.603)" id="g68"><path id="path70" d="m 0,0 v -23.556 h -5.609 v -1.121 h 6.73 L 1.121,0 Z" fill="#1496e2" fill-opacity="1" fill-rule="nonzero" stroke="none"/></g><g transform="translate(0 28.603)" id="g72"><path id="path74" d="m 0,0 v -24.677 h 6.73 v 1.121 H 1.121 L 1.121,0 Z" fill="#1496e2" fill-opacity="1" fill-rule="nonzero" stroke="none"/></g><g transform="translate(0 35.333)" id="g76"><path id="path78" d="m 0,0 v -5.608 h 34.772 v 1.122 H 1.121 v 3.365 h 32.53 V -2.243 H 8.974 V -3.365 H 34.772 V 0 Z" fill="#1496e2" fill-opacity="1" fill-rule="nonzero" stroke="none"/></g><g id="g80"><g clip-path="url(#clipPath86)" id="g82"><g id="g88"><g id="g102"><g id="g100" clip-path="url(#clipPath94)" opacity=".7"><g id="g98" transform="translate(18.97 8.084)"><path id="path96" d="m 0,0 c 0,-0.783 -0.634,-1.417 -1.417,-1.417 -0.782,0 -1.416,0.634 -1.416,1.417 0,0.782 0.634,1.416 1.416,1.416 C -0.634,1.416 0,0.782 0,0" fill="#6d53fe" fill-opacity="1" fill-rule="nonzero" stroke="none"/></g></g></g></g><g id="g104"><g id="g116"><g id="g114" clip-path="url(#clipPath110)" opacity=".1"><path id="path112" d="M 26.199,0.823 H 8.668 v 13.281 h 17.531 z" fill="#6d53fe" fill-opacity="1" fill-rule="nonzero" stroke="none"/></g></g></g></g></g></g></svg>