<svg xmlns="http://www.w3.org/2000/svg" viewBox="0 0 46.545 46.547" height="46.547" width="46.545" xml:space="preserve" id="svg2" version="1.1"><defs id="defs6"><clipPath id="clipPath18" clipPathUnits="userSpaceOnUse"><path id="path16" d="M 0,34.91 H 34.909 V 0 H 0 Z"/></clipPath><clipPath id="clipPath38" clipPathUnits="userSpaceOnUse"><path id="path36" d="M 22.9061,12.0028 H 34.9089 V 0 H 22.9061 Z"/></clipPath></defs><g transform="matrix(1.33333 0 0 -1.33333 0 46.547)" id="g10"><g id="g12"><g clip-path="url(#clipPath18)" id="g14"><g transform="translate(4.854 29.04)" id="g20"><path id="path22" d="m 0,0 -1.067,0.961 c 0.334,0.371 0.689,0.728 1.055,1.061 L 0.954,0.96 C 0.624,0.66 0.302,0.336 0,0 M 3.125,2.568 C 2.738,2.339 2.359,2.087 1.999,1.819 L 1.144,2.973 c 0.4,0.297 0.819,0.576 1.247,0.829 z m -4.719,-4.748 -1.239,0.726 c 0.251,0.43 0.527,0.851 0.821,1.253 l 1.159,-0.848 C -1.118,-1.412 -1.368,-1.792 -1.594,-2.18 M 5.574,3.703 C 5.149,3.557 4.728,3.387 4.32,3.198 L 3.716,4.501 c 0.452,0.209 0.92,0.398 1.39,0.56 z m -8.288,-8.339 -1.36,0.459 c 0.158,0.472 0.344,0.941 0.551,1.394 l 1.306,-0.596 C -2.402,-3.788 -2.57,-4.21 -2.714,-4.636 M 8.205,4.321 C 7.758,4.263 7.31,4.181 6.873,4.079 L 6.545,5.477 C 7.029,5.59 7.524,5.681 8.019,5.745 Z m -11.52,-11.59 -1.425,0.176 c 0.061,0.495 0.148,0.991 0.259,1.475 l 1.399,-0.319 C -3.181,-6.375 -3.26,-6.822 -3.315,-7.269 M 10.905,4.398 C 10.457,4.431 10.002,4.441 9.553,4.428 L 9.511,5.863 c 0.498,0.015 1.002,0.004 1.497,-0.032 z M -3.376,-9.97 -4.808,-10.083 c -0.039,0.497 -0.053,1.001 -0.042,1.498 l 1.436,-0.034 c -0.01,-0.448 0.002,-0.903 0.038,-1.351 M 13.566,3.934 c -0.432,0.122 -0.876,0.222 -1.318,0.3 l 0.246,1.414 c 0.491,-0.085 0.982,-0.197 1.461,-0.331 z m -16.462,-16.563 -1.38,-0.397 c -0.137,0.476 -0.252,0.967 -0.341,1.458 l 1.414,0.256 c 0.08,-0.443 0.183,-0.887 0.307,-1.317 M 16.077,2.943 C 15.68,3.149 15.266,3.337 14.848,3.502 l 0.526,1.336 c 0.464,-0.183 0.923,-0.391 1.364,-0.62 z M -1.889,-15.135 -3.16,-15.803 c -0.232,0.44 -0.444,0.898 -0.629,1.36 l 1.333,0.534 c 0.167,-0.416 0.358,-0.829 0.567,-1.226 M 18.336,1.464 c -0.348,0.283 -0.715,0.551 -1.092,0.797 l 0.787,1.201 c 0.417,-0.273 0.824,-0.57 1.21,-0.883 z m -18.732,-18.849 -1.109,-0.911 c -0.317,0.385 -0.617,0.79 -0.891,1.204 l 1.196,0.794 c 0.248,-0.373 0.518,-0.739 0.804,-1.087 M 21.402,0.427 20.291,-0.482 C 20.007,-0.134 19.7,0.203 19.383,0.521 l -0.041,0.041 1.015,1.016 0.034,-0.034 C 20.75,1.185 21.088,0.812 21.402,0.427 M 0.612,-20.406 c -0.383,0.313 -0.758,0.65 -1.112,1.002 l 1.014,1.018 c 0.32,-0.319 0.658,-0.623 1.005,-0.906 z m 22.44,18.337 -1.273,-0.666 c -0.21,0.4 -0.44,0.792 -0.687,1.164 l 1.198,0.793 c 0.273,-0.414 0.529,-0.848 0.762,-1.291 m -19.94,-19.98 c -0.442,0.229 -0.877,0.485 -1.292,0.758 l 0.789,1.2 c 0.375,-0.246 0.767,-0.477 1.166,-0.685 z M 24.161,-4.848 22.78,-5.243 c -0.124,0.432 -0.27,0.863 -0.437,1.28 l 1.334,0.532 c 0.184,-0.462 0.347,-0.939 0.484,-1.417 M 5.893,-23.153 c -0.479,0.135 -0.956,0.297 -1.418,0.481 l 0.529,1.335 c 0.417,-0.166 0.848,-0.312 1.281,-0.435 z m 18.794,15.36 -1.431,-0.109 c -0.034,0.449 -0.092,0.901 -0.171,1.342 l 1.414,0.252 c 0.087,-0.488 0.15,-0.988 0.188,-1.485 M 8.838,-23.674 c -0.496,0.037 -0.996,0.099 -1.485,0.186 l 0.25,1.414 c 0.442,-0.078 0.893,-0.134 1.341,-0.168 z m 15.775,12.891 -1.424,0.18 c 0.056,0.446 0.09,0.9 0.101,1.349 l 1.436,-0.036 c -0.012,-0.497 -0.05,-0.999 -0.113,-1.493 M 11.828,-23.594 c -0.494,-0.064 -0.996,-0.103 -1.493,-0.115 l -0.038,1.435 c 0.449,0.012 0.903,0.047 1.349,0.105 z m 12.114,9.896 -1.359,0.463 c 0.145,0.425 0.269,0.862 0.369,1.3 l 1.4,-0.322 c -0.112,-0.485 -0.249,-0.97 -0.41,-1.441 m -9.2,-9.219 c -0.47,-0.161 -0.954,-0.299 -1.439,-0.413 l -0.326,1.4 c 0.439,0.101 0.877,0.227 1.299,0.373 z" fill="#1496e2" fill-opacity="1" fill-rule="nonzero" stroke="none"/></g><g transform="translate(14.792 29.453)" id="g24"><path id="path26" d="m 0,0 c -2.493,0 -4.837,-0.971 -6.601,-2.734 -3.639,-3.64 -3.639,-9.562 0,-13.202 1.764,-1.763 4.108,-2.733 6.601,-2.733 2.494,0 4.838,0.97 6.601,2.733 1.763,1.764 2.734,4.107 2.734,6.601 0,2.494 -0.971,4.837 -2.734,6.601 C 4.837,-0.971 2.494,0 0,0 m 0,-20.106 c -2.877,0 -5.582,1.12 -7.616,3.155 -4.199,4.2 -4.199,11.033 0,15.232 2.034,2.035 4.739,3.155 7.616,3.155 2.877,0 5.582,-1.12 7.616,-3.155 2.034,-2.034 3.155,-4.739 3.155,-7.615 0,-2.878 -1.121,-5.583 -3.155,-7.617 C 5.582,-18.986 2.877,-20.106 0,-20.106" fill="#1496e2" fill-opacity="1" fill-rule="nonzero" stroke="none"/></g><g transform="translate(22.41 13.517)" id="g28"><path id="path30" d="m 0,0 2.64,-2.641 -1.016,-1.015 -2.64,2.64 z" fill="#1496e2" fill-opacity="1" fill-rule="nonzero" stroke="none"/></g><g id="g32"><g id="g46"><g id="g44" clip-path="url(#clipPath38)" opacity=".5"><g id="g42" transform="translate(22.906 8.733)"><path id="path40" d="m 0,0 3.27,3.27 8.733,-8.734 -3.27,-3.269 z" fill="#6d53fe" fill-opacity="1" fill-rule="nonzero" stroke="none"/></g></g></g></g><g transform="translate(22.26 20.118)" id="g48"><path id="path50" d="m 0,0 h -1.437 c 0,3.326 -2.706,6.032 -6.031,6.032 C -10.794,6.032 -13.5,3.326 -13.5,0 h -1.436 c 0,4.118 3.35,7.468 7.468,7.468 C -3.35,7.468 0,4.118 0,0" fill="#1496e2" fill-opacity="1" fill-rule="nonzero" stroke="none"/></g><g transform="translate(27.292 10.887)" id="g52"><path id="path54" d="m 0,0 1.015,-1.016 -3.271,-3.268 -1.015,1.015 z" fill="#1496e2" fill-opacity="1" fill-rule="nonzero" stroke="none"/></g><g transform="translate(32.778 5.404)" id="g56"><path id="path58" d="M 0,0 1.016,-1.017 -2.255,-4.285 -3.271,-3.27 Z" fill="#1496e2" fill-opacity="1" fill-rule="nonzero" stroke="none"/></g><g transform="translate(14.792 17.246)" id="g60"><path id="path62" d="M 0,0 C 1.583,0 2.872,1.289 2.872,2.873 2.872,4.456 1.583,5.745 0,5.745 -1.583,5.745 -2.873,4.456 -2.873,2.873 -2.872,1.289 -1.583,0 0,0" fill="#6d53fe" fill-opacity="1" fill-rule="nonzero" stroke="none"/></g><g transform="translate(14.792 12.65)" id="g64"><path id="path66" d="M 0,0 C 1.589,0 3.063,0.498 4.273,1.346 3.44,2.85 1.838,3.871 0,3.871 -1.838,3.871 -3.44,2.85 -4.273,1.345 -3.063,0.498 -1.59,0 0,0" fill="#6d53fe" fill-opacity="1" fill-rule="nonzero" stroke="none"/></g></g></g></g></svg>