<svg xmlns="http://www.w3.org/2000/svg" viewBox="0 0 41.352 47.333" height="47.333" width="41.352" xml:space="preserve" id="svg2" version="1.1"><defs id="defs6"><clipPath id="clipPath18" clipPathUnits="userSpaceOnUse"><path id="path16" d="M 0,35.5 H 31.014 V 0 H 0 Z"/></clipPath><clipPath id="clipPath46" clipPathUnits="userSpaceOnUse"><path id="path44" d="M 10.3131,17.0249 H 23.1462 V 9.42056 H 10.3131 Z"/></clipPath><clipPath id="clipPath66" clipPathUnits="userSpaceOnUse"><path id="path64" d="M 0,15.8555 H 8.97057 V 15.0509 H 0 Z"/></clipPath><clipPath id="clipPath80" clipPathUnits="userSpaceOnUse"><path id="path78" d="M 0,12.7128 H 13.456 V 2.47984 H 0 Z"/></clipPath><clipPath id="clipPath106" clipPathUnits="userSpaceOnUse"><path id="path104" d="m 19.2187,11.7966 h 3.1427 V 9.42056 h -3.1427 z"/></clipPath></defs><g transform="matrix(1.33333 0 0 -1.33333 0 47.333)" id="g10"><g id="g12"><g clip-path="url(#clipPath18)" id="g14"><g transform="translate(20.786 21.214)" id="g20"><path id="path22" d="m 0,0 c -2.239,0 -4.055,1.813 -4.055,4.062 0,2.245 1.816,4.062 4.055,4.062 2.256,0 4.064,-1.817 4.064,-4.062 C 4.064,1.813 2.256,0 0,0 M 7.338,3.504 V 4.619 L 5.787,4.931 C 5.722,5.373 5.605,5.797 5.445,6.2 L 6.633,7.251 6.081,8.207 4.577,7.702 C 4.301,8.046 3.989,8.358 3.644,8.633 L 4.149,10.139 3.19,10.691 2.143,9.499 C 1.739,9.658 1.314,9.773 0.874,9.839 L 0.56,11.397 H -0.551 L -0.863,9.84 C -1.305,9.774 -1.729,9.658 -2.133,9.5 L -3.18,10.691 -4.142,10.139 -3.634,8.632 C -3.978,8.357 -4.29,8.045 -4.564,7.701 L -6.069,8.207 -6.623,7.251 -5.434,6.198 C -5.592,5.796 -5.708,5.373 -5.772,4.932 L -7.33,4.619 -7.327,3.504 -5.772,3.192 c 0.064,-0.441 0.181,-0.864 0.339,-1.267 l -1.19,-1.05 0.554,-0.958 1.505,0.507 c 0.274,-0.343 0.586,-0.656 0.931,-0.931 l -0.509,-1.507 0.962,-0.552 1.046,1.192 c 0.404,-0.159 0.828,-0.275 1.27,-0.341 l 0.313,-1.56 H 0.56 l 0.314,1.56 c 0.441,0.066 0.866,0.182 1.27,0.341 l 1.047,-1.192 0.958,0.552 -0.506,1.506 c 0.345,0.275 0.658,0.587 0.934,0.932 L 6.081,-0.083 6.633,0.875 5.444,1.923 c 0.16,0.403 0.278,0.829 0.343,1.271 z" fill="#1496e2" fill-opacity="1" fill-rule="nonzero" stroke="none"/></g><g transform="translate(20.786 28.936)" id="g24"><path id="path26" d="m 0,0 c -2.014,0 -3.653,-1.642 -3.653,-3.659 0,-2.018 1.639,-3.66 3.653,-3.66 2.02,0 3.662,1.641 3.662,3.66 C 3.662,-1.642 2.02,0 0,0 m 0,-8.124 c -2.458,0 -4.458,2.003 -4.458,4.465 0,2.461 2,4.464 4.458,4.464 2.463,0 4.467,-2.003 4.467,-4.464 0,-2.462 -2.004,-4.465 -4.467,-4.465" fill="#6d53fe" fill-opacity="1" fill-rule="nonzero" stroke="none"/></g><path id="path28" d="m 20.388,27.633 h 0.805 V 24.49 h -0.805 z" fill="#6d53fe" fill-opacity="1" fill-rule="nonzero" stroke="none"/><path id="path30" d="m 20.388,23.704 h 0.805 v -0.786 h -0.805 z" fill="#6d53fe" fill-opacity="1" fill-rule="nonzero" stroke="none"/><g transform="translate(20.79 34.695)" id="g32"><path id="path34" d="m 0,0 c -5.194,0 -9.42,-4.226 -9.42,-9.419 0,-5.195 4.225,-9.421 9.42,-9.421 5.193,0 9.419,4.226 9.419,9.421 C 9.419,-4.226 5.193,0 0,0 m 0,-19.645 c -5.638,0 -10.225,4.587 -10.225,10.226 0,5.637 4.587,10.224 10.225,10.224 5.638,0 10.224,-4.587 10.224,-10.224 0,-5.639 -4.586,-10.226 -10.224,-10.226" fill="#1496e2" fill-opacity="1" fill-rule="nonzero" stroke="none"/></g><path id="path36" d="m 20.388,15.454 h 0.805 v -2.882 h -0.805 z" fill="#1496e2" fill-opacity="1" fill-rule="nonzero" stroke="none"/><path id="path38" d="m 19.218,12.572 h 3.144 V 0 h -3.144 z" fill="#1496e2" fill-opacity="1" fill-rule="nonzero" stroke="none"/><g id="g40"><g id="g58"><g id="g56" clip-path="url(#clipPath46)" opacity=".5"><path id="path48" d="m 18.432,11.797 h 4.714 v -0.805 h -4.714 z" fill="#1496e2" fill-opacity="1" fill-rule="nonzero" stroke="none"/><path id="path50" d="m 18.432,10.226 h 4.714 V 9.421 h -4.714 z" fill="#1496e2" fill-opacity="1" fill-rule="nonzero" stroke="none"/><g id="g54" transform="translate(12.652 14.687)"><path id="path52" d="M 0,0 H -1.534 V 1.534 H 0 Z m -2.339,-0.805 h 3.143 v 3.143 h -3.143 z" fill="#1496e2" fill-opacity="1" fill-rule="nonzero" stroke="none"/></g></g></g></g><g id="g60"><g id="g72"><g id="g70" clip-path="url(#clipPath66)" opacity=".5"><path id="path68" d="M 0,15.855 H 8.971 V 15.05 H 0 Z" fill="#6d53fe" fill-opacity="1" fill-rule="nonzero" stroke="none"/></g></g></g><g id="g74"><g id="g98"><g id="g96" clip-path="url(#clipPath80)" opacity=".5" fill="#6d53fe" fill-opacity="1" fill-rule="nonzero" stroke="none"><path id="path82" d="M 0,12.713 H 8.971 V 11.908 H 0 Z"/><path id="path84" d="m 4.485,11.142 h 8.971 V 10.337 H 4.485 Z"/><path id="path86" d="m 4.485,9.57 h 8.971 V 8.765 H 4.485 Z"/><path id="path88" d="m 4.485,7.999 h 8.971 V 7.194 H 4.485 Z"/><path id="path90" d="m 4.485,6.428 h 8.971 V 5.623 H 4.485 Z"/><path id="path92" d="m 4.485,4.855 h 8.971 V 4.05 H 4.485 Z"/><path id="path94" d="m 4.485,3.284 h 8.971 V 2.479 H 4.485 Z"/></g></g></g><g id="g100"><g id="g114"><g id="g112" clip-path="url(#clipPath106)" opacity=".5" fill="#1496e2" fill-opacity="1" fill-rule="nonzero" stroke="none"><path id="path108" d="m 19.218,11.797 h 3.144 v -0.805 h -3.144 z"/><path id="path110" d="m 19.218,10.226 h 3.144 V 9.421 h -3.144 z"/></g></g></g></g></g></g></svg>