<svg xmlns="http://www.w3.org/2000/svg" viewBox="0 0 55.156 42.448" height="42.448" width="55.156" xml:space="preserve" id="svg2" version="1.1"><defs id="defs6"><clipPath id="clipPath30" clipPathUnits="userSpaceOnUse"><path id="path28" d="M 0,31.836 H 41.367 V 0 H 0 Z"/></clipPath><clipPath id="clipPath38" clipPathUnits="userSpaceOnUse"><path id="path36" d="M 10.9552,31.8363 H 38.2178 V 9.95813 H 10.9552 Z"/></clipPath><clipPath id="clipPath58" clipPathUnits="userSpaceOnUse"><path id="path56" d="M 0,31.836 H 41.367 V 0 H 0 Z"/></clipPath></defs><g transform="matrix(1.33333 0 0 -1.33333 0 42.448)" id="g10"><g transform="translate(0 19.328)" id="g12"><path id="path14" d="M 0,0 V -0.538 H 7.807 V -17.361 H 0 v -0.538 H 8.345 V 0 Z" fill="#1496e2" fill-opacity="1" fill-rule="nonzero" stroke="none"/></g><g transform="translate(.095 19.233)" id="g16"><path id="path18" d="M 0,0 V -0.348 H 7.807 V -17.361 H 0 V -17.71 H 8.156 V 0 Z" fill="#1496e2" fill-opacity="1" fill-rule="nonzero" stroke="none"/></g><path id="path20" d="M 4.837,4.789 H 5.376 V 5.328 H 4.837 Z" fill="#1496e2" fill-opacity="1" fill-rule="nonzero" stroke="none"/><path id="path22" d="M 4.932,4.883 H 5.281 V 5.234 H 4.932 Z" fill="#1496e2" fill-opacity="1" fill-rule="nonzero" stroke="none"/><g id="g24"><g clip-path="url(#clipPath30)" id="g26"><g id="g32"><g id="g46"><g id="g44" clip-path="url(#clipPath38)" opacity=".6"><g id="g42" transform="translate(31.816 10.127)"><path id="path40" d="m 0,0 c -0.008,1.279 -1.056,2.32 -2.334,2.32 h -9.633 l -3.292,2.107 c -0.823,0.526 -1.713,0.931 -2.647,1.204 -0.883,0.26 -1.798,0.398 -2.719,0.411 l -0.081,0.001 -0.011,0.08 c -0.095,0.652 -0.144,1.31 -0.144,1.956 0,7.516 6.115,13.63 13.632,13.63 7.516,0 13.631,-6.114 13.631,-13.63 0,-1.645 -0.295,-3.262 -0.874,-4.804 L 0.001,-0.169 Z" fill="#6d53fe" fill-opacity="1" fill-rule="nonzero" stroke="none"/></g></g></g></g></g></g><path id="path48" d="m 25.754,22.361 h 2.094 v -9.913 h -2.094 z" fill="#fff" fill-opacity="1" fill-rule="nonzero" stroke="none"/><path id="path50" d="m 25.848,22.266 h 1.906 v -9.724 h -1.906 z" fill="#fff" fill-opacity="1" fill-rule="nonzero" stroke="none"/><g id="g52"><g clip-path="url(#clipPath58)" id="g54"><g transform="translate(31.722 10.113)" id="g60"><path id="path62" d="m 0,0 c 0,0.982 -0.63,1.84 -1.567,2.135 l -0.066,0.02 V 15.137 H 0.65 v -15 L 0.14,-0.234 -0.015,-0.33 Z" fill="#fff" fill-opacity="1" fill-rule="nonzero" stroke="none"/></g><g transform="translate(31.816 10.113)" id="g64"><path id="path66" d="M 0,0 C 0,1.033 -0.678,1.926 -1.632,2.225 V 15.042 H 0.463 V 0.137 L -0.004,-0.154 C -0.001,-0.104 0,-0.052 0,0" fill="#fff" fill-opacity="1" fill-rule="nonzero" stroke="none"/></g><g transform="translate(16.898 14.336)" id="g68"><path id="path70" d="M 0,0 -0.01,2.437 H 2.091 V -1.339 Z" fill="#fff" fill-opacity="1" fill-rule="nonzero" stroke="none"/></g><g transform="translate(16.948 14.416)" id="g72"><path id="path74" d="M 0,0 0.033,2.262 H 1.946 V -1.246 Z" fill="#fff" fill-opacity="1" fill-rule="nonzero" stroke="none"/></g><path id="path76" d="m 21.324,19.567 h 2.094 v -7.121 h -2.094 z" fill="#fff" fill-opacity="1" fill-rule="nonzero" stroke="none"/><path id="path78" d="m 21.419,19.471 h 1.905 V 12.54 h -1.905 z" fill="#fff" fill-opacity="1" fill-rule="nonzero" stroke="none"/><g transform="translate(23.816)" id="g80"><path id="path82" d="M 0,0 C -0.582,0 -1.158,0.104 -1.712,0.312 L -12.883,4.79 -15.267,4.789 v 0.539 h 2.487 L -1.519,0.813 c 0.49,-0.181 1.001,-0.275 1.521,-0.275 0.153,0 0.306,0.008 0.46,0.024 0.681,0.072 1.316,0.293 1.891,0.658 l 13.977,9.158 c 0.367,0.272 0.599,0.648 0.664,1.087 0.067,0.437 -0.044,0.874 -0.312,1.229 -0.265,0.351 -0.62,0.576 -1.029,0.652 -0.101,0.018 -0.201,0.028 -0.299,0.028 -0.306,0 -0.605,-0.085 -0.865,-0.246 L 7.445,8.742 7.161,9.199 l 7.044,4.384 c 0.346,0.214 0.742,0.328 1.147,0.328 0.13,0 0.265,-0.012 0.396,-0.036 0.536,-0.1 1.013,-0.393 1.34,-0.827 0.375,-0.496 0.526,-1.071 0.438,-1.663 C 17.439,10.803 17.127,10.291 16.65,9.946 L 2.643,0.767 C 1.995,0.356 1.279,0.107 0.518,0.027 0.345,0.01 0.173,0 0,0" fill="#1496e2" fill-opacity="1" fill-rule="nonzero" stroke="none"/></g><g transform="translate(23.816 .094)" id="g84"><path id="path86" d="m 0,0 c -0.57,0 -1.135,0.103 -1.679,0.306 l -11.169,4.477 -2.324,0.006 V 5.14 h 2.392 L -1.554,0.632 c 0.506,-0.19 1.026,-0.282 1.556,-0.282 0.156,0 0.311,0.006 0.47,0.023 0.695,0.073 1.345,0.3 1.931,0.673 l 13.979,9.158 c 0.395,0.292 0.638,0.695 0.706,1.151 0.07,0.464 -0.048,0.926 -0.33,1.302 -0.279,0.367 -0.654,0.607 -1.087,0.688 -0.108,0.019 -0.213,0.028 -0.317,0.028 -0.323,0 -0.639,-0.09 -0.915,-0.26 L 7.477,8.777 7.291,9.074 l 6.964,4.333 c 0.33,0.205 0.71,0.315 1.097,0.315 0.126,0 0.252,-0.011 0.378,-0.035 0.514,-0.094 0.969,-0.375 1.282,-0.791 0.36,-0.476 0.506,-1.026 0.422,-1.592 C 17.35,10.747 17.052,10.259 16.595,9.929 L 2.591,0.752 C 1.958,0.351 1.254,0.105 0.507,0.026 0.338,0.009 0.169,0 0,0" fill="#1496e2" fill-opacity="1" fill-rule="nonzero" stroke="none"/></g><g transform="translate(17.513 6.768)" id="g88"><path id="path90" d="m 0,0 0.026,0.116 c 0.229,1.002 1.142,1.73 2.171,1.73 h 9.772 c 0.825,0 1.498,0.672 1.498,1.499 0,0.825 -0.673,1.497 -1.498,1.497 H 2.118 l -3.526,2.239 c -0.751,0.481 -1.569,0.853 -2.429,1.105 -0.857,0.252 -1.746,0.378 -2.642,0.378 h -2.58 v 0.728 h 2.58 c 0.964,0 1.922,-0.138 2.846,-0.408 0.924,-0.27 1.804,-0.671 2.617,-1.191 l 3.342,-2.139 9.643,0.014 c 1.227,0 2.226,-0.998 2.226,-2.224 0,-1.228 -0.999,-2.225 -2.226,-2.225 H 2.197 C 1.538,1.119 0.963,0.695 0.766,0.065 L 0.746,0 Z" fill="#1496e2" fill-opacity="1" fill-rule="nonzero" stroke="none"/></g><g transform="translate(17.632 6.863)" id="g92"><path id="path94" d="m 0,0 c 0.216,0.947 1.065,1.656 2.078,1.656 h 9.772 c 0.878,0 1.592,0.715 1.592,1.594 0,0.878 -0.714,1.592 -1.592,1.592 H 1.999 L -1.477,7.066 C -2.236,7.553 -3.061,7.928 -3.93,8.183 -4.796,8.436 -5.693,8.565 -6.599,8.565 h -2.484 v 0.538 h 2.484 c 0.956,0 1.905,-0.137 2.82,-0.405 0.915,-0.267 1.787,-0.664 2.592,-1.178 L 2.156,5.38 h 9.694 c 1.175,0 2.131,-0.956 2.131,-2.131 0,-1.175 -0.956,-2.131 -2.131,-2.131 H 2.078 C 1.364,1.118 0.759,0.647 0.557,0 Z" fill="#1496e2" fill-opacity="1" fill-rule="nonzero" stroke="none"/></g></g></g></g></svg>