<svg xmlns="http://www.w3.org/2000/svg" viewBox="0 0 47.377 44.816" height="44.816" width="47.377" xml:space="preserve" id="svg2" version="1.1"><defs id="defs6"><clipPath id="clipPath30" clipPathUnits="userSpaceOnUse"><path id="path28" d="M 0,33.612 H 35.533 V 0 H 0 Z"/></clipPath><clipPath id="clipPath54" clipPathUnits="userSpaceOnUse"><path id="path52" d="M 3.625,29.9873 H 31.9058 V 12.8633 H 3.625 Z"/></clipPath><clipPath id="clipPath68" clipPathUnits="userSpaceOnUse"><path id="path66" d="M 3.72505,29.8873 H 31.8066 V 12.9629 H 3.72505 Z"/></clipPath><clipPath id="clipPath90" clipPathUnits="userSpaceOnUse"><path id="path88" d="M 3.62549,18.4131 H 31.9058 V 12.8633 H 3.62549 Z"/></clipPath><clipPath id="clipPath106" clipPathUnits="userSpaceOnUse"><path id="path104" d="M 3.72559,18.3215 H 31.8066 V 12.9629 H 3.72559 Z"/></clipPath></defs><g transform="matrix(1.33333 0 0 -1.33333 0 44.816)" id="g10"><g transform="translate(22.38 3.177)" id="g12"><path id="path14" d="M 0,0 V -2.232 H -9.229 V 0 h -0.945 V -3.177 H 0.943 l 0,3.177 z" fill="#1496e2" fill-opacity="1" fill-rule="nonzero" stroke="none"/></g><g transform="translate(22.48 3.077)" id="g16"><path id="path18" d="M 0,0 V -2.231 H -9.428 V 0 h -0.746 V -2.977 H 0.744 l 0,2.977 z" fill="#1496e2" fill-opacity="1" fill-rule="nonzero" stroke="none"/></g><path id="path20" d="M 10.224,0.001 H 25.307 V 0.945 H 10.224 Z" fill="#1496e2" fill-opacity="1" fill-rule="nonzero" stroke="none"/><path id="path22" d="M 10.324,0.101 H 25.207 V 0.846 H 10.324 Z" fill="#1496e2" fill-opacity="1" fill-rule="nonzero" stroke="none"/><g id="g24"><g clip-path="url(#clipPath30)" id="g26"><g transform="translate(34.587 10.183)" id="g32"><path id="path34" d="m 0,0 v 21.737 c 0,0.197 -0.077,0.384 -0.218,0.525 -0.141,0.143 -0.331,0.222 -0.531,0.222 h -32.146 c -0.201,0 -0.388,-0.077 -0.526,-0.217 -0.143,-0.143 -0.222,-0.331 -0.222,-0.53 l 0,-21.737 z m -34.587,-0.945 v 22.682 c 0,0.453 0.176,0.878 0.496,1.196 0.316,0.32 0.741,0.496 1.196,0.496 h 32.146 c 0.455,0 0.881,-0.177 1.199,-0.498 0.32,-0.317 0.495,-0.742 0.495,-1.195 V -0.945 Z" fill="#1496e2" fill-opacity="1" fill-rule="nonzero" stroke="none"/></g><g transform="translate(1.693 32.767)" id="g36"><path id="path38" d="m 0,0 c -0.229,0 -0.441,-0.088 -0.598,-0.247 -0.16,-0.161 -0.25,-0.375 -0.25,-0.6 v -21.837 h 33.842 v 21.837 c 0,0.225 -0.088,0.436 -0.246,0.596 C 32.587,-0.089 32.374,0 32.146,0 Z m -1.593,-23.43 v 22.583 c 0,0.426 0.165,0.826 0.467,1.125 0.298,0.303 0.697,0.467 1.126,0.467 h 32.146 c 0.427,0 0.829,-0.166 1.127,-0.468 0.302,-0.299 0.467,-0.698 0.467,-1.125 V -23.43 Z" fill="#1496e2" fill-opacity="1" fill-rule="nonzero" stroke="none"/></g><g transform="translate(.945 6.862)" id="g40"><path id="path42" d="m 0,0 c 0,-0.199 0.078,-0.387 0.218,-0.528 0.141,-0.142 0.328,-0.22 0.529,-0.22 h 32.147 c 0.202,0 0.39,0.078 0.53,0.221 0.14,0.139 0.219,0.327 0.219,0.527 V 2.375 H 0 Z m 0.747,-1.692 c -0.454,0 -0.879,0.175 -1.197,0.496 C -0.769,-0.878 -0.945,-0.453 -0.945,0 V 3.32 H 34.588 V 0 c 0,-0.454 -0.177,-0.88 -0.498,-1.199 -0.318,-0.319 -0.742,-0.493 -1.196,-0.493 z" fill="#1496e2" fill-opacity="1" fill-rule="nonzero" stroke="none"/></g><g transform="translate(.845 6.862)" id="g44"><path id="path46" d="m 0,0 c 0,-0.227 0.088,-0.438 0.248,-0.599 0.157,-0.159 0.371,-0.249 0.599,-0.249 h 32.147 c 0.229,0 0.443,0.089 0.601,0.25 0.158,0.158 0.247,0.371 0.247,0.598 V 2.475 H 0 Z m 0.847,-1.593 c -0.427,0 -0.827,0.166 -1.126,0.467 -0.301,0.301 -0.466,0.7 -0.466,1.126 V 3.221 H 34.588 V 0 c 0,-0.429 -0.167,-0.828 -0.468,-1.128 -0.299,-0.3 -0.699,-0.465 -1.126,-0.465 z" fill="#1496e2" fill-opacity="1" fill-rule="nonzero" stroke="none"/></g><g id="g48"><g id="g60"><g id="g58" clip-path="url(#clipPath54)" opacity=".5"><path id="path56" d="M 3.625,29.987 H 31.906 V 12.863 H 3.625 Z" fill="#6d53fe" fill-opacity="1" fill-rule="nonzero" stroke="none"/></g></g></g><g id="g62"><g id="g74"><g id="g72" clip-path="url(#clipPath68)" opacity=".2"><path id="path70" d="M 3.725,29.887 H 31.806 V 12.963 H 3.725 Z" fill="#6d53fe" fill-opacity="1" fill-rule="nonzero" stroke="none"/></g></g></g><g transform="translate(3.626 12.863)" id="g76"><path id="path78" d="M 0,0 V 1.821 L 1.468,2.955 3.449,2.74 6.448,6.5 9.513,4.731 l 1.858,1.395 1.795,0.543 1.999,2.412 2.328,-3.16 2.542,3.448 2.317,0.499 3.065,2.982 L 28.25,10.113 28.28,0 Z" fill="#fff" fill-opacity="1" fill-rule="nonzero" stroke="none"/></g><g transform="translate(3.726 12.963)" id="g80"><path id="path82" d="m 0,0 v 1.722 l 1.428,1.052 1.908,-0.233 3.036,3.73 3.048,-1.759 1.911,1.435 1.763,0.527 1.966,2.346 2.333,-3.167 2.622,3.557 2.256,0.46 3.046,2.941 2.764,-2.669 V 0 Z" fill="#fff" fill-opacity="1" fill-rule="nonzero" stroke="none"/></g><g id="g84"><g id="g98"><g id="g96" clip-path="url(#clipPath90)" opacity=".5"><g id="g94" transform="translate(3.626 12.863)"><path id="path92" d="M 0,0 V 0.424 L 1.422,0.915 3.34,0.812 6.368,2.569 9.527,1.748 l 1.801,0.65 1.717,0.231 2.127,1.195 2.321,-1.472 2.437,1.544 2.309,0.232 3.137,1.422 2.904,-1.275 V 0 Z" fill="#6d53fe" fill-opacity="1" fill-rule="nonzero" stroke="none"/></g></g></g></g><g id="g100"><g id="g114"><g id="g112" clip-path="url(#clipPath106)" opacity=".5"><g id="g110" transform="translate(3.726 12.963)"><path id="path108" d="m 0,0 v 0.253 l 1.355,0.468 1.879,-0.109 3.084,1.771 3.083,-0.831 1.86,0.652 1.697,0.226 2.111,1.178 2.324,-1.474 2.49,1.578 2.266,0.217 3.168,1.43 2.764,-1.248 V 0 Z" fill="#6d53fe" fill-opacity="1" fill-rule="nonzero" stroke="none"/></g></g></g></g></g></g></g></svg>