<svg xmlns="http://www.w3.org/2000/svg" viewBox="0 0 43.821 44.333" height="44.333" width="43.821" xml:space="preserve" id="svg2" version="1.1"><defs id="defs6"><clipPath id="clipPath18" clipPathUnits="userSpaceOnUse"><path id="path16" d="M 0,33.25 H 32.866 V 0 H 0 Z"/></clipPath><clipPath id="clipPath26" clipPathUnits="userSpaceOnUse"><path id="path24" d="m 11.937,4.64061 h 8.9896 V 1.78123 H 11.937 Z"/></clipPath><clipPath id="clipPath58" clipPathUnits="userSpaceOnUse"><path id="path56" d="M 5.32408,20.2376 H 7.54002 V 10.1033 H 5.32408 Z"/></clipPath><clipPath id="clipPath74" clipPathUnits="userSpaceOnUse"><path id="path72" d="M 9.75879,19.0022 H 11.976 V 10.1038 H 9.75879 Z"/></clipPath><clipPath id="clipPath92" clipPathUnits="userSpaceOnUse"><path id="path90" d="m 16.4116,18.1492 h 2.2159 v -8.0456 h -2.2159 z"/></clipPath><clipPath id="clipPath108" clipPathUnits="userSpaceOnUse"><path id="path106" d="m 20.8451,21.0763 h 2.2173 V 10.1038 h -2.2173 z"/></clipPath><clipPath id="clipPath124" clipPathUnits="userSpaceOnUse"><path id="path122" d="m 25.2803,26.1951 h 2.2199 V 10.1043 h -2.2199 z"/></clipPath><clipPath id="clipPath146" clipPathUnits="userSpaceOnUse"><path id="path144" d="m 23.0632,33.25 h 3.0062 v -2.4128 h -3.0062 z"/></clipPath><clipPath id="clipPath166" clipPathUnits="userSpaceOnUse"><path id="path164" d="M 3.10582,24.3136 H 9.01958 V 23.1078 H 3.10582 Z"/></clipPath></defs><g transform="matrix(1.33333 0 0 -1.33333 0 44.333)" id="g10"><g id="g12"><g clip-path="url(#clipPath18)" id="g14"><g id="g20"><g id="g34"><g id="g32" clip-path="url(#clipPath26)" opacity=".5"><g id="g30" transform="translate(20.926 1.781)"><path id="path28" d="m 0,0 h -8.989 l 0.816,2.859 h 7.355 z" fill="#1496e2" fill-opacity="1" fill-rule="nonzero" stroke="none"/></g></g></g></g><g transform="translate(23.332 .25)" id="g36"><path id="path38" d="m 0,0 h -13.802 v 0.028 c 0,0.013 0.041,0.025 0.123,0.034 0.083,0.01 0.191,0.014 0.299,0.014 h 12.958 c 0.11,0 0.216,-0.004 0.299,-0.014 C -0.041,0.053 0,0.041 0,0.028 Z" fill="none" stroke="#1496e2" stroke-width=".5" stroke-linecap="butt" stroke-linejoin="miter" stroke-miterlimit="10" stroke-dasharray="none" stroke-opacity="1"/></g><g transform="translate(32.616 8.468)" id="g40"><path id="path42" d="m 0,0 v -2.177 c 0,-0.432 -0.355,-0.786 -0.789,-0.786 h -30.789 c -0.431,0 -0.788,0.354 -0.788,0.786 V 0 Z" fill="none" stroke="#1496e2" stroke-width=".5" stroke-linecap="butt" stroke-linejoin="miter" stroke-miterlimit="10" stroke-dasharray="none" stroke-opacity="1"/></g><g transform="translate(32.616 8.468)" id="g44"><path id="path46" d="m 0,0 v 20.664 c 0,0.432 -0.354,0.788 -0.789,0.788 h -30.79 c -0.431,0 -0.786,-0.356 -0.786,-0.788 V 0 Z" fill="none" stroke="#1496e2" stroke-width=".5" stroke-linecap="butt" stroke-linejoin="miter" stroke-miterlimit="10" stroke-dasharray="none" stroke-opacity="1"/></g><path id="path48" d="M 1.883,28.285 H 30.977 V 10.103 H 1.883 Z" fill="#fff" fill-opacity="1" fill-rule="nonzero" stroke="none"/><path id="path50" d="M 3.106,13.187 H 5.324 V 10.104 H 3.106 Z" fill="#6d53fe" fill-opacity="1" fill-rule="nonzero" stroke="none"/><g id="g52"><g id="g64"><g id="g62" clip-path="url(#clipPath58)" opacity=".5"><path id="path60" d="M 5.324,20.238 H 7.54 V 10.104 H 5.324 Z" fill="#6d53fe" fill-opacity="1" fill-rule="nonzero" stroke="none"/></g></g></g><path id="path66" d="M 7.539,17.418 H 9.758 V 10.103 H 7.539 Z" fill="#6d53fe" fill-opacity="1" fill-rule="nonzero" stroke="none"/><g id="g68"><g id="g80"><g id="g78" clip-path="url(#clipPath74)" opacity=".5"><path id="path76" d="m 9.759,19.002 h 2.217 V 10.103 H 9.759 Z" fill="#6d53fe" fill-opacity="1" fill-rule="nonzero" stroke="none"/></g></g></g><path id="path82" d="m 11.977,13.762 h 2.217 v -3.658 h -2.217 z" fill="#6d53fe" fill-opacity="1" fill-rule="nonzero" stroke="none"/><path id="path84" d="m 14.194,22.376 h 2.218 V 10.103 h -2.218 z" fill="#6d53fe" fill-opacity="1" fill-rule="nonzero" stroke="none"/><g id="g86"><g id="g98"><g id="g96" clip-path="url(#clipPath92)" opacity=".5"><path id="path94" d="m 16.412,18.149 h 2.216 v -8.046 h -2.216 z" fill="#6d53fe" fill-opacity="1" fill-rule="nonzero" stroke="none"/></g></g></g><path id="path100" d="m 18.627,15.826 h 2.218 v -5.723 h -2.218 z" fill="#6d53fe" fill-opacity="1" fill-rule="nonzero" stroke="none"/><g id="g102"><g id="g114"><g id="g112" clip-path="url(#clipPath108)" opacity=".5"><path id="path110" d="m 20.845,21.076 h 2.217 V 10.103 h -2.217 z" fill="#6d53fe" fill-opacity="1" fill-rule="nonzero" stroke="none"/></g></g></g><path id="path116" d="m 23.063,24.612 h 2.218 V 10.105 h -2.218 z" fill="#6d53fe" fill-opacity="1" fill-rule="nonzero" stroke="none"/><g id="g118"><g id="g130"><g id="g128" clip-path="url(#clipPath124)" opacity=".5"><path id="path126" d="m 25.281,26.195 h 2.22 V 10.104 h -2.22 z" fill="#6d53fe" fill-opacity="1" fill-rule="nonzero" stroke="none"/></g></g></g><path id="path132" d="m 27.501,19.352 h 2.217 v -9.249 h -2.217 z" fill="#6d53fe" fill-opacity="1" fill-rule="nonzero" stroke="none"/><g transform="translate(3.32 9.684)" id="g134"><path id="path136" d="m 0,0 -0.214,0.42 1.362,0.693 1.36,2.608 1.341,0.064 1.322,1.988 1.335,0.216 1.386,1.794 1.535,-0.645 1.386,-1.451 0.994,1.415 1.528,0.4 1.251,-0.949 1.227,1.23 1.281,0.389 1.321,2.846 1.562,0.868 1.431,-1.757 1.108,-0.629 1.311,1.736 1.37,-0.491 1.27,1.043 1.439,0.185 0.06,-0.468 -1.304,-0.169 -1.372,-1.125 -1.295,0.462 -1.35,-1.787 -1.548,0.877 -1.235,1.519 L 18.778,10.681 17.433,7.782 16.063,7.367 14.628,5.928 13.233,6.988 12.095,6.69 10.869,4.944 9.154,6.741 8.043,7.208 6.766,5.553 5.45,5.341 4.11,3.327 2.801,3.263 1.495,0.761 Z" fill="#1496e2" fill-opacity="1" fill-rule="nonzero" stroke="none"/></g><path id="path138" d="m 26.069,33.25 h 0.644 v -7.055 h -0.644 z" fill="#1496e2" fill-opacity="1" fill-rule="nonzero" stroke="none"/><g id="g140"><g id="g154"><g id="g152" clip-path="url(#clipPath146)" opacity=".5"><g id="g150" transform="translate(23.063 33.25)"><path id="path148" d="M 0,0 0.445,-1.207 0,-2.413 H 3.007 V 0 Z" fill="#1496e2" fill-opacity="1" fill-rule="nonzero" stroke="none"/></g></g></g></g><path id="path156" d="M 3.106,26.195 H 9.02 V 24.717 H 3.106 Z" fill="#1496e2" fill-opacity="1" fill-rule="nonzero" stroke="none"/><path id="path158" d="m 3.782,25.635 h 2.28 v -0.403 h -2.28 z" fill="#fff" fill-opacity="1" fill-rule="nonzero" stroke="none"/><g id="g160"><g id="g174"><g id="g172" clip-path="url(#clipPath166)" opacity=".5" fill="#6d53fe" fill-opacity="1" fill-rule="nonzero" stroke="none"><path id="path168" d="M 3.106,24.313 H 9.02 V 23.911 H 3.106 Z"/><path id="path170" d="M 3.106,23.51 H 6.062 V 23.108 H 3.106 Z"/></g></g></g></g></g></g></svg>