<svg xmlns="http://www.w3.org/2000/svg" viewBox="0 0 65.333 65.333" height="65.333" width="65.333" xml:space="preserve" id="svg2" version="1.1"><defs id="defs6"><clipPath id="clipPath18" clipPathUnits="userSpaceOnUse"><path id="path16" d="M 0,49 H 49 V 0 H 0 Z"/></clipPath></defs><g transform="matrix(1.33333 0 0 -1.33333 0 65.333)" id="g10"><g id="g12"><g clip-path="url(#clipPath18)" id="g14"><g transform="translate(36.299 22.354)" id="g20"><path id="path22" d="m 0,0 c 0.944,-0.974 1.954,-1.884 2.868,-2.884 0.664,-0.727 1.278,-1.517 1.805,-2.347 0.666,-1.052 0.255,-2.041 -0.988,-2.218 -0.784,-0.111 -4.605,-0.001 -4.802,0 -1.028,0.005 -1.928,0.361 -2.654,1.059 -0.806,0.777 -1.539,1.629 -2.313,2.44 -0.233,0.244 -0.482,0.478 -0.751,0.682 -0.634,0.483 -1.256,0.376 -1.552,-0.368 -0.253,-0.639 -0.471,-2.317 -0.482,-2.461 -0.053,-0.749 -0.529,-1.227 -1.369,-1.273 -2.424,-0.131 -4.773,0.139 -6.961,1.311 -1.854,0.994 -3.335,2.397 -4.618,4.035 -2.037,2.6 -3.646,5.46 -5.116,8.403 -0.075,0.15 -1.563,3.317 -1.604,3.467 -0.132,0.5 -0.008,0.979 0.415,1.144 0.264,0.102 5.17,0 5.252,-0.005 0.784,-0.042 1.317,-0.372 1.647,-1.185 0.938,-2.315 2.125,-4.497 3.69,-6.456 0.207,-0.261 0.469,-0.493 0.745,-0.682 0.402,-0.276 0.782,-0.18 0.946,0.281 0.173,0.483 0.332,1.462 0.341,1.97 0.026,1.326 -0.003,2.195 -0.075,3.519 -0.046,0.848 -0.348,1.593 -1.595,1.818 -0.386,0.069 -0.421,0.387 -0.174,0.703 0.515,0.659 1.234,0.763 2.012,0.805 1.262,0.068 2.527,0.013 3.791,0 0.515,-0.005 1.032,-0.046 1.539,-0.157 0.661,-0.143 1.015,-0.607 1.123,-1.252 0.057,-0.334 0.086,-0.676 0.078,-1.013 C -8.835,7.89 -8.904,6.443 -8.921,4.996 -8.928,4.429 -8.887,3.847 -8.766,3.294 -8.595,2.523 -8.07,2.33 -7.534,2.887 c 0.681,0.707 1.282,1.503 1.846,2.31 1.024,1.47 1.79,3.084 2.448,4.747 0.341,0.858 0.601,1.045 1.524,1.047 1.736,0.004 3.471,0.006 5.206,0 C 3.799,10.99 4.12,10.96 4.411,10.868 4.883,10.718 5.069,10.333 4.959,9.845 4.701,8.702 4.084,7.73 3.422,6.796 2.36,5.297 1.247,3.834 0.16,2.353 0.021,2.164 -0.101,1.963 -0.215,1.758 -0.62,1.023 -0.593,0.611 0,0 m -36.299,19.039 v -33.784 c 0,-4.202 3.406,-7.609 7.608,-7.609 H 5.094 c 4.201,0 7.607,3.407 7.607,7.609 v 33.784 c 0,4.201 -3.406,7.607 -7.607,7.607 h -33.785 c -4.202,0 -7.608,-3.406 -7.608,-7.607" fill="#fff" fill-opacity="1" fill-rule="nonzero" stroke="none"/></g></g></g></g></svg>