<svg xmlns="http://www.w3.org/2000/svg" viewBox="0 0 65.306 64.989" height="64.989" width="65.306" xml:space="preserve" id="svg2" version="1.1"><defs id="defs6"><clipPath id="clipPath18" clipPathUnits="userSpaceOnUse"><path id="path16" d="M 0,48.741 H 48.98 V 0 H 0 Z"/></clipPath></defs><g transform="matrix(1.33333 0 0 -1.33333 0 64.989)" id="g10"><g id="g12"><g clip-path="url(#clipPath18)" id="g14"><g transform="translate(27.8 16.605)" id="g20"><path id="path22" d="M 0,0 C 1.703,-1.692 3.41,-3.381 5.111,-5.076 5.863,-5.826 6.069,-6.843 5.676,-7.767 5.019,-9.313 3.052,-9.75 1.822,-8.593 c -1.311,1.234 -2.586,2.507 -3.876,3.763 -0.413,0.402 -0.833,0.797 -1.235,1.209 -0.138,0.141 -0.208,0.122 -0.334,-0.012 -1.501,-1.609 -3.005,-3.215 -4.516,-4.816 -0.797,-0.845 -1.997,-1.037 -2.958,-0.489 -1.389,0.791 -1.665,2.605 -0.567,3.78 0.678,0.724 1.37,1.436 2.055,2.154 0.935,0.978 1.871,1.954 2.804,2.933 0.065,0.067 0.146,0.123 0.188,0.247 -0.991,0.208 -1.943,0.476 -2.864,0.845 -1.035,0.416 -2.028,0.911 -2.93,1.57 -0.85,0.622 -1.207,1.47 -0.982,2.5 0.222,1.019 0.885,1.646 1.91,1.853 0.62,0.126 1.22,0.022 1.743,-0.341 2.03,-1.408 4.296,-1.97 6.736,-1.888 1.947,0.064 3.769,0.581 5.417,1.64 C 2.777,6.589 3.121,6.842 3.559,6.933 4.69,7.167 5.805,6.617 6.278,5.577 6.751,4.542 6.439,3.326 5.511,2.639 4.283,1.73 2.914,1.104 1.469,0.636 0.937,0.463 0.395,0.326 -0.156,0.208 -0.145,0.096 -0.057,0.057 0,0 M -3.321,25.021 C 1.576,25.013 5.539,21.038 5.534,16.138 5.529,11.227 1.548,7.251 -3.354,7.262 c -4.896,0.01 -8.862,3.99 -8.855,8.884 0.007,4.918 3.979,8.884 8.888,8.875 m 24.413,0.96 c -0.385,2.48 -1.713,4.283 -3.935,5.425 -1.029,0.529 -2.143,0.729 -3.295,0.729 -11.387,0.001 -22.776,0 -34.164,0.002 -0.457,0 -0.91,-0.025 -1.362,-0.09 -1.895,-0.274 -3.432,-1.172 -4.614,-2.67 -1.046,-1.325 -1.52,-2.852 -1.521,-4.529 -0.002,-11.332 -0.001,-22.664 -0.002,-33.996 0,-0.441 0.022,-0.879 0.09,-1.314 0.373,-2.401 1.643,-4.178 3.772,-5.33 1.039,-0.562 2.168,-0.81 3.347,-0.81 5.762,-0.003 11.524,-0.002 17.286,-0.002 5.651,0 11.301,10e-4 16.951,0 0.472,0 0.942,0.019 1.41,0.088 1.882,0.282 3.415,1.172 4.594,2.661 1.061,1.337 1.529,2.879 1.529,4.574 0,11.356 0,22.712 10e-4,34.069 0,0.4 -0.027,0.797 -0.087,1.193" fill="#fff" fill-opacity="1" fill-rule="nonzero" stroke="none"/></g><g transform="translate(24.47 29.073)" id="g24"><path id="path26" d="M 0,0 C 2.03,0.01 3.673,1.664 3.665,3.691 3.657,5.731 2.006,7.346 -0.062,7.335 -2.061,7.326 -3.683,5.674 -3.676,3.655 -3.67,1.641 -2.01,-0.009 0,0" fill="#fff" fill-opacity="1" fill-rule="nonzero" stroke="none"/></g></g></g></g></svg>