<svg xmlns="http://www.w3.org/2000/svg" viewBox="0 0 65.667 65.667" height="65.667" width="65.667" xml:space="preserve" id="svg2" version="1.1"><defs id="defs6"><clipPath id="clipPath18" clipPathUnits="userSpaceOnUse"><path id="path16" d="M 0,49.25 H 49.25 V 0 H 0 Z"/></clipPath></defs><g transform="matrix(1.33333 0 0 -1.33333 0 65.667)" id="g10"><g id="g12"><g clip-path="url(#clipPath18)" id="g14"><g transform="translate(43.094 49.25)" id="g20"><path id="path22" d="m 0,0 h -36.938 c -3.395,0 -6.156,-2.761 -6.156,-6.156 v -36.938 c 0,-3.395 2.761,-6.156 6.156,-6.156 h 18.469 v 16.93 h -6.156 v 7.695 h 6.156 v 6.156 c 0,5.101 4.134,9.235 9.235,9.235 h 6.156 v -7.696 h -3.078 c -1.699,0 -3.078,0.16 -3.078,-1.539 v -6.156 h 7.695 L -4.617,-32.32 H -9.234 V -49.25 H 0 c 3.396,0 6.156,2.761 6.156,6.156 V -6.156 C 6.156,-2.761 3.396,0 0,0" fill="#fff" fill-opacity="1" fill-rule="nonzero" stroke="none"/></g></g></g></g></svg>