<svg xmlns="http://www.w3.org/2000/svg" viewBox="0 0 63.435 63.435" height="63.435" width="63.435" xml:space="preserve" id="svg2" version="1.1"><defs id="defs6"><clipPath id="clipPath18" clipPathUnits="userSpaceOnUse"><path id="path16" d="M 0,47.576 H 47.576 V 0 H 0 Z"/></clipPath></defs><g transform="matrix(1.33333 0 0 -1.33333 0 63.435)" id="g10"><g id="g12"><g clip-path="url(#clipPath18)" id="g14"><g transform="translate(43.116 14.867)" id="g20"><path id="path22" d="m 0,0 c 0,-5.738 -4.668,-10.407 -10.407,-10.407 h -17.841 c -5.739,0 -10.407,4.669 -10.407,10.407 v 17.841 c 0,5.739 4.668,10.408 10.407,10.408 h 17.841 C -4.668,28.249 0,23.58 0,17.841 Z m -10.407,32.709 h -17.841 c -8.21,0 -14.868,-6.658 -14.868,-14.868 V 0 c 0,-8.209 6.658,-14.867 14.868,-14.867 h 17.841 c 8.21,0 14.867,6.658 14.867,14.867 v 17.841 c 0,8.21 -6.657,14.868 -14.867,14.868" fill="#fff" fill-opacity="1" fill-rule="nonzero" stroke="none"/></g><g transform="translate(23.788 16.354)" id="g24"><path id="path26" d="m 0,0 c -4.097,0 -7.433,3.336 -7.433,7.434 0,4.1 3.336,7.433 7.433,7.433 4.098,0 7.435,-3.333 7.435,-7.433 C 7.435,3.336 4.098,0 0,0 m 0,19.328 c -6.568,0 -11.894,-5.326 -11.894,-11.894 0,-6.569 5.326,-11.894 11.894,-11.894 6.569,0 11.895,5.325 11.895,11.894 0,6.568 -5.326,11.894 -11.895,11.894" fill="#fff" fill-opacity="1" fill-rule="nonzero" stroke="none"/></g><g transform="translate(36.574 38.159)" id="g28"><path id="path30" d="M 0,0 C 0.876,0 1.585,-0.71 1.585,-1.585 1.585,-2.46 0.876,-3.17 0,-3.17 c -0.875,0 -1.585,0.71 -1.585,1.585 C -1.585,-0.71 -0.875,0 0,0" fill="#fff" fill-opacity="1" fill-rule="nonzero" stroke="none"/></g></g></g></g></svg>