<svg xmlns="http://www.w3.org/2000/svg" viewBox="0 0 101.687 84.921" height="84.921" width="101.687" xml:space="preserve" id="svg2" version="1.1"><defs id="defs6"><clipPath id="clipPath18" clipPathUnits="userSpaceOnUse"><path id="path16" d="M 0,63.691 H 76.265 V 0 H 0 Z"/></clipPath></defs><g transform="matrix(1.33333 0 0 -1.33333 0 84.921)" id="g10"><g id="g12"><g clip-path="url(#clipPath18)" id="g14"><g transform="translate(24.41 34.828)" id="g20"><path id="path22" d="m 0,0 c -1.879,0.539 -3.758,0.812 -5.586,0.812 -2.82,0 -5.176,-0.644 -7,-1.433 1.758,6.445 5.988,17.562 14.41,18.812 0.782,0.117 1.418,0.68 1.633,1.442 l 1.84,6.582 c 0.156,0.558 0.063,1.152 -0.254,1.636 -0.316,0.485 -0.828,0.805 -1.402,0.883 -0.621,0.086 -1.254,0.129 -1.883,0.129 -10.109,0 -20.121,-10.551 -24.344,-25.66 -2.48,-8.864 -3.207,-22.192 2.899,-30.578 3.422,-4.696 8.406,-7.2 14.824,-7.454 h 0.078 c 7.918,0 14.941,5.332 17.078,12.969 1.274,4.563 0.699,9.352 -1.625,13.481 C 8.367,-4.297 4.578,-1.321 0,0" fill="#1496e2" fill-opacity="1" fill-rule="nonzero" stroke="none"/></g><g transform="translate(73.976 26.449)" id="g24"><path id="path26" d="m 0,0 c -2.301,4.082 -6.09,7.058 -10.668,8.379 -1.879,0.539 -3.758,0.812 -5.582,0.812 -2.824,0 -5.176,-0.644 -7.004,-1.433 1.762,6.445 5.988,17.562 14.41,18.812 0.781,0.117 1.422,0.68 1.633,1.442 l 1.84,6.582 c 0.156,0.558 0.066,1.152 -0.254,1.636 -0.316,0.485 -0.828,0.805 -1.398,0.883 -0.622,0.086 -1.254,0.129 -1.883,0.129 -10.11,0 -20.121,-10.551 -24.348,-25.66 -2.48,-8.863 -3.206,-22.191 2.902,-30.578 3.418,-4.695 8.407,-7.203 14.825,-7.453 h 0.078 c 7.918,0 14.941,5.332 17.074,12.965 C 2.902,-8.918 2.324,-4.129 0,0" fill="#1496e2" fill-opacity="1" fill-rule="nonzero" stroke="none"/></g></g></g></g></svg>