<svg xmlns="http://www.w3.org/2000/svg" viewBox="0 0 120.129 149.091" height="149.091" width="120.129" xml:space="preserve" id="svg2" version="1.1"><defs id="defs6"><clipPath id="clipPath18" clipPathUnits="userSpaceOnUse"><path id="path16" d="M 0,111.818 H 90.096 V 0 H 0 Z"/></clipPath><clipPath id="clipPath30" clipPathUnits="userSpaceOnUse"><path id="path28" d="m 20.4095,111.818 h 17.977 V 81.5591 h -17.977 z"/></clipPath><clipPath id="clipPath54" clipPathUnits="userSpaceOnUse"><path id="path52" d="M 38.3865,30.135 H 57.5926 V 0 H 38.3865 Z"/></clipPath></defs><g transform="matrix(1.33333 0 0 -1.33333 0 149.09)" id="g10"><g id="g12"><g clip-path="url(#clipPath18)" id="g14"><g transform="translate(38.387 29.278)" id="g20"><path id="path22" d="m 0,0 c -4.747,0 -8.641,3.633 -9.066,8.269 h -0.042 v 35.884 c 0,5.03 4.078,9.108 9.108,9.108 V 82.54 c -19.242,0 -35.176,-14.159 -37.955,-32.626 -0.272,-1.115 -0.432,-2.273 -0.432,-3.471 V 8.269 c 0,-0.285 0.027,-0.562 0.043,-0.842 0.008,-0.195 0.018,-0.389 0.029,-0.584 0.003,-0.031 0.004,-0.063 0.007,-0.093 1.219,-20.092 17.884,-36.012 38.279,-36.027 0.017,0.012 0.029,0.02 0.029,0.02 8.079,0 14.628,6.55 14.628,14.629 C 14.628,-6.549 8.079,0 0,0" fill="#1496e2" fill-opacity="1" fill-rule="nonzero" stroke="none"/></g><g id="g24"><g id="g38"><g id="g36" clip-path="url(#clipPath30)" opacity=".3"><g id="g34" transform="translate(34.292 81.56)"><path id="path32" d="m 0,0 c 1.232,0.622 2.62,0.98 4.094,0.98 v 29.279 c -3.55,0 -6.986,-0.485 -10.248,-1.387 -4.617,-2.695 -7.729,-7.689 -7.729,-13.42 C -13.883,7.429 -7.803,0.829 0,0" fill="#000" fill-opacity="1" fill-rule="nonzero" stroke="none"/></g></g></g></g><g transform="translate(83.043 88.557)" id="g40"><path id="path42" d="m 0,0 h -9.376 c -5.872,13.678 -19.453,23.261 -35.281,23.261 -8.079,0 -14.629,-6.549 -14.629,-14.628 0,-8.08 6.55,-14.629 14.629,-14.629 v -0.022 c 5.03,0 9.108,-4.077 9.108,-9.107 h 0.021 V -51.01 h -0.064 c -0.424,-4.636 -4.318,-8.268 -9.065,-8.268 8.079,0 14.629,-6.549 14.629,-14.628 0,-8.079 -6.55,-14.629 -14.629,-14.629 v -0.022 c 6.798,0 13.178,1.776 18.715,4.876 h 18.69 c 1.96,0 3.549,1.589 3.549,3.549 0,1.961 -1.589,3.55 -3.549,3.55 H -9 h -7.208 -0.607 c 0.018,0.019 0.035,0.039 0.053,0.059 -1.212,0.254 -2.122,1.329 -2.122,2.617 0,1.477 1.198,2.675 2.676,2.675 h 3.641 3.567 0.211 c 1.96,0 3.55,1.589 3.55,3.549 0,1.96 -1.59,3.549 -3.55,3.549 h -0.119 c 1.42,3.633 2.311,7.53 2.558,11.604 0.003,0.031 0.004,0.063 0.008,0.093 0.011,0.195 0.021,0.389 0.029,0.584 0.016,0.281 0.042,0.558 0.042,0.842 v 31.462 h 0.738 c 1.96,0 3.549,1.589 3.549,3.549 0,1.96 -1.589,3.549 -3.549,3.549 h -0.75 -1.844 c -1.478,0 -2.676,1.198 -2.676,2.676 0,1.478 1.198,2.675 2.676,2.675 H -7.122 -0.919 0 c 1.96,0 3.549,1.59 3.549,3.55 C 3.549,-1.589 1.96,0 0,0" fill="#097cb5" fill-opacity="1" fill-rule="nonzero" stroke="none"/></g><g transform="translate(90.096 8.425)" id="g44"><path id="path46" d="m 0,0 c 0,-1.935 -1.568,-3.504 -3.504,-3.504 -1.934,0 -3.503,1.569 -3.503,3.504 0,1.936 1.569,3.504 3.503,3.504 C -1.568,3.504 0,1.936 0,0" fill="#097cb5" fill-opacity="1" fill-rule="nonzero" stroke="none"/></g><g id="g48"><g id="g62"><g id="g60" clip-path="url(#clipPath54)" opacity=".1"><g id="g58" transform="translate(42.225 30.135)"><path id="path56" d="m 0,0 c -1.167,-0.544 -2.465,-0.856 -3.838,-0.856 8.079,0 14.629,-6.549 14.629,-14.628 0,-8.079 -6.55,-14.629 -14.629,-14.629 v -0.022 c 4.655,0 9.105,0.85 13.232,2.37 3.631,2.845 5.974,7.26 5.974,12.232 C 15.368,-7.009 8.502,-0.094 0,0" fill="#000" fill-opacity="1" fill-rule="nonzero" stroke="none"/></g></g></g></g></g></g></g></svg>