<svg xmlns="http://www.w3.org/2000/svg" viewBox="0 0 122.025 149.091" height="149.091" width="122.025" xml:space="preserve" id="svg2" version="1.1"><defs id="defs6"><clipPath id="clipPath18" clipPathUnits="userSpaceOnUse"><path id="path16" d="M 0,111.818 H 91.519 V 0 H 0 Z"/></clipPath><clipPath id="clipPath30" clipPathUnits="userSpaceOnUse"><path id="path28" d="M 47.6325,52.609 H 76.8899 V 23.3517 H 47.6325 Z"/></clipPath><clipPath id="clipPath44" clipPathUnits="userSpaceOnUse"><path id="path42" d="M 47.6325,57.3678 H 79.0761 V 28.1105 H 47.6325 Z"/></clipPath></defs><g transform="matrix(1.33333 0 0 -1.33333 0 149.09)" id="g10"><g id="g12"><g clip-path="url(#clipPath18)" id="g14"><g transform="translate(84.613 76.003)" id="g20"><path id="path22" d="m 0,0 h -10.156 c -2.619,3.95 -7.101,6.557 -12.196,6.557 -8.079,0 -14.628,-6.549 -14.628,-14.629 v -53.303 c 0,-8.079 6.549,-14.629 14.628,-14.629 8.08,0 14.629,6.55 14.629,14.629 v 41.827 h 0.05 c 1.96,0 3.549,1.589 3.549,3.549 0,1.96 -1.589,3.549 -3.549,3.549 h -0.05 -1.925 c -1.478,0 -2.676,1.198 -2.676,2.676 0,1.478 1.198,2.675 2.676,2.675 H -7.772 -2.44 0 c 1.96,0 3.549,1.589 3.549,3.55 C 3.549,-1.589 1.96,0 0,0" fill="#097cb5" fill-opacity="1" fill-rule="nonzero" stroke="none"/></g><g id="g24"><g id="g36"><g id="g34" clip-path="url(#clipPath30)" opacity=".1"><path id="path32" d="M 47.633,23.352 H 76.89 V 52.609 H 47.633 Z" fill="#000" fill-opacity="1" fill-rule="nonzero" stroke="none"/></g></g></g><g id="g38"><g id="g52"><g id="g50" clip-path="url(#clipPath44)" opacity=".1"><g id="g48" transform="translate(76.94 56.455)"><path id="path46" d="M 0,0 C 0.806,0 1.541,0.279 2.137,0.732 1.422,0.839 0.695,0.913 -0.049,0.913 h -29.258 v -29.257 h 29.258 l 0,28.344 z" fill="#000" fill-opacity="1" fill-rule="nonzero" stroke="none"/></g></g></g></g><g transform="translate(76.89 55.859)" id="g54"><path id="path56" d="m 0,0 h -38.864 l 16.871,34.931 c 3.532,7.266 0.506,16.02 -6.76,19.552 -7.267,3.533 -16.02,0.506 -19.553,-6.76 L -74.772,-7.076 c -0.47,-0.777 -0.869,-1.6 -1.189,-2.462 l -0.004,-0.008 0.001,-0.001 c -0.589,-1.585 -0.926,-3.292 -0.926,-5.082 0,-8.079 6.55,-14.628 14.629,-14.628 H 0 c 8.079,0 14.629,6.549 14.629,14.628 C 14.629,-6.55 8.079,0 0,0" fill="#1496e2" fill-opacity="1" fill-rule="nonzero" stroke="none"/></g></g></g></g></svg>